<svg width="13" height="10" viewBox="0 0 13 10" fill="none" xmlns="http://www.w3.org/2000/svg">
<path d="M4.37524 7.47453L1.89608 4.99536C1.83125 4.92974 1.75404 4.87764 1.66893 4.84208C1.58381 4.80653 1.49249 4.78822 1.40024 4.78822C1.308 4.78822 1.21668 4.80653 1.13156 4.84208C1.04645 4.87764 0.969239 4.92974 0.90441 4.99536C0.83879 5.06019 0.786691 5.1374 0.751133 5.22251C0.715575 5.30763 0.697266 5.39895 0.697266 5.49119C0.697266 5.58344 0.715575 5.67476 0.751133 5.75988C0.786691 5.84499 0.83879 5.9222 0.90441 5.98703L3.87233 8.95494C4.14858 9.23119 4.59483 9.23119 4.87108 8.95494L12.3794 1.45369C12.445 1.38887 12.4971 1.31166 12.5327 1.22654C12.5682 1.14143 12.5866 1.0501 12.5866 0.957861C12.5866 0.865618 12.5682 0.774293 12.5327 0.689179C12.4971 0.604065 12.445 0.526856 12.3794 0.462027C12.3146 0.396408 12.2374 0.344308 12.1523 0.30875C12.0671 0.273192 11.9758 0.254883 11.8836 0.254883C11.7913 0.254883 11.7 0.273192 11.6149 0.30875C11.5298 0.344308 11.4526 0.396408 11.3877 0.462027L4.37524 7.47453Z" fill="#00993E"/>
</svg>
