<svg width="30" height="30" viewBox="0 0 30 30" fill="none" xmlns="http://www.w3.org/2000/svg">
<circle r="14.5" transform="matrix(4.37114e-08 -1 -1 -4.37114e-08 15 15)" stroke="#012510"/>
<path d="M15.8739 18.5294C15.9879 18.5296 16.0983 18.4899 16.1861 18.4172C16.2355 18.3762 16.2763 18.3259 16.3062 18.2692C16.3362 18.2124 16.3546 18.1503 16.3605 18.0864C16.3664 18.0226 16.3596 17.9581 16.3406 17.8969C16.3215 17.8356 16.2906 17.7787 16.2495 17.7294L14.0641 15.1147L16.1714 12.4952C16.212 12.4453 16.2422 12.3879 16.2605 12.3263C16.2787 12.2647 16.2846 12.2 16.2778 12.1361C16.271 12.0722 16.2517 12.0103 16.2209 11.9539C16.19 11.8974 16.1484 11.8477 16.0983 11.8074C16.0478 11.763 15.9887 11.7295 15.9247 11.709C15.8606 11.6886 15.7931 11.6815 15.7262 11.6884C15.6593 11.6953 15.5946 11.7159 15.5361 11.749C15.4775 11.782 15.4265 11.8269 15.3861 11.8806L13.03 14.8074C12.9582 14.8947 12.919 15.0042 12.919 15.1172C12.919 15.2302 12.9582 15.3397 13.03 15.4269L15.469 18.3538C15.5179 18.4128 15.5801 18.4595 15.6505 18.49C15.7208 18.5205 15.7973 18.534 15.8739 18.5294Z" fill="#012510"/>
</svg>
