<svg width="41" height="41" viewBox="0 0 41 41" fill="none" xmlns="http://www.w3.org/2000/svg">
<circle r="20" transform="matrix(4.37114e-08 -1 -1 -4.37114e-08 20.5 20.5)" stroke="#D7DADE"/>
<path d="M21.6945 25.3238C21.8502 25.3241 22.0012 25.2698 22.1211 25.1704C22.1886 25.1145 22.2444 25.0457 22.2853 24.9682C22.3262 24.8906 22.3514 24.8057 22.3595 24.7184C22.3675 24.6311 22.3583 24.5431 22.3323 24.4593C22.3062 24.3756 22.2639 24.2978 22.2078 24.2304L19.2211 20.6571L22.1011 17.0771C22.1565 17.0089 22.1979 16.9304 22.2228 16.8462C22.2478 16.762 22.2558 16.6737 22.2465 16.5863C22.2372 16.499 22.2108 16.4143 22.1687 16.3372C22.1266 16.2601 22.0696 16.1921 22.0011 16.1371C21.9322 16.0764 21.8514 16.0306 21.7639 16.0026C21.6764 15.9747 21.584 15.965 21.4926 15.9744C21.4012 15.9838 21.3128 16.012 21.2328 16.0572C21.1528 16.1024 21.083 16.1637 21.0278 16.2371L17.8078 20.2371C17.7097 20.3564 17.6561 20.506 17.6561 20.6604C17.6561 20.8149 17.7097 20.9645 17.8078 21.0838L21.1411 25.0838C21.208 25.1645 21.293 25.2282 21.3891 25.2699C21.4852 25.3116 21.5899 25.3301 21.6945 25.3238Z" fill="#D7DADE"/>
</svg>
