<svg width="41" height="41" viewBox="0 0 41 41" fill="none" xmlns="http://www.w3.org/2000/svg">
<circle cx="20.5" cy="20.5" r="20" transform="rotate(-90 20.5 20.5)" stroke="#142131"/>
<path d="M19.3055 25.3238C19.1498 25.3241 18.9988 25.2698 18.8789 25.1704C18.8114 25.1145 18.7556 25.0457 18.7147 24.9682C18.6738 24.8906 18.6486 24.8057 18.6405 24.7184C18.6325 24.6311 18.6417 24.5431 18.6677 24.4593C18.6938 24.3756 18.7361 24.2978 18.7922 24.2304L21.7789 20.6571L18.8989 17.0771C18.8435 17.0089 18.8021 16.9304 18.7772 16.8462C18.7522 16.762 18.7442 16.6737 18.7535 16.5863C18.7628 16.499 18.7892 16.4143 18.8313 16.3372C18.8734 16.2601 18.9304 16.1921 18.9989 16.1371C19.0678 16.0764 19.1486 16.0306 19.2361 16.0026C19.3236 15.9747 19.416 15.965 19.5074 15.9744C19.5988 15.9838 19.6872 16.012 19.7672 16.0572C19.8472 16.1024 19.917 16.1637 19.9722 16.2371L23.1922 20.2371C23.2903 20.3564 23.3439 20.506 23.3439 20.6604C23.3439 20.8149 23.2903 20.9645 23.1922 21.0838L19.8589 25.0838C19.792 25.1645 19.707 25.2282 19.6109 25.2699C19.5148 25.3116 19.4101 25.3301 19.3055 25.3238Z" fill="#142131"/>
</svg>
