<svg width="41" height="42" viewBox="0 0 41 42" fill="none" xmlns="http://www.w3.org/2000/svg">
<circle cx="20.5" cy="21.115" r="20" stroke="white"/>
<path d="M15.6765 19.9206C15.6762 19.7649 15.7304 19.6139 15.8298 19.494C15.8858 19.4265 15.9545 19.3707 16.0321 19.3298C16.1096 19.2889 16.1945 19.2637 16.2818 19.2556C16.3691 19.2476 16.4572 19.2568 16.5409 19.2829C16.6247 19.3089 16.7024 19.3512 16.7698 19.4073L20.3431 22.394L23.9231 19.514C23.9913 19.4586 24.0698 19.4172 24.154 19.3923C24.2382 19.3673 24.3266 19.3593 24.4139 19.3686C24.5013 19.3779 24.5859 19.4043 24.663 19.4464C24.7401 19.4886 24.8081 19.5455 24.8631 19.614C24.9238 19.683 24.9696 19.7637 24.9976 19.8512C25.0256 19.9388 25.0352 20.0311 25.0258 20.1225C25.0164 20.2139 24.9882 20.3024 24.943 20.3823C24.8978 20.4623 24.8366 20.5321 24.7631 20.5873L20.7631 23.8073C20.6438 23.9054 20.4942 23.959 20.3398 23.959C20.1854 23.959 20.0358 23.9054 19.9165 23.8073L15.9165 20.474C15.8358 20.4071 15.772 20.3221 15.7303 20.226C15.6886 20.1299 15.6702 20.0253 15.6765 19.9206Z" fill="white"/>
</svg>
