<svg width="6" height="13" viewBox="0 0 6 13" fill="none" xmlns="http://www.w3.org/2000/svg">
<path d="M0.881675 12.4049C0.686965 12.4053 0.498268 12.3375 0.348341 12.2132C0.263959 12.1433 0.194208 12.0574 0.143081 11.9604C0.0919547 11.8634 0.0604577 11.7574 0.0503945 11.6482C0.0403313 11.5391 0.0518996 11.429 0.0844367 11.3243C0.116974 11.2197 0.16984 11.1224 0.240008 11.0382L3.97334 6.57157L0.373342 2.09657C0.30412 2.01133 0.252427 1.91325 0.221234 1.80796C0.190041 1.70268 0.179963 1.59227 0.191579 1.48308C0.203195 1.37389 0.236275 1.26807 0.28892 1.17171C0.341565 1.07534 0.412736 0.990334 0.498342 0.921565C0.584563 0.845701 0.685535 0.788478 0.79492 0.753487C0.904305 0.718497 1.01974 0.706493 1.13399 0.718231C1.24823 0.729968 1.35882 0.765193 1.4588 0.821695C1.55879 0.878196 1.64601 0.954754 1.71501 1.04657L5.74001 6.04657C5.86258 6.19568 5.92958 6.38271 5.92958 6.57573C5.92958 6.76875 5.86258 6.95579 5.74001 7.1049L1.57334 12.1049C1.48974 12.2057 1.38355 12.2855 1.26337 12.3376C1.1432 12.3897 1.01243 12.4128 0.881675 12.4049Z" fill="#00993E"/>
</svg>
