<svg width="41" height="41" viewBox="0 0 41 41" fill="none" xmlns="http://www.w3.org/2000/svg">
<circle cx="20.5" cy="20.5" r="20" transform="rotate(-90 20.5 20.5)" stroke="#00993E"/>
<path d="M19.3055 25.3235C19.1498 25.3238 18.9988 25.2696 18.8789 25.1702C18.8114 25.1142 18.7556 25.0455 18.7147 24.9679C18.6738 24.8904 18.6486 24.8055 18.6405 24.7182C18.6325 24.6309 18.6417 24.5428 18.6677 24.4591C18.6938 24.3753 18.7361 24.2976 18.7922 24.2302L21.7789 20.6569L18.8989 17.0769C18.8435 17.0087 18.8021 16.9302 18.7772 16.846C18.7522 16.7618 18.7442 16.6734 18.7535 16.5861C18.7628 16.4987 18.7892 16.4141 18.8313 16.337C18.8734 16.2599 18.9304 16.1919 18.9989 16.1369C19.0678 16.0762 19.1486 16.0304 19.2361 16.0024C19.3236 15.9744 19.416 15.9648 19.5074 15.9742C19.5988 15.9836 19.6872 16.0118 19.7672 16.057C19.8472 16.1022 19.917 16.1634 19.9722 16.2369L23.1922 20.2369C23.2903 20.3562 23.3439 20.5058 23.3439 20.6602C23.3439 20.8146 23.2903 20.9642 23.1922 21.0835L19.8589 25.0835C19.792 25.1642 19.707 25.228 19.6109 25.2697C19.5148 25.3114 19.4101 25.3298 19.3055 25.3235Z" fill="#00993E"/>
</svg>
