<svg width="12" height="7" viewBox="0 0 12 7" fill="none" xmlns="http://www.w3.org/2000/svg">
<path d="M11.8334 5.16666C11.8337 5.36137 11.7659 5.55007 11.6417 5.7C11.5717 5.78438 11.4858 5.85413 11.3889 5.90526C11.2919 5.95638 11.1858 5.98788 11.0767 5.99794C10.9675 6.00801 10.8575 5.99644 10.7528 5.9639C10.6481 5.93137 10.5509 5.8785 10.4667 5.80833L6.00003 2.075L1.52503 5.675C1.43979 5.74422 1.34171 5.79591 1.23643 5.82711C1.13115 5.8583 1.02074 5.86838 0.911547 5.85676C0.802356 5.84515 0.696538 5.81206 0.600174 5.75942C0.50381 5.70677 0.418801 5.6356 0.350032 5.55C0.274168 5.46378 0.216945 5.36281 0.181954 5.25342C0.146963 5.14403 0.13496 5.0286 0.146698 4.91435C0.158435 4.80011 0.19366 4.68952 0.250161 4.58954C0.306663 4.48955 0.383221 4.40233 0.475032 4.33333L5.47503 0.308334C5.62414 0.185766 5.81118 0.118761 6.0042 0.118761C6.19722 0.118761 6.38425 0.185766 6.53337 0.308334L11.5334 4.475C11.6342 4.5586 11.7139 4.66479 11.7661 4.78497C11.8182 4.90514 11.8412 5.03591 11.8334 5.16666Z" fill="#00993E"/>
</svg>
