<svg width="20" height="20" viewBox="0 0 20 20" fill="none" xmlns="http://www.w3.org/2000/svg">
<g clip-path="url(#clip0_108_13109)">
<path d="M5.61523 3.91956e-05C5.2715 0.00612954 5.00122 0.288575 5.00122 0.632363V1.8726H0.622559C0.276912 1.8726 0 2.15561 0 2.50126V19.3726C0 19.7177 0.277391 20 0.622559 20H19.3726C19.7196 20 20 19.7197 20 19.3726V2.50126C20 2.1537 19.7201 1.8726 19.3726 1.8726H14.9988C14.9988 1.8726 14.9988 1.04577 14.9988 0.632363C14.9988 0.281432 14.7174 -0.00405726 14.3665 3.91956e-05C14.0213 0.00406871 13.7488 0.287167 13.7488 0.632363V1.8726H6.25122C6.25122 1.8726 6.25122 1.04577 6.25122 0.632363C6.25122 0.279974 5.96757 -0.00620351 5.61523 3.91956e-05V3.91956e-05ZM1.25 3.12382H5.00122V3.75126C5.00122 4.60349 6.25122 4.60349 6.25122 3.75126V3.12382H13.7488V3.75126C13.7488 4.60349 14.9988 4.60349 14.9988 3.75126V3.12382H18.75V6.25125H1.25V3.12382ZM1.25 7.50247H18.75V18.75H1.25V7.50247ZM3.125 9.37991V10.6287H4.375V9.37991H3.125ZM6.25 9.37991V10.6287H7.5V9.37991H6.25ZM9.375 9.37991V10.6287H10.625V9.37991H9.375ZM12.5 9.37991V10.6287H13.75V9.37991H12.5ZM15.625 9.37991V10.6287H16.875V9.37991H15.625ZM3.125 12.5V13.75H4.375V12.5H3.125ZM6.25 12.5V13.75H7.5V12.5H6.25ZM9.375 12.5V13.75H10.625V12.5H9.375ZM12.5 12.5V13.75H13.75V12.5H12.5ZM15.625 12.5V13.75H16.875V12.5H15.625ZM3.125 15.625V16.875H4.375V15.625H3.125ZM6.25 15.625V16.875H7.5V15.625H6.25ZM9.375 15.625V16.875H10.625V15.625H9.375ZM12.5 15.625V16.875H13.75V15.625H12.5ZM15.625 15.625V16.875H16.875V15.625H15.625Z" fill="#00993E"/>
</g>
<defs>
<clipPath id="clip0_108_13109">
<rect width="20" height="20" fill="white"/>
</clipPath>
</defs>
</svg>
