<svg width="30" height="31" viewBox="0 0 30 31" fill="none" xmlns="http://www.w3.org/2000/svg">
<path d="M11.5 15.7812H10.5C10.2411 15.7812 10.0312 15.9911 10.0312 16.25C10.0312 16.5089 10.2411 16.7188 10.5 16.7188H11.5C11.7589 16.7188 11.9688 16.5089 11.9688 16.25C11.9688 15.9911 11.7589 15.7812 11.5 15.7812Z" fill="white"/>
<path d="M11.5 17.7812H10.5C10.2411 17.7812 10.0312 17.9911 10.0312 18.25C10.0312 18.5089 10.2411 18.7188 10.5 18.7188H11.5C11.7589 18.7188 11.9688 18.5089 11.9688 18.25C11.9688 17.9911 11.7589 17.7812 11.5 17.7812Z" fill="white"/>
<path d="M11.5 19.7812H10.5C10.2411 19.7812 10.0312 19.9911 10.0312 20.25C10.0312 20.5089 10.2411 20.7188 10.5 20.7188H11.5C11.7589 20.7188 11.9688 20.5089 11.9688 20.25C11.9688 19.9911 11.7589 19.7812 11.5 19.7812Z" fill="white"/>
<path d="M15.5 15.7812H14.5C14.2411 15.7812 14.0312 15.9911 14.0312 16.25C14.0312 16.5089 14.2411 16.7188 14.5 16.7188H15.5C15.7589 16.7188 15.9688 16.5089 15.9688 16.25C15.9688 15.9911 15.7589 15.7812 15.5 15.7812Z" fill="white"/>
<path d="M15.5 17.7812H14.5C14.2411 17.7812 14.0312 17.9911 14.0312 18.25C14.0312 18.5089 14.2411 18.7188 14.5 18.7188H15.5C15.7589 18.7188 15.9688 18.5089 15.9688 18.25C15.9688 17.9911 15.7589 17.7812 15.5 17.7812Z" fill="white"/>
<path d="M15.5 19.7812H14.5C14.2411 19.7812 14.0312 19.9911 14.0312 20.25C14.0312 20.5089 14.2411 20.7188 14.5 20.7188H15.5C15.7589 20.7188 15.9688 20.5089 15.9688 20.25C15.9688 19.9911 15.7589 19.7812 15.5 19.7812Z" fill="white"/>
<path d="M19.5 15.7812H18.5C18.2411 15.7812 18.0312 15.9911 18.0312 16.25C18.0312 16.5089 18.2411 16.7188 18.5 16.7188H19.5C19.7589 16.7188 19.9688 16.5089 19.9688 16.25C19.9688 15.9911 19.7589 15.7812 19.5 15.7812Z" fill="white"/>
<path d="M19.5 17.7812H18.5C18.2411 17.7812 18.0312 17.9911 18.0312 18.25C18.0312 18.5089 18.2411 18.7188 18.5 18.7188H19.5C19.7589 18.7188 19.9688 18.5089 19.9688 18.25C19.9688 17.9911 19.7589 17.7812 19.5 17.7812Z" fill="white"/>
<path d="M19.5 19.7812H18.5C18.2411 19.7812 18.0312 19.9911 18.0312 20.25C18.0312 20.5089 18.2411 20.7188 18.5 20.7188H19.5C19.7589 20.7188 19.9688 20.5089 19.9688 20.25C19.9688 19.9911 19.7589 19.7812 19.5 19.7812Z" fill="white"/>
<path d="M21.5938 10.0312H20.4688V9.25C20.4688 8.99112 20.2589 8.78125 20 8.78125C19.7411 8.78125 19.5312 8.99112 19.5312 9.25V10.0312H15.4688V9.25C15.4688 8.99112 15.2589 8.78125 15 8.78125C14.7411 8.78125 14.5312 8.99112 14.5312 9.25V10.0312H10.4688V9.25C10.4688 8.99112 10.2589 8.78125 10 8.78125C9.74113 8.78125 9.53125 8.99112 9.53125 9.25V10.0312H8.40625C7.63084 10.0312 7 10.6621 7 11.4375V21.8125C7 22.5879 7.63084 23.2188 8.40625 23.2188H21.5938C22.3692 23.2188 23 22.5879 23 21.8125C23 21.5099 23 11.7008 23 11.4375C23 10.6621 22.3692 10.0312 21.5938 10.0312ZM7.9375 11.4375C7.9375 11.179 8.14778 10.9688 8.40625 10.9688H9.53125V11.75C9.53125 12.0089 9.74113 12.2188 10 12.2188C10.2589 12.2188 10.4688 12.0089 10.4688 11.75V10.9688H14.5312V11.75C14.5312 12.0089 14.7411 12.2188 15 12.2188C15.2589 12.2188 15.4688 12.0089 15.4688 11.75V10.9688H19.5312V11.75C19.5312 12.0089 19.7411 12.2188 20 12.2188C20.2589 12.2188 20.4688 12.0089 20.4688 11.75V10.9688H21.5938C21.8522 10.9688 22.0625 11.179 22.0625 11.4375V13.2812H7.9375V11.4375ZM21.5938 22.2812H8.40625C8.14778 22.2812 7.9375 22.071 7.9375 21.8125V14.2188H22.0625V21.8125C22.0625 22.071 21.8522 22.2812 21.5938 22.2812Z" fill="white"/>
<circle opacity="0.3" cx="15" cy="15.5" r="14.5" stroke="white"/>
</svg>
