<svg width="46" height="46" viewBox="0 0 46 46" fill="none" xmlns="http://www.w3.org/2000/svg">
<g clip-path="url(#clip0_108_13040)">
<path d="M32.8856 27.7598L32.089 23.2431C32.0556 23.0515 31.9161 22.9048 31.7411 22.8515L30.4376 15.4602C30.3816 15.1414 30.4318 14.8075 30.5784 14.5195L30.6883 14.4795C31.0651 14.3423 31.2602 13.9241 31.1231 13.5472L30.9247 13.0021C30.7875 12.6252 30.3693 12.4302 29.9924 12.5674L26.7225 13.7575C26.1954 13.9493 25.9226 14.5343 26.1145 15.0615C26.2647 15.4742 26.6558 15.731 27.0715 15.731C27.1868 15.731 27.3041 15.7113 27.4185 15.6696L28.3635 15.3256L29.2201 20.1814C29.2502 20.3519 29.3985 20.4719 29.5659 20.4719C29.5862 20.4719 29.6068 20.4701 29.6274 20.4665C29.8186 20.4328 29.9463 20.2504 29.9125 20.0592L29.0344 15.0815L29.7456 14.8226C29.7021 15.073 29.701 15.3307 29.7451 15.5821L31.0392 22.9197L30.4356 23.0261L30.1999 21.689C30.1662 21.4978 29.984 21.3701 29.7927 21.4039C29.6015 21.4376 29.4737 21.6199 29.5075 21.8111L29.7526 23.2018C29.6069 23.3114 29.5257 23.4969 29.5591 23.6884L29.7358 24.6906C29.7589 24.8218 29.7164 24.9565 29.6224 25.0507L25.3952 29.2779H21.7524C21.5583 29.2779 21.4009 29.4353 21.4009 29.6295C21.4009 29.8236 21.5583 29.981 21.7524 29.981H27.9784C27.9875 29.981 28.0115 29.9811 28.0263 30.0106C28.0411 30.0402 28.0267 30.0595 28.0214 30.0667L26.741 31.7813C26.6426 31.9131 26.4856 31.9919 26.3211 31.9919H20.8555C20.8437 31.9919 20.832 31.9902 20.8207 31.9867L18.1407 31.1655C18.0938 31.151 18.0451 31.1437 17.9959 31.1437H14.8823C14.5606 31.1437 14.29 30.8926 14.279 30.5839C14.2733 30.4243 14.331 30.2733 14.4416 30.1588C14.5521 30.0441 14.7007 29.981 14.86 29.981H20.1119C20.3061 29.981 20.4635 29.8236 20.4635 29.6295C20.4635 29.4353 20.3061 29.2779 20.1119 29.2779H18.9322C18.3767 27.507 16.7406 26.2926 14.8598 26.2926C13.2566 26.2926 11.803 27.1783 11.067 28.6026C10.9479 28.8302 10.9903 29.1056 11.1726 29.2879L11.9838 30.0992C11.9596 30.2501 11.9466 30.4047 11.9466 30.5623C11.9466 32.1689 13.2534 33.476 14.8598 33.476C15.9865 33.476 16.9884 32.844 17.4759 31.8469H17.9643L20.6147 32.6589C20.6928 32.6829 20.7738 32.695 20.8555 32.695H26.3212C26.7065 32.695 27.074 32.5107 27.3045 32.202L28.5849 30.4873C28.7573 30.2565 28.7841 29.9531 28.655 29.6955C28.5689 29.5237 28.4247 29.3956 28.2528 29.3292L30.2089 27.373L30.3577 28.2166C29.6116 28.7648 29.1727 29.6248 29.1727 30.5622C29.1727 32.1688 30.4798 33.4759 32.0864 33.4759C33.693 33.4759 35.0001 32.1688 35.0001 30.5622C35 29.2536 34.1243 28.112 32.8856 27.7598ZM27.178 15.0089C27.0153 15.0683 26.8345 14.984 26.7752 14.821C26.7159 14.6582 26.8002 14.4775 26.9631 14.4182L30.2329 13.2281C30.2352 13.2272 30.2422 13.2246 30.2514 13.2289C30.2605 13.2331 30.2632 13.2403 30.264 13.2426L30.4624 13.7876C30.467 13.8002 30.4604 13.8141 30.4478 13.8187L27.178 15.0089ZM11.7307 28.8518C12.358 27.7047 13.5491 26.9957 14.8597 26.9957C16.3551 26.9957 17.666 27.9141 18.189 29.2779H17.476C16.9886 28.2807 15.9865 27.6486 14.8598 27.6486C13.6904 27.6486 12.6805 28.3415 12.2171 29.3382L11.7307 28.8518ZM14.8597 32.7729C13.6411 32.7729 12.6497 31.7812 12.6497 30.5623C12.6497 29.3434 13.6411 28.3518 14.8597 28.3518C15.5911 28.3518 16.2531 28.7029 16.6608 29.278H14.86C14.5082 29.278 14.18 29.4174 13.9356 29.6705C13.6914 29.9236 13.5638 30.2569 13.5764 30.609C13.6011 31.3032 14.1748 31.8469 14.8824 31.8469H16.6607C16.253 32.4219 15.5911 32.7729 14.8597 32.7729ZM29.8245 26.7631L27.3096 29.278H26.3897L30.12 25.5476C30.376 25.291 30.4912 24.9249 30.4282 24.5685L30.2868 23.7663L31.4318 23.5645L32.6247 30.3286C32.6276 30.3455 32.6319 30.3623 32.6374 30.3787C32.6575 30.4389 32.6676 30.5007 32.6676 30.5623C32.6676 30.8828 32.4069 31.1435 32.0864 31.1435C31.8047 31.1435 31.5645 30.9425 31.5152 30.6656C31.5099 30.6359 31.5008 30.6073 31.4885 30.5804L30.8737 27.0938C30.8336 26.8654 30.6712 26.68 30.4499 26.6101C30.2284 26.5402 29.9887 26.5988 29.8245 26.7631ZM32.0863 32.7729C30.8674 32.7729 29.8757 31.7812 29.8757 30.5623C29.8757 29.9756 30.1026 29.4291 30.4996 29.0221L30.8115 30.7907C30.8177 30.8259 30.8292 30.8596 30.8453 30.8908C30.9922 31.4505 31.4985 31.8467 32.0863 31.8467C32.7945 31.8467 33.3706 31.2705 33.3706 30.5623C33.3706 30.4341 33.3512 30.3066 33.3129 30.1829L33.027 28.5614C33.786 28.9187 34.2968 29.6916 34.2968 30.5623C34.2968 31.7812 33.3052 32.7729 32.0863 32.7729Z" fill="#00993E"/>
</g>
<circle opacity="0.3" cx="23" cy="23" r="22.5" stroke="#00993E"/>
<defs>
<clipPath id="clip0_108_13040">
<rect width="24" height="24" fill="white" transform="translate(11 11)"/>
</clipPath>
</defs>
</svg>
