<svg width="47" height="46" viewBox="0 0 47 46" fill="none" xmlns="http://www.w3.org/2000/svg">
<g clip-path="url(#clip0_108_12986)">
<path d="M27.547 16.0247C27.3469 16.0247 27.1633 15.8949 27.0959 15.7068C27.0292 15.5209 27.0865 15.3078 27.237 15.1801C27.394 15.047 27.6249 15.0299 27.7999 15.1385C27.9672 15.2424 28.0555 15.4459 28.0166 15.639C27.9721 15.8601 27.773 16.0247 27.547 16.0247Z" fill="#00993E"/>
<path d="M28.1954 22.3583C26.8171 22.3583 25.6958 21.2374 25.6958 19.8598C25.6958 18.4821 26.8171 17.3613 28.1954 17.3613C29.5737 17.3613 30.695 18.4821 30.695 19.8598C30.695 21.2374 29.5736 22.3583 28.1954 22.3583ZM28.1954 18.3196C27.3455 18.3196 26.6541 19.0105 26.6541 19.8598C26.6541 20.709 27.3455 21.4 28.1954 21.4C29.0452 21.4 29.7367 20.709 29.7367 19.8598C29.7367 19.0105 29.0452 18.3196 28.1954 18.3196Z" fill="#00993E"/>
<path d="M35.7031 26.4385L33.9425 19.7732V16.9037C33.9425 16.1143 33.4422 15.4396 32.742 15.1801L32.4323 14.0074C32.1648 12.9948 31.1214 12.3879 30.1065 12.6546C30.1065 12.6546 20.989 15.053 20.9615 15.0662H14.8951C13.8819 15.0662 13.0576 15.8905 13.0576 16.9037V17.1812L12.6536 17.2874C12.161 17.4167 11.7486 17.73 11.4925 18.1693C11.237 18.6075 11.1676 19.1187 11.2971 19.6088L13.0576 26.2742V29.1435C13.0576 29.9382 13.5646 30.6165 14.2721 30.8723L14.5679 31.9919C14.7926 32.8431 15.5657 33.4075 16.4093 33.4075C16.5693 33.4075 16.7319 33.3872 16.8937 33.3447L25.8914 30.981H32.105C33.1183 30.981 33.9425 30.1567 33.9425 29.1435V28.866L34.3465 28.7598C34.8391 28.6304 35.2516 28.3171 35.5077 27.8778C35.7631 27.4398 35.8325 26.9286 35.7031 26.4385ZM12.2236 19.3641C12.1595 19.1217 12.1939 18.8688 12.3203 18.652C12.4474 18.434 12.6523 18.2785 12.8971 18.2141L13.0576 18.172V22.5217L12.2236 19.3641ZM19.5275 30.0227H15.7842L20.1816 23.7378L22.3457 26.8307L19.5275 30.0227ZM16.6501 32.4179C16.1458 32.5503 15.627 32.2496 15.4944 31.7472L15.292 30.981H22.1197L16.6501 32.4179ZM20.8059 30.0227L25.0612 25.203L29.3164 30.0227H20.8059ZM32.105 30.0227H30.5948L25.4203 24.162C25.3294 24.0589 25.1986 24 25.0612 24C24.9238 24 24.793 24.0589 24.702 24.162L22.9982 26.0917L20.5742 22.6273C20.4846 22.4992 20.338 22.4229 20.1817 22.4229C20.0253 22.4229 19.8788 22.4992 19.7891 22.6273L14.6409 29.9853C14.2796 29.876 14.0159 29.54 14.0159 29.1436V16.9036C14.0159 16.4188 14.4103 16.0244 14.8951 16.0244H25.3721C25.6366 16.0244 25.8512 15.8099 25.8512 15.5453C25.8512 15.2806 25.6366 15.0661 25.3721 15.0661H24.6979L30.35 13.5813C30.8547 13.4488 31.3731 13.7496 31.5057 14.252L31.7208 15.0661H29.7041C29.4395 15.0661 29.225 15.2806 29.225 15.5453C29.225 15.8099 29.4395 16.0244 29.7041 16.0244H32.105C32.5898 16.0244 32.9842 16.4188 32.9842 16.9036V29.1436C32.9842 29.6283 32.5898 30.0227 32.105 30.0227ZM34.6798 27.3952C34.5527 27.6132 34.3478 27.7688 34.1029 27.8331L33.9425 27.8752V23.5256L34.7765 26.6832C34.8405 26.9256 34.8061 27.1785 34.6798 27.3952Z" fill="#00993E"/>
</g>
<circle opacity="0.3" cx="23.5" cy="23" r="22.5" stroke="#00993E"/>
<defs>
<clipPath id="clip0_108_12986">
<rect width="24.5333" height="24.5333" fill="white" transform="translate(11.2334 10.7333)"/>
</clipPath>
</defs>
</svg>
