<svg width="46" height="46" viewBox="0 0 46 46" fill="none" xmlns="http://www.w3.org/2000/svg">
<g clip-path="url(#clip0_108_13009)">
<path d="M34.5417 25.0536C34.5414 25.0535 34.5412 25.0534 34.541 25.0532L31.3696 23.2222L31.573 22.8698C31.6854 22.6752 31.6187 22.4263 31.4241 22.314L28.2503 20.4829L28.4537 20.1302C28.5661 19.9356 28.4994 19.6867 28.3048 19.5743L16.6789 12.8601L17.0858 12.157C17.1982 11.9624 17.1315 11.7135 16.9369 11.6011L15.5274 10.7873C15.4336 10.7341 15.3229 10.7195 15.2185 10.7467C15.1143 10.7746 15.0255 10.8428 14.9716 10.9363L11.3095 17.279C11.1971 17.4736 11.2638 17.7225 11.4584 17.8348L12.8679 18.6486C12.9297 18.6843 12.9999 18.7032 13.0713 18.7032C13.1069 18.703 13.1423 18.6984 13.1767 18.6893C13.2809 18.6614 13.3698 18.5932 13.4237 18.4997L13.8306 17.7962L20.5619 21.6825C20.2693 22.5473 20.5961 23.5008 21.3578 24.0043L16.023 34.6776C15.9225 34.8787 16.0042 35.1232 16.2053 35.2237C16.4064 35.3241 16.6509 35.2425 16.7513 35.0414L22.0837 24.3725V34.8595C22.0837 35.0842 22.2659 35.2664 22.4906 35.2664C22.7154 35.2664 22.8975 35.0842 22.8975 34.8595V24.3758L28.2279 35.0414C28.3284 35.2425 28.5729 35.3241 28.774 35.2237C28.9751 35.1232 29.0567 34.8787 28.9563 34.6776L23.6218 24.0087C23.7639 23.9143 23.8932 23.8019 24.0063 23.6743L25.4549 24.5104C25.5167 24.5461 25.5869 24.565 25.6583 24.565C25.6939 24.5648 25.7294 24.5602 25.7637 24.5511C25.868 24.5232 25.9568 24.4549 26.0107 24.3615L26.2142 24.0071L29.388 25.8381C29.5826 25.9505 29.8315 25.8838 29.9438 25.6892L30.1473 25.3373L33.3211 27.1683C33.383 27.2039 33.4531 27.2225 33.5245 27.2224C33.6699 27.2224 33.8042 27.1449 33.8769 27.019L34.6907 25.6095C34.803 25.4148 34.7363 25.166 34.5417 25.0536ZM12.9216 17.7404L12.2168 17.3335L15.472 11.6955L16.1768 12.1024L12.9216 17.7404ZM23.5453 22.9353C23.4092 23.1749 23.1948 23.3603 22.9382 23.4606C22.7243 23.5429 22.4918 23.5642 22.2664 23.5221C22.1839 23.5055 22.103 23.4817 22.0247 23.4509C21.9742 23.4323 21.9253 23.4094 21.8787 23.3825C21.296 23.0466 21.0959 22.3019 21.4319 21.7192C21.4329 21.7175 21.4338 21.7158 21.4347 21.7142L21.436 21.7167C21.5956 21.4359 21.861 21.2308 22.1729 21.147C22.2668 21.1222 22.3634 21.1086 22.4605 21.1063C22.4898 21.1063 22.5187 21.1063 22.548 21.1092C22.6165 21.1124 22.6845 21.1214 22.7515 21.136C22.7795 21.1421 22.8076 21.147 22.8328 21.1551C22.9251 21.1814 23.014 21.2183 23.0977 21.265C23.6812 21.6036 23.8813 22.3503 23.5453 22.9353ZM25.5115 23.6035L24.4189 22.9728C24.4189 22.9667 24.4214 22.961 24.423 22.9549C24.4606 22.8409 24.4879 22.7238 24.5044 22.6049C24.5097 22.5642 24.5093 22.5235 24.5121 22.4829C24.5193 22.4004 24.5215 22.3175 24.5186 22.2346C24.5162 22.187 24.5093 22.1407 24.5036 22.0935C24.4952 22.0181 24.4827 21.9433 24.4661 21.8693C24.4547 21.8208 24.4409 21.774 24.4254 21.7264C24.4034 21.6554 24.3774 21.5855 24.3477 21.5173C24.3278 21.4717 24.307 21.427 24.2843 21.383C24.2482 21.3157 24.2085 21.2505 24.165 21.1877C24.1382 21.147 24.1129 21.1063 24.0837 21.0693C24.0303 21.0038 23.9731 20.9416 23.9123 20.8829C23.8822 20.8536 23.8562 20.8219 23.824 20.7942C23.219 20.2583 22.3509 20.1393 21.6239 20.4927C21.5926 20.5074 21.5629 20.524 21.5324 20.5407C21.4545 20.5824 21.3794 20.6291 21.3078 20.6807C21.2797 20.701 21.2512 20.7214 21.224 20.7417C21.1325 20.8139 21.0474 20.8938 20.9697 20.9806L14.2371 17.0918L16.2716 13.5652L27.5455 20.0756L25.5115 23.6035ZM29.4437 24.9312L26.6251 23.3036L27.8458 21.1877L30.6644 22.8153L29.4437 24.9312ZM33.3748 26.2609L30.5558 24.6333L30.9627 23.9286L33.7817 25.5562L33.3748 26.2609Z" fill="#00993E"/>
</g>
<circle opacity="0.3" cx="23" cy="23" r="22.5" stroke="#00993E"/>
<defs>
<clipPath id="clip0_108_13009">
<rect width="24.5333" height="24.5333" fill="white" transform="translate(10.7334 10.7333)"/>
</clipPath>
</defs>
</svg>
