<svg width="47" height="46" viewBox="0 0 47 46" fill="none" xmlns="http://www.w3.org/2000/svg">
<g clip-path="url(#clip0_108_12996)">
<path d="M15.7732 24.9255C15.3507 25.1761 15.0667 25.6367 15.0667 26.1625C15.0667 26.9551 15.7116 27.6 16.5042 27.6C17.1289 27.6 17.6615 27.1994 17.8593 26.6417H21.5834C22.376 26.6417 23.0209 27.2865 23.0209 28.0792C23.0209 28.8718 22.376 29.5167 21.5834 29.5167H15.8334C14.5123 29.5167 13.4376 30.5914 13.4376 31.9125C13.4376 33.2336 14.5123 34.3083 15.8334 34.3083H20.6251C20.8897 34.3083 21.1042 34.0938 21.1042 33.8292C21.1042 33.5645 20.8897 33.35 20.6251 33.35H15.8334C15.0408 33.35 14.3959 32.7051 14.3959 31.9125C14.3959 31.1199 15.0408 30.475 15.8334 30.475H21.5834C22.9045 30.475 23.9792 29.4002 23.9792 28.0792C23.9792 26.7581 22.9045 25.6833 21.5834 25.6833H17.8593C17.746 25.3638 17.5228 25.096 17.2352 24.9255L20.895 18.9208C21.4707 18.0554 21.7751 17.047 21.7751 16.0042C21.7751 13.0978 19.4106 10.7333 16.5042 10.7333C13.5979 10.7333 11.2334 13.0978 11.2334 16.0042C11.2334 17.047 11.5377 18.0554 12.1134 18.9208L15.7732 24.9255ZM16.5042 26.6417C16.24 26.6417 16.0251 26.4267 16.0251 26.1625C16.0251 25.8983 16.24 25.6833 16.5042 25.6833C16.7684 25.6833 16.9834 25.8983 16.9834 26.1625C16.9834 26.4267 16.7684 26.6417 16.5042 26.6417ZM16.5042 11.6917C18.8821 11.6917 20.8167 13.6263 20.8167 16.0042C20.8167 16.8603 20.5663 17.6877 20.0925 18.3969C20.0888 18.4024 20.0852 18.408 20.0817 18.4137L16.5042 24.2835C16.5042 24.2835 12.9197 18.4024 12.916 18.3969C12.4422 17.6877 12.1917 16.8603 12.1917 16.0042C12.1917 13.6263 14.1263 11.6917 16.5042 11.6917Z" fill="#00993E"/>
<path d="M16.5042 18.4C17.8253 18.4 18.9001 17.3252 18.9001 16.0042C18.9001 14.6831 17.8253 13.6083 16.5042 13.6083C15.1832 13.6083 14.1084 14.6831 14.1084 16.0042C14.1084 17.3252 15.1832 18.4 16.5042 18.4ZM16.5042 14.5667C17.2969 14.5667 17.9417 15.2115 17.9417 16.0042C17.9417 16.7968 17.2969 17.4417 16.5042 17.4417C15.7116 17.4417 15.0667 16.7968 15.0667 16.0042C15.0667 15.2115 15.7116 14.5667 16.5042 14.5667Z" fill="#00993E"/>
<path d="M30.496 18.6875C27.5897 18.6875 25.2252 21.052 25.2252 23.9583C25.2252 25.0029 25.5304 26.0128 26.108 26.879L29.7541 32.5984C29.4718 32.7692 29.2528 33.0345 29.141 33.35H24.9377C24.673 33.35 24.4585 33.5645 24.4585 33.8292C24.4585 34.0938 24.673 34.3083 24.9377 34.3083H29.1409C29.3387 34.866 29.8713 35.2667 30.496 35.2667C31.2886 35.2667 31.9335 34.6218 31.9335 33.8292C31.9335 33.3078 31.6545 32.8504 31.2379 32.5984L34.8841 26.879C35.4616 26.0128 35.7668 25.0029 35.7668 23.9583C35.7668 21.052 33.4023 18.6875 30.496 18.6875ZM30.496 34.3083C30.2318 34.3083 30.0168 34.0934 30.0168 33.8292C30.0168 33.565 30.2318 33.35 30.496 33.35C30.7602 33.35 30.9752 33.565 30.9752 33.8292C30.9752 34.0934 30.7602 34.3083 30.496 34.3083ZM34.0842 26.3511C34.0824 26.3539 30.496 31.9794 30.496 31.9794C30.496 31.9794 26.9096 26.3539 26.9078 26.3511C26.434 25.6419 26.1835 24.8145 26.1835 23.9583C26.1835 21.5804 28.1181 19.6458 30.496 19.6458C32.8739 19.6458 34.8085 21.5804 34.8085 23.9583C34.8085 24.8145 34.558 25.6419 34.0842 26.3511Z" fill="#00993E"/>
<path d="M30.4959 21.5625C29.1749 21.5625 28.1001 22.6373 28.1001 23.9583C28.1001 25.2794 29.1749 26.3542 30.4959 26.3542C31.817 26.3542 32.8918 25.2794 32.8918 23.9583C32.8918 22.6373 31.817 21.5625 30.4959 21.5625ZM30.4959 25.3958C29.7033 25.3958 29.0584 24.751 29.0584 23.9583C29.0584 23.1657 29.7033 22.5208 30.4959 22.5208C31.2886 22.5208 31.9334 23.1657 31.9334 23.9583C31.9334 24.751 31.2886 25.3958 30.4959 25.3958Z" fill="#00993E"/>
<path d="M22.7814 34.3079C23.046 34.3079 23.2606 34.0934 23.2606 33.8287C23.2606 33.5641 23.046 33.3495 22.7814 33.3495C22.5168 33.3495 22.3022 33.5641 22.3022 33.8287C22.3022 34.0934 22.5168 34.3079 22.7814 34.3079Z" fill="#00993E"/>
</g>
<circle opacity="0.3" cx="23.5" cy="23" r="22.5" stroke="#00993E"/>
<defs>
<clipPath id="clip0_108_12996">
<rect width="24.5333" height="24.5333" fill="white" transform="translate(11.2334 10.7333)"/>
</clipPath>
</defs>
</svg>
