<svg width="46" height="46" viewBox="0 0 46 46" fill="none" xmlns="http://www.w3.org/2000/svg">
<path d="M29.5247 24.0068C29.3263 24.0068 29.1455 23.8772 29.0814 23.6897C29.0174 23.5027 29.0803 23.2888 29.2371 23.1676C29.388 23.0512 29.5987 23.038 29.7628 23.1347C29.9332 23.235 30.0241 23.4395 29.9834 23.6331C29.9384 23.8478 29.7445 24.0068 29.5247 24.0068Z" fill="#00993E"/>
<path d="M33.49 15.6158H33.4491V14.0577C33.4491 13.7988 33.2393 13.5889 32.9804 13.5889H30.5389C30.28 13.5889 30.0702 13.7988 30.0702 14.0577V15.6157H29.8896L29.2957 13.3852C29.2411 13.18 29.0552 13.0371 28.8428 13.0371H17.1572C16.9448 13.0371 16.7589 13.18 16.7043 13.3852L16.1104 15.6157H12.51C11.6774 15.6158 11 16.2945 11 17.1289V31.4494C11 32.2837 11.6774 32.9625 12.51 32.9625H33.49C34.3226 32.9625 35 32.2837 35 31.4494V17.1289C35 16.2945 34.3226 15.6158 33.49 15.6158ZM31.0077 14.5264H32.5116V15.6157H31.0077V14.5264ZM12.51 16.5533H16.4706C16.6831 16.5533 16.8689 16.4104 16.9236 16.2052L17.5175 13.9747H28.4825L29.0764 16.2052C29.131 16.4104 29.3169 16.5533 29.5293 16.5533H33.49C33.8057 16.5533 34.0625 16.8115 34.0625 17.1289V19.1743H28.4671C27.1656 17.5451 25.1701 16.5449 23 16.5449C20.7931 16.5449 18.8218 17.5725 17.5392 19.1743H11.9375V17.1289C11.9375 16.8115 12.1943 16.5533 12.51 16.5533ZM33.49 32.025H12.51C12.1943 32.025 11.9375 31.7668 11.9375 31.4494V20.1118H16.9052C16.3334 21.1249 16.007 22.294 16.007 23.538C16.007 27.3939 19.144 30.531 23 30.531C25.9822 30.531 28.6393 28.6381 29.6117 25.8211L29.6184 25.8017C29.7022 25.5568 29.5716 25.2902 29.3267 25.2064C29.0818 25.1226 28.8153 25.2532 28.7314 25.4981L28.7256 25.5148C27.8835 27.9544 25.5826 29.5935 23 29.5935C19.661 29.5935 16.9445 26.877 16.9445 23.538C16.9445 20.1989 19.661 17.4824 23 17.4824C25.5904 17.4824 27.8936 19.128 28.7312 21.5773C28.815 21.8223 29.0815 21.9529 29.3264 21.8692C29.5714 21.7854 29.702 21.5189 29.6183 21.2739C29.4789 20.8663 29.3043 20.478 29.0987 20.1118H34.0625V31.4494C34.0625 31.7668 33.8057 32.025 33.49 32.025Z" fill="#00993E"/>
<path d="M14.6205 30.5311C13.7636 30.5311 13.0664 29.8339 13.0664 28.9769C13.0664 28.12 13.7636 27.4229 14.6205 27.4229C15.4775 27.4229 16.1747 28.12 16.1747 28.9769C16.1747 29.8339 15.4775 30.5311 14.6205 30.5311ZM14.6205 28.3603C14.2806 28.3603 14.0039 28.6369 14.0039 28.9769C14.0039 29.3169 14.2805 29.5935 14.6205 29.5935C14.9606 29.5935 15.2372 29.3169 15.2372 28.9769C15.2372 28.637 14.9606 28.3603 14.6205 28.3603Z" fill="#00993E"/>
<path d="M22.9999 28.2292C20.4133 28.2292 18.3091 26.1249 18.3091 23.5384C18.3091 20.952 20.4133 18.8477 22.9999 18.8477C25.5864 18.8477 27.6906 20.9519 27.6906 23.5384C27.6906 26.1249 25.5864 28.2292 22.9999 28.2292ZM22.9999 19.7852C20.9303 19.7852 19.2466 21.4689 19.2466 23.5384C19.2466 25.608 20.9303 27.2917 22.9999 27.2917C25.0694 27.2917 26.7531 25.608 26.7531 23.5384C26.7531 21.4689 25.0694 19.7852 22.9999 19.7852Z" fill="#00993E"/>
<circle opacity="0.3" cx="23" cy="23" r="22.5" stroke="#00993E"/>
</svg>
