<svg width="47" height="46" viewBox="0 0 47 46" fill="none" xmlns="http://www.w3.org/2000/svg">
<g clip-path="url(#clip0_108_13021)">
<path d="M16.8468 21.9307C14.8159 21.9307 13.1636 23.5829 13.1636 25.6139C13.1636 27.6448 14.8159 29.2971 16.8468 29.2971C18.8777 29.2971 20.53 27.6448 20.53 25.6139C20.53 23.5829 18.8777 21.9307 16.8468 21.9307ZM16.8468 28.5842C15.2089 28.5842 13.8764 27.2517 13.8764 25.6139C13.8764 23.9761 15.2089 22.6435 16.8468 22.6435C18.4846 22.6435 19.8171 23.9761 19.8171 25.6139C19.8171 27.2517 18.4846 28.5842 16.8468 28.5842Z" fill="#00993E"/>
<path d="M23.5 24.5449C22.9104 24.5449 22.4307 25.0246 22.4307 25.6142C22.4307 26.2039 22.9104 26.6835 23.5 26.6835C24.0896 26.6835 24.5693 26.2039 24.5693 25.6142C24.5693 25.0246 24.0896 24.5449 23.5 24.5449ZM23.5 25.9707C23.3034 25.9707 23.1435 25.8108 23.1435 25.6142C23.1435 25.4177 23.3034 25.2578 23.5 25.2578C23.6965 25.2578 23.8564 25.4177 23.8564 25.6142C23.8564 25.8108 23.6965 25.9707 23.5 25.9707Z" fill="#00993E"/>
<path d="M34.222 22.1497C34.2152 22.1394 34.2077 22.1293 34.1997 22.1196L30.0497 17.0974C30.0487 17.0962 30.0477 17.0949 30.0467 17.0937L29.1317 15.9864C29.1291 15.9833 29.1268 15.9799 29.1242 15.9768C28.6046 15.3814 27.8539 15.04 27.0644 15.04C25.5631 15.04 24.341 16.2571 24.3321 17.7563C24.3321 17.7577 24.3321 17.7592 24.332 17.7606C24.332 17.7646 24.3317 17.7686 24.3317 17.7728C24.3317 17.7764 24.3321 17.7798 24.3323 17.7834C24.3324 17.7871 24.3321 17.7907 24.3324 17.7943L24.3959 18.8419H22.6043L22.6678 17.7943C22.6681 17.7907 22.6678 17.7871 22.6679 17.7834C22.6681 17.7799 22.6685 17.7764 22.6685 17.7728C22.6685 17.7687 22.6682 17.7647 22.6682 17.7606C22.6681 17.7592 22.6681 17.7577 22.6681 17.7563C22.6591 16.2571 21.4371 15.04 19.9358 15.04C19.1463 15.04 18.3955 15.3815 17.876 15.9768C17.8727 15.9806 17.8698 15.9847 17.8667 15.9886L16.9532 17.094C16.9524 17.0949 16.9518 17.0958 16.9509 17.0966L16.4331 17.7232C16.3722 17.7969 16.3442 17.8891 16.3533 17.9841C16.3623 18.0787 16.4074 18.1643 16.4806 18.2251C16.5448 18.2778 16.6251 18.3068 16.7078 18.3068C16.8147 18.3068 16.9145 18.2597 16.9824 18.1775L17.459 17.6008C17.9188 17.3248 18.4451 17.1788 18.9851 17.1788C20.3402 17.1788 21.5134 18.0853 21.8568 19.3893L21.6249 23.2174C20.7445 21.4696 18.9334 20.2676 16.8465 20.2676C16.1886 20.2676 15.5582 20.3874 14.9756 20.6057L16.0742 19.2763C16.135 19.2031 16.1635 19.1105 16.1544 19.0154C16.1454 18.9208 16.0998 18.8353 16.0266 18.7745C15.9629 18.7217 15.8822 18.6927 15.7999 18.6927C15.693 18.6927 15.5928 18.7403 15.5247 18.8225L12.8001 22.1198C12.7922 22.1294 12.7848 22.1394 12.778 22.1496C11.9816 23.0835 11.5 24.2936 11.5 25.6143C11.5 28.5624 13.8985 30.9608 16.8466 30.9608C18.6964 30.9608 20.3297 30.0164 21.29 28.5845H25.71C26.6703 30.0164 28.3036 30.9608 30.1534 30.9608C33.1015 30.9608 35.5 28.5624 35.5 25.6143C35.5 24.2936 35.0184 23.0835 34.222 22.1497ZM16.8466 30.248C14.2915 30.248 12.2129 28.1693 12.2129 25.6143C12.2129 23.0592 14.2915 20.9806 16.8466 20.9806C19.4016 20.9806 21.4803 23.0593 21.4803 25.6143C21.4803 28.1693 19.4016 30.248 16.8466 30.248ZM27.0643 15.7529C27.6448 15.7529 28.1969 16.0029 28.5807 16.4388L28.6484 16.5207C28.4403 16.4845 28.2284 16.466 28.0149 16.466C26.8169 16.466 25.7339 17.0379 25.0561 17.952L25.0448 17.7651C25.0489 16.6549 25.9532 15.7529 27.0643 15.7529ZM22.561 19.5548H24.439L24.511 20.743H22.489L22.561 19.5548ZM22.4458 21.4559H24.5541L24.6261 22.6437H22.3738L22.4458 21.4559ZM18.9851 16.466C18.7716 16.466 18.5598 16.4845 18.3518 16.5206L18.4195 16.4386C18.4198 16.4383 18.4199 16.438 18.4202 16.4378C18.8039 16.0025 19.3556 15.7529 19.9357 15.7529C21.0468 15.7529 21.9511 16.6548 21.9553 17.765L21.944 17.952C21.2661 17.0379 20.1831 16.466 18.9851 16.466ZM21.6925 27.8717C22.0116 27.1894 22.1909 26.4292 22.193 25.628L22.3306 23.3566H24.6693L24.807 25.628C24.8091 26.4292 24.9884 27.1894 25.3075 27.8717H21.6925ZM25.1432 19.3894C25.4866 18.0854 26.6598 17.1789 28.0149 17.1789C28.5549 17.1789 29.0812 17.3249 29.5411 17.6009L32.024 20.6056C31.4415 20.3874 30.8112 20.2677 30.1534 20.2677C28.0666 20.2677 26.2555 21.4696 25.3751 23.2175L25.1432 19.3894ZM30.1534 30.248C27.5984 30.248 25.5198 28.1693 25.5198 25.6143C25.5198 23.0592 27.5984 20.9806 30.1534 20.9806C32.7085 20.9806 34.7871 23.0593 34.7871 25.6143C34.7871 28.1693 32.7085 30.248 30.1534 30.248Z" fill="#00993E"/>
<path d="M30.1534 21.9306C28.1225 21.9306 26.4702 23.5829 26.4702 25.6138C26.4702 27.6448 28.1225 29.297 30.1534 29.297C32.1843 29.297 33.8366 27.6448 33.8366 25.6138C33.8366 23.5829 32.1843 21.9306 30.1534 21.9306ZM30.1534 28.5841C28.5156 28.5841 27.1831 27.2516 27.1831 25.6138C27.1831 23.976 28.5156 22.6435 30.1534 22.6435C31.7913 22.6435 33.1237 23.976 33.1237 25.6138C33.1237 27.2516 31.7913 28.5841 30.1534 28.5841Z" fill="#00993E"/>
</g>
<circle opacity="0.3" cx="23.5" cy="23" r="22.5" stroke="#00993E"/>
<defs>
<clipPath id="clip0_108_13021">
<rect width="24" height="24" fill="white" transform="translate(11.5 11)"/>
</clipPath>
</defs>
</svg>
