<svg width="58" height="58" viewBox="0 0 58 58" fill="none" xmlns="http://www.w3.org/2000/svg">
<g clip-path="url(#clip0_108_13126)">
<path d="M36.7638 34.7109L32.4498 36.9268C32.0762 36.5504 31.5589 36.317 30.988 36.317H28.0152C27.883 36.317 27.8346 36.3088 27.8201 36.3054C27.7931 36.2871 27.7259 36.2239 27.6714 36.1725L27.643 36.1458C25.2233 33.8672 23.1787 34.0117 20.8533 34.9295C20.4894 35.073 20.4825 35.0733 20.1218 35.0898L19.4669 35.0906C19.2625 34.5112 18.7102 34.0947 18.0624 34.0947H15.8751C15.0539 34.0947 14.3857 34.7636 14.3857 35.5857V41.3222C14.3857 42.1435 15.0539 42.8116 15.8751 42.8116H18.0623C18.7102 42.8116 19.2625 42.3956 19.4669 41.8168H20.6697C20.8059 41.8285 20.9387 41.8563 21.0681 41.8998L26.7243 43.4123C26.9719 43.4795 27.1993 43.5455 27.4193 43.6095C28.1497 43.8217 28.7638 44.0001 29.404 44.0001C30.1273 44.0001 30.884 43.7723 31.8795 43.1083C31.8844 43.105 31.8894 43.1017 31.8942 43.0982L38.8682 38.132C39.7849 37.478 40.0521 36.2974 39.4895 35.3855C38.9335 34.4865 37.7613 34.1966 36.7638 34.7109ZM18.3798 41.3223C18.3798 41.4944 18.2344 41.6398 18.0623 41.6398H15.8751C15.7029 41.6398 15.5576 41.4944 15.5576 41.3223V35.5858C15.5576 35.4128 15.703 35.2666 15.8751 35.2666H18.0623C18.2345 35.2666 18.3798 35.4128 18.3798 35.5858V41.3223ZM38.1879 37.1779L31.2218 42.1385C29.8039 43.0822 29.2004 42.9068 27.7461 42.4842C27.5212 42.4189 27.2887 42.3513 27.0289 42.2809L21.3712 40.768C21.1436 40.6974 20.9097 40.6564 20.6696 40.645H19.5516V36.2631L20.1751 36.2604C20.621 36.2401 20.7593 36.2263 21.2834 36.0196C23.2989 35.224 24.8542 35.1293 26.8401 36.9994L26.8682 37.0257C27.2101 37.3477 27.422 37.4887 28.0152 37.4887H30.988C31.4781 37.4887 31.8768 37.8875 31.8768 38.3776C31.8768 38.8668 31.4781 39.2648 30.988 39.2648H26.1685C25.8449 39.2648 25.5826 39.5271 25.5826 39.8507C25.5826 40.1743 25.8449 40.4367 26.1685 40.4367H30.988C32.1243 40.4367 33.0486 39.513 33.0486 38.3776C33.0486 38.2341 33.0338 38.0939 33.0057 37.9586L37.2999 35.7528C37.6914 35.5511 38.2268 35.5717 38.4925 36.0014C38.7267 36.3811 38.5956 36.887 38.1879 37.1779Z" fill="#00993E"/>
<path d="M27.8722 27.8584C27.238 28.1674 26.7998 28.8186 26.7998 29.5702C26.7998 30.399 27.3334 31.1051 28.0753 31.3648V32.2375C28.0753 33.306 28.9438 34.1753 30.0113 34.1753H32.6071C33.6755 34.1753 34.5449 33.306 34.5449 32.2375V31.3648C35.2867 31.1051 35.8203 30.3989 35.8203 29.5702C35.8203 28.8185 35.3821 28.1673 34.7478 27.8584C35.0044 26.9052 35.5245 26.1955 36.0715 25.4511C36.913 24.3058 37.8667 23.0078 37.8647 20.7214C37.8647 20.5173 37.8562 20.3078 37.8396 20.0987C37.8139 19.7761 37.5323 19.5361 37.209 19.561C36.8865 19.5867 36.6458 19.869 36.6715 20.1916C36.6856 20.3699 36.6928 20.5481 36.6928 20.7219C36.6945 22.624 35.9332 23.6602 35.1271 24.7572C34.5155 25.5896 33.8861 26.4476 33.5861 27.6672H29.0337C28.7338 26.4477 28.1042 25.5897 27.4924 24.7574C26.6861 23.6604 25.9246 22.6242 25.9271 20.7221C25.9297 18.6938 26.7986 17.4129 27.5272 16.6955C28.5304 15.7077 29.9045 15.1525 31.3017 15.1722C31.3073 15.1722 31.3129 15.1722 31.3185 15.1722C32.4569 15.1549 33.5986 15.5259 34.5306 16.215C34.7907 16.4074 35.1577 16.3524 35.3501 16.0922C35.5424 15.832 35.4875 15.4651 35.2273 15.2728C34.0924 14.4339 32.7016 13.9825 31.3099 14.0005C29.6056 13.9797 27.9281 14.6565 26.7051 15.8608C25.432 17.1144 24.7578 18.795 24.7554 20.7207C24.7523 23.0081 25.7065 24.3062 26.5484 25.4516C27.0954 26.1959 27.6157 26.9055 27.8722 27.8584ZM33.3731 32.2375C33.3731 32.6599 33.0295 33.0035 32.6071 33.0035H30.0114C29.5899 33.0035 29.2471 32.6599 29.2471 32.2375V31.4716H33.3731V32.2375ZM28.7027 28.8391H33.9175C34.3206 28.8391 34.6486 29.1671 34.6486 29.5702C34.6486 29.9725 34.3206 30.2997 33.9175 30.2997H28.7027C28.2996 30.2997 27.9716 29.9725 27.9716 29.5702C27.9716 29.1671 28.2996 28.8391 28.7027 28.8391Z" fill="#00993E"/>
<path d="M31.8959 18.2802C31.8959 17.9566 31.6336 17.6943 31.31 17.6943C30.9864 17.6943 30.7241 17.9566 30.7241 18.2802V21.9141C30.7241 22.2377 30.9864 22.5 31.31 22.5C31.6336 22.5 31.8959 22.2377 31.8959 21.9141V18.2802Z" fill="#00993E"/>
<path d="M31.3101 23.9785C30.9864 23.9785 30.7241 24.2408 30.7241 24.5645V24.5678C30.7241 24.8914 30.9864 25.1521 31.3101 25.1521C31.6337 25.1521 31.896 24.8881 31.896 24.5645C31.896 24.2409 31.6337 23.9785 31.3101 23.9785Z" fill="#00993E"/>
<path d="M43.0283 20.7168H40.6484C40.3248 20.7168 40.0625 20.9791 40.0625 21.3027C40.0625 21.6263 40.3248 21.8886 40.6484 21.8886H43.0283C43.3518 21.8886 43.6142 21.6263 43.6142 21.3027C43.6142 20.9791 43.3518 20.7168 43.0283 20.7168Z" fill="#00993E"/>
<path d="M39.6642 16.9426C39.7765 16.9426 39.8899 16.9103 39.9901 16.8431L41.9648 15.5177C42.2335 15.3374 42.3051 14.9734 42.1247 14.7047C41.9444 14.4361 41.5805 14.3644 41.3117 14.5448L39.3371 15.8701C39.0684 16.0505 38.9968 16.4145 39.1771 16.6831C39.2903 16.8516 39.4755 16.9426 39.6642 16.9426Z" fill="#00993E"/>
<path d="M41.9647 27.0879L39.9901 25.7626C39.7214 25.5822 39.3574 25.6539 39.1771 25.9225C38.9968 26.1912 39.0684 26.5552 39.3371 26.7355L41.3117 28.0609C41.4119 28.1281 41.5254 28.1603 41.6376 28.1603C41.8264 28.1603 42.0116 28.0694 42.1247 27.9009C42.305 27.6322 42.2334 27.2682 41.9647 27.0879Z" fill="#00993E"/>
<path d="M19.5918 21.8887H21.97C22.2936 21.8887 22.5559 21.6264 22.5559 21.3028C22.5559 20.9792 22.2936 20.7169 21.97 20.7169H19.5918C19.2682 20.7169 19.0059 20.9792 19.0059 21.3028C19.0059 21.6264 19.2682 21.8887 19.5918 21.8887Z" fill="#00993E"/>
<path d="M20.6554 15.5178L22.6301 16.8431C22.7303 16.9103 22.8438 16.9426 22.956 16.9426C23.1447 16.9426 23.33 16.8516 23.4431 16.6831C23.6234 16.4145 23.5518 16.0505 23.2831 15.8701L21.3085 14.5448C21.0398 14.3644 20.6758 14.4361 20.4955 14.7047C20.3151 14.9734 20.3867 15.3374 20.6554 15.5178Z" fill="#00993E"/>
<path d="M22.6301 25.7626L20.6554 27.0879C20.3867 27.2682 20.3151 27.6323 20.4955 27.9009C20.6086 28.0694 20.7938 28.1603 20.9826 28.1603C21.0948 28.1603 21.2083 28.1281 21.3085 28.0609L23.2831 26.7355C23.5518 26.5552 23.6234 26.1912 23.4431 25.9225C23.2627 25.6539 22.8987 25.5822 22.6301 25.7626Z" fill="#00993E"/>
<path d="M36.1157 18.0567C36.2299 18.1709 36.3793 18.2279 36.5288 18.2279C36.6788 18.2279 36.8289 18.1705 36.9435 18.0559C37.1723 17.8271 37.1715 17.4552 36.9427 17.2264C36.7139 16.9975 36.3429 16.9975 36.114 17.2264C35.8852 17.4552 35.8852 17.8262 36.114 18.055L36.1157 18.0567Z" fill="#00993E"/>
</g>
<circle opacity="0.3" cx="29" cy="29" r="28.5" stroke="#00993E"/>
<defs>
<clipPath id="clip0_108_13126">
<rect width="30" height="30" fill="white" transform="translate(14 14)"/>
</clipPath>
</defs>
</svg>
