<svg width="41" height="41" viewBox="0 0 41 41" fill="none" xmlns="http://www.w3.org/2000/svg">
<circle r="20" transform="matrix(4.37114e-08 -1 -1 -4.37114e-08 20.5 20.5)" stroke="#D7DADE"/>
<path d="M21.6945 25.3235C21.8502 25.3238 22.0012 25.2696 22.1211 25.1702C22.1886 25.1142 22.2444 25.0455 22.2853 24.9679C22.3262 24.8904 22.3514 24.8055 22.3595 24.7182C22.3675 24.6309 22.3583 24.5428 22.3323 24.4591C22.3062 24.3753 22.2639 24.2976 22.2078 24.2302L19.2211 20.6569L22.1011 17.0769C22.1565 17.0087 22.1979 16.9302 22.2228 16.846C22.2478 16.7618 22.2558 16.6734 22.2465 16.5861C22.2372 16.4987 22.2108 16.4141 22.1687 16.337C22.1266 16.2599 22.0696 16.1919 22.0011 16.1369C21.9322 16.0762 21.8514 16.0304 21.7639 16.0024C21.6764 15.9744 21.584 15.9648 21.4926 15.9742C21.4012 15.9836 21.3128 16.0118 21.2328 16.057C21.1528 16.1022 21.083 16.1634 21.0278 16.2369L17.8078 20.2369C17.7097 20.3562 17.6561 20.5058 17.6561 20.6602C17.6561 20.8146 17.7097 20.9642 17.8078 21.0835L21.1411 25.0835C21.208 25.1642 21.293 25.228 21.3891 25.2697C21.4852 25.3114 21.5899 25.3298 21.6945 25.3235Z" fill="#D7DADE"/>
</svg>
