<svg width="22" height="21" viewBox="0 0 22 21" fill="none" xmlns="http://www.w3.org/2000/svg">
<g clip-path="url(#clip0_228_2675)">
<path d="M15.3484 13.1787C15.1579 13.0371 14.8888 13.0766 14.7471 13.267C14.6692 13.3717 14.5859 13.4744 14.4994 13.5723C14.3422 13.7501 14.3589 14.0216 14.5367 14.1788C14.6184 14.2511 14.72 14.2866 14.8211 14.2866C14.94 14.2866 15.0583 14.2375 15.1432 14.1415C15.2457 14.0256 15.3444 13.9039 15.4366 13.7799C15.5783 13.5895 15.5388 13.3203 15.3484 13.1787Z" fill="#00993E"/>
<path d="M16.0668 11.1635C15.8351 11.1131 15.6061 11.2601 15.5556 11.492C15.5278 11.6195 15.4943 11.7473 15.4558 11.8719C15.3857 12.0986 15.5127 12.3392 15.7395 12.4092C15.7817 12.4223 15.8244 12.4285 15.8665 12.4285C16.0499 12.4285 16.2198 12.31 16.2769 12.1255C16.3225 11.9778 16.3624 11.8261 16.3953 11.6748C16.4458 11.4429 16.2987 11.214 16.0668 11.1635Z" fill="#00993E"/>
<path d="M13.2808 14.5548C13.1667 14.6185 13.0486 14.678 12.9297 14.7317C12.7134 14.8294 12.6173 15.0839 12.7149 15.3002C12.7867 15.4591 12.9431 15.5531 13.1068 15.5531C13.1659 15.5531 13.226 15.5408 13.2834 15.5149C13.4244 15.4512 13.5644 15.3807 13.6997 15.3051C13.9069 15.1895 13.9811 14.9277 13.8654 14.7205C13.7497 14.5133 13.488 14.4392 13.2808 14.5548Z" fill="#00993E"/>
<path d="M10.5706 7.0625V10.322L8.99499 11.8976C8.82719 12.0655 8.82719 12.3375 8.99499 12.5053C9.0789 12.5892 9.18884 12.6312 9.29884 12.6312C9.4088 12.6312 9.51877 12.5892 9.60269 12.5053L11.3042 10.8038C11.3847 10.7233 11.43 10.614 11.43 10.5V7.0625C11.43 6.82518 11.2376 6.63281 11.0003 6.63281C10.763 6.63281 10.5706 6.82518 10.5706 7.0625Z" fill="#00993E"/>
<path d="M16.0703 5.92383C15.833 5.92383 15.6406 6.1162 15.6406 6.35352V7.54667C14.6405 5.97814 12.8939 5 11 5C9.5309 5 8.14973 5.57211 7.1109 6.6109C6.07211 7.64973 5.5 9.0309 5.5 10.5C5.5 11.9691 6.07211 13.3503 7.1109 14.3891C8.14973 15.4279 9.5309 16 11 16C11.0036 16 11.0071 15.9995 11.0107 15.9995C11.0144 15.9995 11.0179 16 11.0215 16C11.1763 16 11.3327 15.9935 11.4863 15.9806C11.7228 15.9608 11.8985 15.7531 11.8787 15.5166C11.8589 15.2801 11.6514 15.1044 11.4146 15.1243C11.2848 15.1351 11.1525 15.1406 11.0215 15.1406C11.0179 15.1406 11.0144 15.1411 11.0107 15.1412C11.0071 15.1411 11.0036 15.1406 11 15.1406C8.44115 15.1406 6.35938 13.0589 6.35938 10.5C6.35938 7.94115 8.44115 5.85938 11 5.85938C12.6491 5.85938 14.1659 6.73837 14.9947 8.13672H13.8132C13.5759 8.13672 13.3835 8.32909 13.3835 8.56641C13.3835 8.80372 13.5759 8.99609 13.8132 8.99609H15.125C15.3867 8.99609 15.6315 8.92255 15.8399 8.79515C15.8533 8.7875 15.8662 8.77927 15.8785 8.7704C16.2525 8.52438 16.5 8.10121 16.5 7.62109V6.35352C16.5 6.1162 16.3076 5.92383 16.0703 5.92383Z" fill="#00993E"/>
</g>
<circle opacity="0.3" cx="11" cy="10.5" r="10" stroke="#00993E"/>
<defs>
<clipPath id="clip0_228_2675">
<rect width="11" height="11" fill="white" transform="translate(5.5 5)"/>
</clipPath>
</defs>
</svg>
