<svg width="22" height="21" viewBox="0 0 22 21" fill="none" xmlns="http://www.w3.org/2000/svg">
<g clip-path="url(#clip0_228_2688)">
<path d="M7.53552 11.3633C7.34609 11.4757 7.21875 11.6822 7.21875 11.918C7.21875 12.2734 7.50789 12.5625 7.86328 12.5625C8.14335 12.5625 8.38217 12.3829 8.47086 12.1328H10.1406C10.496 12.1328 10.7852 12.4219 10.7852 12.7773C10.7852 13.1327 10.496 13.4219 10.1406 13.4219H7.5625C6.97018 13.4219 6.48828 13.9038 6.48828 14.4961C6.48828 15.0884 6.97018 15.5703 7.5625 15.5703H9.71094C9.8296 15.5703 9.92578 15.4741 9.92578 15.3555C9.92578 15.2368 9.8296 15.1406 9.71094 15.1406H7.5625C7.20711 15.1406 6.91797 14.8515 6.91797 14.4961C6.91797 14.1407 7.20711 13.8516 7.5625 13.8516H10.1406C10.7329 13.8516 11.2148 13.3697 11.2148 12.7773C11.2148 12.185 10.7329 11.7031 10.1406 11.7031H8.47086C8.42005 11.5599 8.31997 11.4398 8.19105 11.3633L9.83198 8.67099C10.0901 8.28298 10.2266 7.83087 10.2266 7.36328C10.2266 6.06017 9.16639 5 7.86328 5C6.56017 5 5.5 6.06017 5.5 7.36328C5.5 7.83087 5.63645 8.28298 5.89458 8.67099L7.53552 11.3633ZM7.86328 12.1328C7.74482 12.1328 7.64844 12.0364 7.64844 11.918C7.64844 11.7995 7.74482 11.7031 7.86328 11.7031C7.98175 11.7031 8.07812 11.7995 8.07812 11.918C8.07812 12.0364 7.98175 12.1328 7.86328 12.1328ZM7.86328 5.42969C8.92946 5.42969 9.79688 6.2971 9.79688 7.36328C9.79688 7.74716 9.68458 8.11813 9.47214 8.4361C9.47048 8.43857 9.46887 8.44109 9.46733 8.44364L7.86328 11.0755C7.86328 11.0755 6.25608 8.43857 6.25442 8.4361C6.04199 8.11813 5.92969 7.74716 5.92969 7.36328C5.92969 6.2971 6.7971 5.42969 7.86328 5.42969Z" fill="#00993E"/>
<path d="M7.86328 8.4375C8.45561 8.4375 8.9375 7.95561 8.9375 7.36328C8.9375 6.77096 8.45561 6.28906 7.86328 6.28906C7.27096 6.28906 6.78906 6.77096 6.78906 7.36328C6.78906 7.95561 7.27096 8.4375 7.86328 8.4375ZM7.86328 6.71875C8.21868 6.71875 8.50781 7.00789 8.50781 7.36328C8.50781 7.71868 8.21868 8.00781 7.86328 8.00781C7.50789 8.00781 7.21875 7.71868 7.21875 7.36328C7.21875 7.00789 7.50789 6.71875 7.86328 6.71875Z" fill="#00993E"/>
<path d="M14.1367 8.56641C12.8336 8.56641 11.7734 9.62657 11.7734 10.9297C11.7734 11.398 11.9103 11.8508 12.1693 12.2392L13.8041 14.8036C13.6775 14.8802 13.5793 14.9992 13.5292 15.1406H11.6445C11.5259 15.1406 11.4297 15.2368 11.4297 15.3555C11.4297 15.4741 11.5259 15.5703 11.6445 15.5703H13.5291C13.6178 15.8204 13.8566 16 14.1367 16C14.4921 16 14.7812 15.7109 14.7812 15.3555C14.7812 15.1217 14.6561 14.9166 14.4694 14.8036L16.1042 12.2392C16.3631 11.8508 16.5 11.398 16.5 10.9297C16.5 9.62657 15.4398 8.56641 14.1367 8.56641ZM14.1367 15.5703C14.0183 15.5703 13.9219 15.4739 13.9219 15.3555C13.9219 15.237 14.0183 15.1406 14.1367 15.1406C14.2552 15.1406 14.3516 15.237 14.3516 15.3555C14.3516 15.4739 14.2552 15.5703 14.1367 15.5703ZM15.7456 12.0025C15.7447 12.0038 14.1367 14.5261 14.1367 14.5261C14.1367 14.5261 12.5287 12.0038 12.5279 12.0025C12.3154 11.6845 12.2031 11.3136 12.2031 10.9297C12.2031 9.8635 13.0705 8.99609 14.1367 8.99609C15.2029 8.99609 16.0703 9.8635 16.0703 10.9297C16.0703 11.3136 15.958 11.6845 15.7456 12.0025Z" fill="#00993E"/>
<path d="M14.1367 9.85547C13.5444 9.85547 13.0625 10.3374 13.0625 10.9297C13.0625 11.522 13.5444 12.0039 14.1367 12.0039C14.729 12.0039 15.2109 11.522 15.2109 10.9297C15.2109 10.3374 14.729 9.85547 14.1367 9.85547ZM14.1367 11.5742C13.7813 11.5742 13.4922 11.2851 13.4922 10.9297C13.4922 10.5743 13.7813 10.2852 14.1367 10.2852C14.4921 10.2852 14.7812 10.5743 14.7812 10.9297C14.7812 11.2851 14.4921 11.5742 14.1367 11.5742Z" fill="#00993E"/>
<path d="M10.6777 15.5703C10.7964 15.5703 10.8926 15.4741 10.8926 15.3555C10.8926 15.2368 10.7964 15.1406 10.6777 15.1406C10.5591 15.1406 10.4629 15.2368 10.4629 15.3555C10.4629 15.4741 10.5591 15.5703 10.6777 15.5703Z" fill="#00993E"/>
</g>
<circle opacity="0.3" cx="11" cy="10.5" r="10" stroke="#00993E"/>
<defs>
<clipPath id="clip0_228_2688">
<rect width="11" height="11" fill="white" transform="translate(5.5 5)"/>
</clipPath>
</defs>
</svg>
