<svg width="30" height="30" viewBox="0 0 30 30" fill="none" xmlns="http://www.w3.org/2000/svg">
<path d="M10.1193 17.1416C9.39258 17.1416 8.80127 17.7329 8.80127 18.4596C8.80127 19.1864 9.39258 19.7776 10.1193 19.7776C10.8461 19.7776 11.4374 19.1864 11.4374 18.4596C11.4374 17.7329 10.8461 17.1416 10.1193 17.1416ZM10.1193 19.3136C9.64844 19.3136 9.26538 18.9305 9.26538 18.4596C9.26538 17.9888 9.64844 17.6057 10.1193 17.6057C10.5902 17.6057 10.9733 17.9888 10.9733 18.4596C10.9733 18.9304 10.5902 19.3136 10.1193 19.3136Z" fill="#00993E"/>
<path d="M21.0028 18.4596C21.0028 17.7328 20.4115 17.1416 19.6847 17.1416C18.958 17.1416 18.3667 17.7329 18.3667 18.4596C18.3667 19.1864 18.9579 19.7776 19.6847 19.7776C20.4115 19.7776 21.0028 19.1864 21.0028 18.4596ZM18.8308 18.4596C18.8308 17.9888 19.2139 17.6057 19.6847 17.6057C20.1556 17.6057 20.5387 17.9888 20.5387 18.4596C20.5387 18.9304 20.1556 19.3136 19.6847 19.3136C19.2139 19.3136 18.8308 18.9304 18.8308 18.4596Z" fill="#00993E"/>
<path d="M22.6986 12.816L22.3169 12.649C21.9556 12.491 21.5723 12.4108 21.1778 12.4108H19.9168V12.3506C19.9168 12.2974 19.9126 12.2451 19.9048 12.1942H22.7267C22.8549 12.1942 22.9588 12.0902 22.9588 11.9622C22.9588 11.834 22.8549 11.7301 22.7267 11.7301H19.7058C19.5191 11.4868 19.2255 11.3295 18.8958 11.3295H18.877C18.6945 11.3295 18.5145 11.3861 18.3566 11.4932C18.1663 11.6222 17.9435 11.6904 17.7124 11.6904H15.9307C15.6433 11.6904 15.3681 11.5839 15.1559 11.3901C15.1459 11.381 15.1351 11.3728 15.1238 11.3656C14.8206 11.0692 14.4224 10.9066 13.997 10.9066H12.5477L12.7295 10.2369H12.8613C13.1377 10.2369 13.3738 10.0631 13.4674 9.81932H14.5825C14.7107 9.81932 14.8146 9.71532 14.8146 9.58727C14.8146 9.45909 14.7107 9.35521 14.5825 9.35521H13.4674C13.3738 9.11131 13.1377 8.93748 12.8613 8.93748H11.99C11.6886 8.93748 11.4352 9.14403 11.3621 9.42284H11.0297C10.6549 9.42284 10.3246 9.67552 10.2263 10.0372L9.98865 10.913C9.92017 11.1652 9.97205 11.4289 10.1307 11.6366C10.1565 11.6702 10.1845 11.7012 10.2142 11.73H8.11572C7.98755 11.73 7.88367 11.8339 7.88367 11.962C7.88367 12.0902 7.98755 12.1941 8.11572 12.1941H10.8847C10.8701 12.2648 10.8606 12.3372 10.8556 12.4108H9.41492C9.10364 12.4108 8.80066 12.4691 8.51416 12.5845C8.39527 12.6323 8.33765 12.7673 8.3855 12.8863C8.43323 13.0051 8.56848 13.0627 8.68738 13.015C8.91846 12.922 9.16333 12.8748 9.41492 12.8748H11.6253C12.574 12.8748 13.4021 13.5811 13.5516 14.5176C13.5772 14.6772 13.7133 14.7931 13.8754 14.7931H14.9104C15.0386 14.7931 15.1425 14.6891 15.1425 14.561C15.1425 14.4329 15.0386 14.329 14.9104 14.329H13.9885C13.8797 13.8118 13.6012 13.3411 13.1961 12.9934C12.7582 12.6175 12.2003 12.4106 11.6253 12.4106H11.3208C11.3765 11.828 11.8684 11.3707 12.4653 11.3707H13.9968C14.2848 11.3707 14.5551 11.4756 14.7666 11.6672L14.5733 12.0477C14.486 12.2192 14.4708 12.4145 14.5304 12.5975C14.5901 12.7805 14.7174 12.9293 14.8889 13.0165L16.0927 13.6284C15.9486 13.8795 15.8497 14.1556 15.8036 14.4443C15.7835 14.5709 15.8696 14.6899 15.9962 14.7101C16.1227 14.7303 16.2417 14.644 16.2619 14.5175C16.4114 13.5809 17.2395 12.8748 18.1884 12.8748H21.1776C21.5077 12.8748 21.8285 12.9418 22.1309 13.0741L22.5126 13.2411C22.5323 13.2496 22.5412 13.2726 22.5326 13.2922L22.1544 14.1565C22.1492 14.1687 22.1399 14.1744 22.1331 14.1771C22.1262 14.1798 22.1155 14.1819 22.1034 14.1765L21.7217 14.0095C21.5491 13.934 21.366 13.8957 21.1776 13.8957H18.1884C17.6989 13.8957 17.2912 14.2784 17.2603 14.7673L17.1847 15.9973C17.1415 16.713 16.5459 17.2737 15.8289 17.2737H13.985C13.2698 17.2737 12.6743 16.7146 12.6294 16.0009L12.5494 14.7334C12.5492 14.7296 12.549 14.726 12.5485 14.7222C12.4957 14.2511 12.0988 13.8957 11.6253 13.8957H9.41492C8.90223 13.8957 8.48511 14.3129 8.48511 14.8256V15.0326C8.48511 15.0541 8.46778 15.0714 8.44629 15.0714H7.50293C7.48145 15.0714 7.46411 15.0541 7.46411 15.0326V14.8256C7.46411 14.3813 7.6095 13.963 7.88452 13.6156C7.96411 13.5151 7.94715 13.3693 7.84668 13.2897C7.74622 13.2101 7.60022 13.227 7.52063 13.3275C7.18005 13.7579 7 14.2759 7 14.8257V15.0327C7 15.3101 7.22559 15.5356 7.50293 15.5356H8.44629C8.46118 15.5356 8.47583 15.5347 8.49048 15.5334V15.843C8.49048 16.0083 8.5116 16.171 8.55347 16.329C7.89929 16.811 7.47376 17.5863 7.47376 18.4595C7.47376 19.9181 8.66053 21.1049 10.1191 21.1049C11.5778 21.1049 12.7645 19.9181 12.7645 18.4595C12.7645 18.2094 12.7289 17.9674 12.6637 17.7379H17.1402C17.075 17.9674 17.0393 18.2094 17.0393 18.4595C17.0393 18.7492 17.086 19.0339 17.1778 19.306C17.2188 19.4275 17.3505 19.4927 17.4719 19.4517C17.5933 19.4107 17.6585 19.2791 17.6176 19.1576C17.5419 18.9334 17.5034 18.6985 17.5034 18.4595C17.5034 17.2567 18.482 16.2782 19.6847 16.2782C20.8875 16.2782 21.866 17.2567 21.866 18.4595C21.866 19.6622 20.8875 20.6406 19.6847 20.6406C19.1229 20.6406 18.5894 20.4276 18.1823 20.0408C18.0894 19.9525 17.9425 19.9562 17.8543 20.0491C17.766 20.142 17.7697 20.289 17.8626 20.3772C18.3562 20.8463 19.0034 21.1048 19.6847 21.1048C21.1433 21.1048 22.3301 19.9181 22.3301 18.4595C22.3301 17.8274 22.1071 17.2467 21.7359 16.7913C21.9025 16.5038 21.99 16.1786 21.99 15.843V14.9243C21.99 14.8213 21.9817 14.7197 21.9656 14.62C22.0755 14.6554 22.1933 14.652 22.3023 14.6094C22.4274 14.5604 22.5259 14.4657 22.5797 14.3426L22.9578 13.4783C23.069 13.2242 22.9527 12.9271 22.6986 12.816ZM11.99 9.40172H12.8613C12.9636 9.40172 13.0469 9.48497 13.0469 9.58727C13.0469 9.68968 12.9636 9.77294 12.8613 9.77294H11.99C11.8876 9.77294 11.8043 9.68968 11.8043 9.58727C11.8043 9.48497 11.8876 9.40172 11.99 9.40172ZM11.2167 11.4994H10.792C10.6763 11.4994 10.5697 11.4466 10.4994 11.3548C10.4292 11.2629 10.4063 11.1462 10.4365 11.0347L10.6742 10.1589C10.7177 9.99889 10.8638 9.88707 11.0297 9.88707H11.4141C11.5226 10.0948 11.7398 10.237 11.9899 10.237H12.2485L12.0521 10.9606C11.7196 11.0487 11.4288 11.2406 11.2167 11.4994ZM16.6174 12.9935C16.5264 13.0717 16.4422 13.1564 16.3644 13.2461L15.0993 12.6029C15.0382 12.5719 14.9929 12.5189 14.9717 12.4539C14.9505 12.3887 14.9559 12.3192 14.987 12.2582L15.1438 11.9496C15.3825 12.083 15.6524 12.1547 15.9307 12.1547H17.7123C18.0366 12.1547 18.3495 12.0587 18.617 11.8773C18.6978 11.8226 18.7876 11.7937 18.8769 11.7937H18.8958C19.2028 11.7937 19.4527 12.0434 19.4527 12.3506V12.4108H18.1884C17.6133 12.4108 17.0554 12.6177 16.6174 12.9935ZM10.1191 20.6408C8.91639 20.6408 7.93799 19.6622 7.93799 18.4595C7.93799 17.2567 8.91639 16.2782 10.1191 16.2782C11.3219 16.2782 12.3004 17.2567 12.3004 18.4595C12.3004 19.6622 11.3219 20.6408 10.1191 20.6408ZM12.4828 17.2738C12.0473 16.4091 11.1516 15.8141 10.1191 15.8141C9.70899 15.8141 9.32032 15.908 8.97351 16.0753C8.96106 15.999 8.95459 15.9214 8.95459 15.8431L8.94922 14.8257C8.94922 14.569 9.15821 14.36 9.41492 14.36H11.6253C11.8606 14.36 12.0581 14.5354 12.0867 14.769L12.1663 16.0303C12.1974 16.5254 12.4264 16.9647 12.7726 17.2738H12.4828ZM19.6847 15.8141C18.6522 15.8141 17.7566 16.4091 17.3211 17.2738H17.0419C17.3889 16.9637 17.6179 16.5227 17.648 16.0256L17.7235 14.7964C17.739 14.5516 17.9431 14.36 18.1884 14.36H21.1778C21.262 14.36 21.3446 14.3719 21.4246 14.3949C21.4917 14.5629 21.5259 14.7405 21.5259 14.9244V15.8431C21.5259 16.0524 21.4807 16.2562 21.3942 16.4431C20.9329 16.0513 20.3361 15.8141 19.6847 15.8141Z" fill="#00993E"/>
<path d="M10.3907 18.46C10.3907 18.6099 10.2692 18.7314 10.1191 18.7314C9.96924 18.7314 9.84766 18.6099 9.84766 18.46C9.84766 18.3101 9.96924 18.1885 10.1191 18.1885C10.2692 18.1885 10.3907 18.3101 10.3907 18.46Z" fill="#00993E"/>
<path d="M19.9561 18.46C19.9561 18.6099 19.8346 18.7314 19.6846 18.7314C19.5347 18.7314 19.4131 18.6099 19.4131 18.46C19.4131 18.3101 19.5347 18.1885 19.6846 18.1885C19.8346 18.1885 19.9561 18.3101 19.9561 18.46Z" fill="#00993E"/>
<circle opacity="0.3" cx="15" cy="15" r="14.5" stroke="#00993E"/>
</svg>
