<svg width="30" height="30" viewBox="0 0 30 30" fill="none" xmlns="http://www.w3.org/2000/svg">
<path d="M22.5274 16.3393C22.5272 16.3392 22.527 16.3392 22.5269 16.3391L20.4586 15.1449L20.5913 14.9151C20.6646 14.7882 20.6211 14.6259 20.4942 14.5526L18.4243 13.3584L18.557 13.1284C18.6303 13.0015 18.5868 12.8391 18.4599 12.7659L10.8777 8.38702L11.1431 7.92846C11.2164 7.80155 11.1729 7.63924 11.046 7.56596L10.1267 7.03523C10.0656 7.00053 9.99336 6.99101 9.92533 7.00869C9.85736 7.02693 9.79941 7.07142 9.76425 7.13235L7.37593 11.2689C7.30265 11.3958 7.34614 11.5581 7.47305 11.6314L8.39229 12.1622C8.43263 12.1854 8.4784 12.1977 8.52497 12.1977C8.54816 12.1976 8.57128 12.1946 8.5937 12.1887C8.66167 12.1705 8.71962 12.126 8.75478 12.065L9.02015 11.6062L13.4102 14.1408C13.2193 14.7048 13.4324 15.3266 13.9292 15.6549L10.45 22.6158C10.3844 22.747 10.4377 22.9065 10.5688 22.972C10.7 23.0375 10.8595 22.9842 10.925 22.8531L14.4026 15.8951V22.7345C14.4026 22.881 14.5215 22.9998 14.668 22.9998C14.8146 22.9998 14.9334 22.881 14.9334 22.7345V15.8972L18.4097 22.8531C18.4752 22.9842 18.6347 23.0375 18.7658 22.972C18.897 22.9065 18.9502 22.747 18.8847 22.6158L15.4057 15.6579C15.4984 15.5963 15.5827 15.523 15.6565 15.4397L16.6012 15.9851C16.6415 16.0084 16.6873 16.0206 16.7339 16.0206C16.7571 16.0205 16.7802 16.0175 16.8026 16.0116C16.8706 15.9934 16.9285 15.9489 16.9637 15.8879L17.0964 15.6568L19.1663 16.851C19.2932 16.9242 19.4555 16.8808 19.5288 16.7538L19.6614 16.5243L21.7313 17.7185C21.7717 17.7416 21.8174 17.7538 21.864 17.7538C21.9588 17.7538 22.0464 17.7032 22.0938 17.6211L22.6246 16.7018C22.6978 16.5749 22.6543 16.4126 22.5274 16.3393ZM8.42732 11.5699L7.9677 11.3045L10.0907 7.62753L10.5503 7.8929L8.42732 11.5699ZM15.3558 14.9578C15.2671 15.1141 15.1273 15.235 14.9599 15.3004C14.8204 15.3541 14.6687 15.3679 14.5218 15.3405C14.468 15.3297 14.4152 15.3142 14.3642 15.294C14.3312 15.2819 14.2993 15.267 14.2689 15.2495C13.8889 15.0304 13.7584 14.5447 13.9775 14.1647C13.9781 14.1636 13.9788 14.1625 13.9794 14.1614L13.9802 14.163C14.0843 13.9799 14.2573 13.8462 14.4607 13.7915C14.522 13.7754 14.585 13.7664 14.6484 13.765C14.6675 13.765 14.6863 13.765 14.7054 13.7668C14.7501 13.769 14.7944 13.7748 14.8381 13.7844C14.8564 13.7883 14.8747 13.7915 14.8912 13.7968C14.9513 13.8139 15.0093 13.838 15.0639 13.8685C15.4445 14.0893 15.575 14.5763 15.3558 14.9578ZM16.6381 15.3936L15.9256 14.9822C15.9256 14.9783 15.9272 14.9745 15.9282 14.9706C15.9528 14.8962 15.9705 14.8199 15.9813 14.7423C15.9848 14.7158 15.9845 14.6893 15.9864 14.6627C15.9911 14.6089 15.9925 14.5549 15.9906 14.5009C15.989 14.4698 15.9845 14.4396 15.9808 14.4088C15.9753 14.3596 15.9672 14.3108 15.9564 14.2626C15.9489 14.231 15.9399 14.2005 15.9298 14.1694C15.9154 14.1231 15.8985 14.0775 15.8791 14.033C15.8661 14.0033 15.8526 13.9741 15.8377 13.9454C15.8143 13.9015 15.7883 13.859 15.76 13.8181C15.7425 13.7915 15.726 13.765 15.7069 13.7408C15.6722 13.6981 15.6348 13.6575 15.5952 13.6193C15.5756 13.6002 15.5586 13.5795 15.5376 13.5614C15.143 13.2119 14.5768 13.1343 14.1028 13.3648C14.0823 13.3744 14.063 13.3852 14.0431 13.3961C13.9923 13.4233 13.9433 13.4538 13.8966 13.4874C13.8783 13.5007 13.8597 13.5139 13.8419 13.5272C13.7822 13.5743 13.7267 13.6264 13.6761 13.683L9.28526 11.1469L10.6121 8.8469L17.9647 13.0928L16.6381 15.3936ZM19.2026 16.2595L17.3644 15.198L18.1605 13.8181L19.9987 14.8795L19.2026 16.2595ZM21.7664 17.1267L19.9279 16.0652L20.1932 15.6056L22.0317 16.6671L21.7664 17.1267Z" fill="#00993E"/>
<circle opacity="0.3" cx="15" cy="15" r="14.5" stroke="#00993E"/>
</svg>
