<svg width="30" height="30" viewBox="0 0 30 30" fill="none" xmlns="http://www.w3.org/2000/svg">
<g clip-path="url(#clip0_108_12903)">
<path d="M21.2349 10.3516H17.6862V9.42808C17.6862 9.0864 17.6158 8.75501 17.4768 8.44305C17.424 8.3248 17.2855 8.27164 17.1673 8.32436C17.0491 8.37705 16.9959 8.51562 17.0486 8.63384C17.1607 8.88536 17.2175 9.15256 17.2175 9.42805V10.3516H16.7487V9.42808C16.7487 8.6825 16.194 8.05522 15.4668 7.95287C15.3297 7.77695 15.1693 7.62019 14.9897 7.48768C15.0782 7.47537 15.1677 7.46878 15.2582 7.46878C15.7142 7.46878 16.1587 7.62979 16.5098 7.92215C16.5536 7.95862 16.6068 7.9764 16.6597 7.9764C16.7268 7.9764 16.7935 7.94765 16.8399 7.89199C16.9227 7.79251 16.9093 7.64472 16.8098 7.56191C16.3746 7.19957 15.8236 7 15.2582 7C14.9578 7 14.6654 7.05494 14.3871 7.16248C14.1264 7.0666 13.8448 7.01416 13.5513 7.01416C12.2124 7.01416 11.1232 8.10341 11.1232 9.44223V10.3516H8.76507C8.51393 10.3516 8.3096 10.5559 8.3096 10.8071V19.8614C8.3096 19.9909 8.41451 20.0958 8.54399 20.0958C8.67347 20.0958 8.77838 19.9909 8.77838 19.8614V10.8204H11.1232V11.8965C11.1232 12.2842 11.4386 12.5997 11.8263 12.5997C12.2141 12.5997 12.5295 12.2842 12.5295 11.8965V10.8204H14.573V11.8062C14.573 12.1939 14.8884 12.5093 15.2761 12.5093C15.6638 12.5093 15.9793 12.1939 15.9793 11.8062V10.8204H18.0823V22.5312H8.85313C8.81191 22.5312 8.77835 22.4977 8.77835 22.4564V20.8603C8.77835 20.7308 8.67344 20.6259 8.54396 20.6259C8.41448 20.6259 8.30957 20.7308 8.30957 20.8603V22.4564C8.30957 22.7561 8.5534 23 8.85313 23H21.1468C21.4465 23 21.6903 22.7561 21.6903 22.4564V10.8071C21.6903 10.5559 21.486 10.3516 21.2349 10.3516ZM13.7677 10.3516H13.2989V9.42808C13.2989 9.0709 13.3955 8.72526 13.5787 8.42118C13.751 8.42577 13.9127 8.47312 14.0538 8.55315C13.8701 8.80614 13.7677 9.11309 13.7677 9.42808V10.3516ZM12.8301 9.42808V10.3516H12.5295V9.44223C12.5295 9.09184 12.7069 8.78213 12.9765 8.598C12.88 8.86208 12.8301 9.14209 12.8301 9.42808ZM14.2365 10.3516V9.42808C14.2365 9.22794 14.2936 9.03771 14.4001 8.87426C14.5092 9.03681 14.5729 9.23219 14.5729 9.44223V10.3516H14.2365ZM15.5105 11.8062C15.5105 11.9354 15.4054 12.0406 15.2761 12.0406C15.1469 12.0406 15.0417 11.9354 15.0417 11.8062V9.44223C15.0417 8.62034 14.3731 7.95171 13.5513 7.95171C12.7294 7.95171 12.0608 8.62038 12.0608 9.44223V11.8965C12.0608 12.0257 11.9556 12.1309 11.8264 12.1309C11.6971 12.1309 11.592 12.0257 11.592 11.8965V9.44223C11.592 8.36189 12.4709 7.48293 13.5513 7.48293C14.6316 7.48293 15.5105 8.36189 15.5105 9.44223V11.8062ZM15.8185 8.57487C16.0969 8.75832 16.2799 9.07362 16.2799 9.42811V10.3516H15.9793V9.44223C15.9793 9.13669 15.922 8.84442 15.8185 8.57487ZM19.6975 10.8204V17.9894C19.6975 18.1188 19.8024 18.2237 19.9318 18.2237C20.0613 18.2237 20.1662 18.1188 20.1662 17.9894V10.8204H21.2215V22.2457L20.1662 21.2241V18.9882C20.1662 18.8587 20.0613 18.7538 19.9318 18.7538C19.8024 18.7538 19.6975 18.8587 19.6975 18.9882V21.2204L18.551 22.2714V10.8204H19.6975ZM19.9275 21.6454L20.8425 22.5312H18.9614L19.9275 21.6454Z" fill="#00993E"/>
<path d="M16.1357 12.6015C15.9141 12.8408 15.6008 12.9781 15.2762 12.9781C14.93 12.9781 14.6031 12.8254 14.3791 12.559C14.2958 12.46 14.1479 12.4472 14.0489 12.5305C13.9498 12.6138 13.937 12.7617 14.0203 12.8608C14.3336 13.2333 14.7913 13.4469 15.2762 13.4469C15.731 13.4469 16.1696 13.2548 16.4797 12.92C16.5677 12.825 16.562 12.6767 16.467 12.5888C16.372 12.5008 16.2236 12.5065 16.1357 12.6015Z" fill="#00993E"/>
<path d="M12.6326 12.7456C12.4135 12.9537 12.1272 13.0683 11.8265 13.0683C11.4519 13.0683 11.0966 12.886 10.8761 12.5806C10.8003 12.4756 10.6537 12.452 10.5488 12.5278C10.4439 12.6036 10.4203 12.7501 10.496 12.855C10.8045 13.2822 11.3019 13.5371 11.8265 13.5371C12.2479 13.5371 12.6488 13.3768 12.9554 13.0855C13.0493 12.9964 13.0531 12.848 12.964 12.7542C12.8748 12.6602 12.7265 12.6564 12.6326 12.7456Z" fill="#00993E"/>
<path d="M13.4222 15.1051L12.8819 16.1998L11.6738 16.3753C11.5231 16.3972 11.4003 16.5008 11.3532 16.6456C11.3062 16.7904 11.3447 16.9463 11.4537 17.0526L12.3279 17.9047L12.1216 19.108C12.0958 19.258 12.1563 19.4068 12.2795 19.4963C12.4027 19.5858 12.5629 19.5974 12.6977 19.5266L13.7783 18.9585L14.8588 19.5266C14.9174 19.5574 14.9808 19.5726 15.044 19.5726C15.1259 19.5726 15.2074 19.5469 15.277 19.4964C15.4002 19.4069 15.4607 19.2581 15.435 19.108L15.2286 17.9048L16.1027 17.0527C16.2118 16.9464 16.2503 16.7904 16.2033 16.6456C16.1562 16.5008 16.0334 16.3973 15.8827 16.3754L14.6746 16.1998L14.1344 15.1051C14.067 14.9686 13.9306 14.8838 13.7783 14.8838C13.626 14.8838 13.4895 14.9685 13.4222 15.1051ZM14.2709 16.4411C14.3288 16.5583 14.4405 16.6395 14.5699 16.6583L15.6715 16.8184L14.8744 17.5954C14.7808 17.6866 14.7381 17.818 14.7602 17.9469L14.9484 19.044L13.9631 18.5261C13.8473 18.4652 13.7092 18.4652 13.5935 18.526L12.6081 19.044L12.7963 17.9469C12.8184 17.8181 12.7757 17.6866 12.6821 17.5954L11.885 16.8184L12.9867 16.6583C13.116 16.6395 13.2278 16.5583 13.2856 16.4411L13.7783 15.4428L14.2709 16.4411Z" fill="#00993E"/>
<path d="M15.5957 14.6878L15.2843 15.0615C15.2015 15.161 15.2149 15.3088 15.3143 15.3916C15.3581 15.4281 15.4113 15.4459 15.4643 15.4459C15.5314 15.4459 15.5981 15.4172 15.6445 15.3616L15.9558 14.9879C16.0387 14.8885 16.0253 14.7407 15.9258 14.6578C15.8264 14.575 15.6786 14.5884 15.5957 14.6878Z" fill="#00993E"/>
<path d="M16.2944 17.9893C16.2944 18.1188 16.3993 18.2237 16.5288 18.2237H16.9158C17.0453 18.2237 17.1502 18.1188 17.1502 17.9893C17.1502 17.8598 17.0453 17.7549 16.9158 17.7549H16.5288C16.3993 17.7549 16.2944 17.8598 16.2944 17.9893Z" fill="#00993E"/>
<path d="M12.0762 15.4459C12.1291 15.4459 12.1823 15.4281 12.2261 15.3916C12.3256 15.3087 12.339 15.161 12.2561 15.0615L11.9447 14.6878C11.8619 14.5884 11.714 14.575 11.6146 14.6578C11.5152 14.7407 11.5018 14.8885 11.5846 14.9879L11.896 15.3616C11.9424 15.4172 12.009 15.4459 12.0762 15.4459Z" fill="#00993E"/>
<path d="M15.3143 20.1803C15.2149 20.2632 15.2015 20.411 15.2843 20.5104L15.5957 20.8841C15.642 20.9397 15.7087 20.9684 15.7759 20.9684C15.8288 20.9684 15.882 20.9506 15.9258 20.9141C16.0253 20.8313 16.0387 20.6834 15.9558 20.584L15.6445 20.2103C15.5616 20.1109 15.4138 20.0974 15.3143 20.1803Z" fill="#00993E"/>
<path d="M12.2261 20.1812C12.1267 20.0985 11.9789 20.1118 11.896 20.2112L11.5846 20.5849C11.5018 20.6844 11.5152 20.8322 11.6146 20.9151C11.6584 20.9516 11.7116 20.9694 11.7645 20.9694C11.8317 20.9694 11.8984 20.9407 11.9447 20.8851L12.2562 20.5114C12.339 20.4119 12.3256 20.2641 12.2261 20.1812Z" fill="#00993E"/>
<path d="M10.6245 18.2238H11.0115C11.141 18.2238 11.2459 18.1188 11.2459 17.9894C11.2459 17.8599 11.141 17.755 11.0115 17.755H10.6245C10.495 17.755 10.3901 17.8599 10.3901 17.9894C10.3901 18.1188 10.495 18.2238 10.6245 18.2238Z" fill="#00993E"/>
</g>
<circle opacity="0.3" cx="15" cy="15" r="14.5" stroke="#00993E"/>
<defs>
<clipPath id="clip0_108_12903">
<rect width="16" height="16" fill="white" transform="translate(7 7)"/>
</clipPath>
</defs>
</svg>
