<svg width="30" height="30" viewBox="0 0 30 30" fill="none" xmlns="http://www.w3.org/2000/svg">
<g clip-path="url(#clip0_108_12870)">
<path d="M21.2125 18.8264C20.9405 18.6241 20.556 18.6806 20.3536 18.9526C20.2423 19.1022 20.1232 19.2489 19.9996 19.3887C19.7751 19.6427 19.799 20.0306 20.053 20.2552C20.1698 20.3584 20.3148 20.4091 20.4593 20.4091C20.6291 20.4091 20.7981 20.3391 20.9194 20.2018C21.0658 20.0363 21.2068 19.8625 21.3386 19.6853C21.541 19.4133 21.4845 19.0288 21.2125 18.8264Z" fill="#00993E"/>
<path d="M22.2393 15.9478C21.9083 15.8757 21.5811 16.0858 21.509 16.417C21.4693 16.5992 21.4214 16.7818 21.3664 16.9596C21.2663 17.2836 21.4478 17.6273 21.7716 17.7273C21.832 17.746 21.893 17.7548 21.9531 17.7548C22.2152 17.7548 22.4579 17.5856 22.5393 17.322C22.6046 17.1109 22.6615 16.8943 22.7086 16.6781C22.7807 16.3469 22.5706 16.0199 22.2393 15.9478Z" fill="#00993E"/>
<path d="M18.2579 20.7918C18.0949 20.8828 17.9262 20.9678 17.7564 21.0445C17.4474 21.1841 17.31 21.5476 17.4496 21.8566C17.5521 22.0836 17.7755 22.2179 18.0094 22.2179C18.0938 22.2179 18.1797 22.2004 18.2617 22.1634C18.4631 22.0724 18.6631 21.9716 18.8564 21.8637C19.1524 21.6985 19.2584 21.3245 19.0931 21.0285C18.9279 20.7326 18.5539 20.6266 18.2579 20.7918Z" fill="#00993E"/>
<path d="M14.3863 10.0894V14.7459L12.1353 16.9968C11.8956 17.2365 11.8956 17.6252 12.1353 17.8649C12.2552 17.9847 12.4123 18.0447 12.5694 18.0447C12.7265 18.0447 12.8836 17.9847 13.0035 17.8649L15.4342 15.4342C15.5493 15.3191 15.6139 15.1629 15.6139 15.0001V10.0894C15.6139 9.7504 15.3391 9.47559 15.0001 9.47559C14.6611 9.47559 14.3863 9.7504 14.3863 10.0894Z" fill="#00993E"/>
<path d="M22.2435 8.46233C21.9045 8.46233 21.6297 8.73715 21.6297 9.07617V10.7807C20.2009 8.53992 17.7057 7.14258 15.0002 7.14258C12.9015 7.14258 10.9284 7.95987 9.44435 9.44386C7.96036 10.9279 7.14307 12.901 7.14307 14.9997C7.14307 17.0984 7.96036 19.0715 9.44435 20.5556C10.9284 22.0396 12.9015 22.8569 15.0002 22.8569C15.0054 22.8569 15.0104 22.8562 15.0156 22.8561C15.0207 22.8562 15.0257 22.8569 15.0309 22.8569C15.2521 22.8569 15.4755 22.8475 15.695 22.8292C16.0328 22.8009 16.2837 22.5041 16.2555 22.1663C16.2272 21.8284 15.9308 21.5774 15.5925 21.6058C15.407 21.6213 15.2181 21.6292 15.0309 21.6292C15.0257 21.6292 15.0207 21.6298 15.0156 21.63C15.0104 21.6298 15.0054 21.6292 15.0002 21.6292C11.3447 21.6292 8.37074 18.6552 8.37074 14.9997C8.37074 11.3442 11.3447 8.37026 15.0002 8.37026C17.3561 8.37026 19.5229 9.62596 20.707 11.6236H19.0191C18.6801 11.6236 18.4053 11.8984 18.4053 12.2374C18.4053 12.5765 18.6801 12.8513 19.0191 12.8513H20.8931C21.2669 12.8513 21.6166 12.7462 21.9144 12.5642C21.9336 12.5533 21.952 12.5415 21.9695 12.5289C22.5037 12.1774 22.8574 11.5729 22.8574 10.887V9.07617C22.8574 8.73715 22.5825 8.46233 22.2435 8.46233Z" fill="#00993E"/>
</g>
<circle opacity="0.3" cx="15" cy="15" r="14.5" stroke="#00993E"/>
<defs>
<clipPath id="clip0_108_12870">
<rect width="15.7143" height="15.7143" fill="white" transform="translate(7.14307 7.14258)"/>
</clipPath>
</defs>
</svg>
