<svg width="30" height="30" viewBox="0 0 30 30" fill="none" xmlns="http://www.w3.org/2000/svg">
<g clip-path="url(#clip0_108_12937)">
<path d="M15 10.5625C12.5532 10.5625 10.5625 12.5532 10.5625 15C10.5625 17.4468 12.5532 19.4375 15 19.4375C17.4468 19.4375 19.4375 17.4468 19.4375 15C19.4375 12.5532 17.4468 10.5625 15 10.5625ZM15 18.8125C12.8978 18.8125 11.1875 17.1022 11.1875 15C11.1875 12.8978 12.8978 11.1875 15 11.1875C17.1022 11.1875 18.8125 12.8978 18.8125 15C18.8125 17.1022 17.1022 18.8125 15 18.8125Z" fill="#00993E"/>
<path d="M22.8341 7.0365C22.732 6.98231 22.6083 6.98884 22.5125 7.05353C20.9784 8.09012 20.0625 9.81437 20.0625 11.6659V15.7207C20.0625 16.1556 20.2319 16.5644 20.5394 16.872L21.125 17.4576V22.0625C21.125 22.5794 21.5456 23 22.0625 23C22.5794 23 23 22.5794 23 22.0625V7.3125C23 7.19691 22.9362 7.09075 22.8341 7.0365ZM22.375 22.0625C22.375 22.2348 22.2348 22.375 22.0625 22.375C21.8902 22.375 21.75 22.2348 21.75 22.0625V17.3281C21.75 17.2452 21.7171 17.1658 21.6585 17.1072L20.9813 16.43C20.7918 16.2405 20.6875 15.9886 20.6875 15.7207V11.6659C20.6875 10.229 21.3088 8.87859 22.375 7.94678V22.0625Z" fill="#00993E"/>
<path d="M14.2832 12.5219C14.2154 12.3632 14.0317 12.2895 13.873 12.3572C12.8126 12.8099 12.1274 13.8473 12.1274 15.0002C12.1274 15.1728 12.2673 15.3127 12.4399 15.3127C12.6125 15.3127 12.7524 15.1728 12.7524 15.0002C12.7524 14.0981 13.2886 13.2862 14.1184 12.932C14.2772 12.8643 14.3509 12.6807 14.2832 12.5219Z" fill="#00993E"/>
<path d="M15 12.127L14.9842 12.127C14.8116 12.1281 14.6727 12.269 14.6738 12.4416C14.675 12.6135 14.8147 12.752 14.9863 12.752C14.987 12.752 14.9877 12.752 14.9884 12.752L15 12.752C15.1726 12.752 15.3125 12.612 15.3125 12.4395C15.3125 12.2669 15.1726 12.127 15 12.127Z" fill="#00993E"/>
<path d="M19.332 10.8897C18.7798 10.308 18.129 9.85023 17.3976 9.52923C16.6403 9.19685 15.8336 9.02832 15 9.02832C14.0475 9.02832 13.137 9.24601 12.2938 9.67538C12.14 9.7537 12.0788 9.94185 12.1571 10.0957C12.2355 10.2494 12.4236 10.3106 12.5774 10.2323C13.3319 9.84813 14.147 9.65332 15 9.65332C16.4811 9.65332 17.8586 10.2452 18.8786 11.32C18.9401 11.3847 19.0226 11.4174 19.1054 11.4174C19.1826 11.4174 19.26 11.3889 19.3204 11.3315C19.4456 11.2127 19.4508 11.0149 19.332 10.8897Z" fill="#00993E"/>
<path d="M19.6352 18.2617C19.4998 18.1547 19.3033 18.1777 19.1963 18.313C18.1746 19.6052 16.6451 20.3463 14.9999 20.3463C13.9702 20.3463 12.9706 20.053 12.1092 19.4982C11.9641 19.4047 11.7707 19.4467 11.6772 19.5917C11.5838 19.7368 11.6257 19.9302 11.7708 20.0237C12.7333 20.6436 13.85 20.9713 14.9999 20.9713C16.8374 20.9713 18.5456 20.1437 19.6866 18.7006C19.7936 18.5653 19.7706 18.3687 19.6352 18.2617Z" fill="#00993E"/>
<path d="M11.2487 18.8101L11.2441 18.8048C11.2424 18.8028 11.2408 18.8008 11.2391 18.7988C11.1279 18.6667 10.9308 18.6498 10.7987 18.7609C10.6667 18.8721 10.6498 19.0692 10.761 19.2013L10.764 19.2049L10.7642 19.2048C10.7675 19.2089 10.7709 19.2131 10.7745 19.2173C10.8363 19.2893 10.9237 19.3262 11.0117 19.3262C11.0838 19.3262 11.1562 19.3014 11.2151 19.2508C11.3461 19.1384 11.3611 18.9411 11.2487 18.8101Z" fill="#00993E"/>
<path d="M10.875 7C10.7024 7 10.5625 7.13991 10.5625 7.3125V10.6875H9.99975C9.99978 10.6858 10 10.6841 10 10.6823V7.3125C10 7.13991 9.86009 7 9.6875 7C9.51491 7 9.375 7.13991 9.375 7.3125V10.6823C9.375 10.684 9.37525 10.6858 9.37525 10.6875H8.81225C8.81228 10.6858 8.8125 10.6841 8.8125 10.6823V7.3125C8.8125 7.13991 8.67259 7 8.5 7C8.32741 7 8.1875 7.13991 8.1875 7.3125V10.6823C8.1875 10.684 8.18775 10.6858 8.18775 10.6875H7.625V7.3125C7.625 7.13991 7.48509 7 7.3125 7C7.13991 7 7 7.13991 7 7.3125V11.125C7 11.8916 7.46513 12.5834 8.15625 12.8825V22.0625C8.15625 22.5794 8.57681 23 9.09375 23C9.61069 23 10.0312 22.5794 10.0312 22.0625V12.8825C10.7224 12.5834 11.1875 11.8916 11.1875 11.125V7.3125C11.1875 7.13991 11.0476 7 10.875 7ZM9.632 12.3631C9.49831 12.4017 9.40625 12.5242 9.40625 12.6633V22.0625C9.40625 22.2348 9.26606 22.375 9.09375 22.375C8.92144 22.375 8.78125 22.2348 8.78125 22.0625V12.6633C8.78125 12.5242 8.68922 12.4017 8.5555 12.3631C8.06853 12.2224 7.71234 11.8044 7.63912 11.3125H10.5483C10.4752 11.8044 10.119 12.2224 9.632 12.3631Z" fill="#00993E"/>
</g>
<circle opacity="0.3" cx="15" cy="15" r="14.5" stroke="#00993E"/>
<defs>
<clipPath id="clip0_108_12937">
<rect width="16" height="16" fill="white" transform="translate(7 7)"/>
</clipPath>
</defs>
</svg>
