<svg width="30" height="30" viewBox="0 0 30 30" fill="none" xmlns="http://www.w3.org/2000/svg">
<g clip-path="url(#clip0_108_12924)">
<path d="M14.61 23.2913C14.6969 23.4217 14.8433 23.5 15 23.5C15.1567 23.5 15.3031 23.4217 15.39 23.2913C16.4994 21.6273 18.1333 19.5723 19.272 17.4822C20.1824 15.8111 20.625 14.3858 20.625 13.125C20.625 10.0234 18.1016 7.5 15 7.5C11.8984 7.5 9.375 10.0234 9.375 13.125C9.375 14.3858 9.81759 15.8111 10.728 17.4822C11.8658 19.5707 13.5029 21.6307 14.61 23.2913ZM15 8.4375C17.5847 8.4375 19.6875 10.5403 19.6875 13.125C19.6875 14.2251 19.2823 15.5037 18.4487 17.0337C17.4672 18.8352 16.0667 20.6627 15 22.199C13.9335 20.6629 12.5328 18.8353 11.5513 17.0337C10.7177 15.5037 10.3125 14.2251 10.3125 13.125C10.3125 10.5403 12.4153 8.4375 15 8.4375Z" fill="#00993E"/>
<path d="M15 15.9375C16.5508 15.9375 17.8125 14.6758 17.8125 13.125C17.8125 11.5742 16.5508 10.3125 15 10.3125C13.4492 10.3125 12.1875 11.5742 12.1875 13.125C12.1875 14.6758 13.4492 15.9375 15 15.9375ZM15 11.25C16.0339 11.25 16.875 12.0911 16.875 13.125C16.875 14.1589 16.0339 15 15 15C13.9661 15 13.125 14.1589 13.125 13.125C13.125 12.0911 13.9661 11.25 15 11.25Z" fill="#00993E"/>
</g>
<circle opacity="0.3" cx="15" cy="15" r="14.5" stroke="#00993E"/>
<defs>
<clipPath id="clip0_108_12924">
<rect width="16" height="16" fill="white" transform="translate(7 7.5)"/>
</clipPath>
</defs>
</svg>
