<svg width="13" height="9" viewBox="0 0 13 9" fill="none" xmlns="http://www.w3.org/2000/svg">
<path d="M11.6216 8.83823H1.37787C1.04491 8.83785 0.725693 8.70541 0.490264 8.46995C0.254835 8.2345 0.12242 7.91528 0.12207 7.58231V1.25592C0.12242 0.922957 0.254835 0.60373 0.490264 0.368279C0.725693 0.132827 1.04491 0.000381181 1.37787 0H11.6216C11.9545 0.000381181 12.2737 0.132827 12.5092 0.368279C12.7446 0.60373 12.877 0.922957 12.8774 1.25592V7.58231C12.877 7.91528 12.7446 8.2345 12.5092 8.46995C12.2737 8.70541 11.9545 8.83785 11.6216 8.83823ZM1.37787 0.48C1.17216 0.480222 0.974946 0.562046 0.8295 0.707514C0.684054 0.852983 0.602261 1.05021 0.60207 1.25592V7.58231C0.602261 7.78802 0.684054 7.98525 0.8295 8.13072C0.974946 8.27619 1.17216 8.35801 1.37787 8.35823H11.6216C11.8273 8.35801 12.0245 8.27619 12.1699 8.13072C12.3154 7.98525 12.3972 7.78802 12.3974 7.58231V1.25592C12.3972 1.05021 12.3154 0.852983 12.1699 0.707514C12.0245 0.562046 11.8273 0.480222 11.6216 0.48H1.37787Z" fill="white"/>
<path d="M6.49952 5.83142C6.44102 5.83146 6.38452 5.81012 6.34064 5.77142L0.556641 0.665664L0.874281 0.305664L6.49952 5.27174L12.125 0.306264L12.4426 0.666264L6.65864 5.77202C6.61465 5.81062 6.55804 5.83175 6.49952 5.83142Z" fill="white"/>
<path d="M0.426758 8.08398L4.31238 3.65673L4.67334 3.97353L0.787717 8.40078L0.426758 8.08398Z" fill="white"/>
<path d="M8.33887 3.96875L8.69983 3.65195L12.5855 8.0793L12.2246 8.3961L8.33887 3.96875Z" fill="white"/>
</svg>
