<svg width="52" height="52" viewBox="0 0 52 52" fill="none" xmlns="http://www.w3.org/2000/svg">
<g clip-path="url(#clip0_108_8346)">
<path d="M36.8053 42.0003C37.0192 42.0003 37.1926 41.8269 37.1926 41.613V39.3116H41.6482C41.7829 39.3116 41.9076 39.2416 41.9782 39.127C42.0485 39.0124 42.0544 38.8694 41.9935 38.7491L40.0975 35.0106H40.7152C40.8506 35.0106 40.9761 34.94 41.0464 34.8242C41.1164 34.7084 41.1212 34.5645 41.0585 34.4442L39.3672 31.2002H39.7288C39.8695 31.2002 39.9988 31.124 40.0671 31.0011C40.1356 30.8782 40.1318 30.7278 40.0576 30.6085L37.1344 25.9074C37.0635 25.7937 36.9392 25.7249 36.8053 25.7249C36.6715 25.7249 36.5471 25.7937 36.4762 25.9074L33.5524 30.6085C33.4786 30.7278 33.4747 30.8782 33.543 31.0011C33.6115 31.124 33.7409 31.2002 33.8815 31.2002H34.2431L32.5515 34.4442C32.4892 34.5645 32.4936 34.7084 32.5637 34.8242C32.634 34.94 32.7595 35.0106 32.8948 35.0106H33.5131L31.6171 38.7491C31.5563 38.8694 31.5619 39.0124 31.6325 39.127C31.7031 39.2416 31.8278 39.3116 31.9625 39.3116H36.418V41.613C36.418 41.8269 36.5912 42.0003 36.8053 42.0003ZM36.8053 26.8451L39.0319 30.4259H34.5784L36.8053 26.8451ZM35.1164 31.2002H38.4937L40.0765 34.2363H33.5335L35.1164 31.2002ZM34.3814 35.0106H39.2293L41.0178 38.537H32.5929L34.3814 35.0106Z" fill="#00993E"/>
<path d="M42.0058 23.855L36.9526 13.6127C36.8879 13.4813 36.7543 13.3977 36.6078 13.3968C36.4796 13.3988 36.3269 13.478 36.2601 13.6089L32.1638 21.6775L26.9516 11.2151C26.8861 11.0842 26.7525 11.0012 26.6063 11.0006C26.4491 10.9917 26.3256 11.0821 26.2595 11.2124L20.491 22.5744L16.4127 14.5418C16.3463 14.411 16.2142 14.3161 16.0656 14.3297C15.9194 14.3306 15.7856 14.4139 15.7203 14.5451L11.1087 23.8544C11.0136 24.0459 11.0925 24.2784 11.2836 24.3732C11.3392 24.4007 11.3979 24.4134 11.4553 24.4134C11.5979 24.4134 11.7353 24.3345 11.803 24.198L12.946 21.8908L13.6768 23.188C13.7454 23.3097 13.8742 23.385 14.0142 23.385C14.1542 23.385 14.2827 23.31 14.3516 23.188L15.0727 21.9097L15.7926 23.188C15.8612 23.3097 15.99 23.385 16.13 23.385C16.2698 23.385 16.3983 23.31 16.4671 23.188L17.1882 21.9091L17.9102 23.1882C17.9791 23.31 18.1079 23.385 18.2476 23.385C18.387 23.385 18.5158 23.31 18.5847 23.1882L19.2952 21.9295L20.0568 23.4296L19.8429 23.8509C19.746 24.0414 19.8222 24.2748 20.0128 24.3714C20.2039 24.468 20.4361 24.3918 20.5333 24.2015L23.3773 18.6003L24.0875 19.8588C24.2252 20.102 24.6246 20.102 24.7623 19.8588L25.484 18.5797L26.2051 19.8588C26.3431 20.1029 26.7431 20.102 26.8798 19.8585L27.6001 18.5802L28.3209 19.8588C28.3892 19.9806 28.5183 20.0559 28.658 20.0559C28.798 20.0559 28.9268 19.9803 28.9954 19.8585L29.7369 18.543L32.5543 24.1989C32.6226 24.3348 32.7593 24.4134 32.9017 24.4134C32.9593 24.4134 33.0184 24.4004 33.074 24.3729C33.2654 24.2775 33.3434 24.045 33.248 23.8535L32.5939 22.5407L33.378 20.9965L34.0882 22.2553C34.2258 22.4984 34.6252 22.4984 34.7629 22.2553L35.4846 20.9761L36.2057 22.2553C36.3437 22.4993 36.744 22.4984 36.8805 22.255L37.6007 20.9767L38.3216 22.2553C38.3898 22.377 38.5189 22.4524 38.6589 22.4524C38.7987 22.4524 38.9278 22.377 38.996 22.2553L39.7198 20.9714L41.3115 24.1974C41.3789 24.3342 41.516 24.4134 41.6589 24.4134C41.7165 24.4134 41.7747 24.4007 41.83 24.3735C42.0217 24.2789 42.1006 24.0467 42.0058 23.855ZM18.2476 22.2101L17.5256 20.9306C17.3879 20.6872 16.9888 20.6878 16.8511 20.9306L16.13 22.2092L15.4101 20.9309C15.3415 20.8092 15.2124 20.7339 15.0727 20.7339C14.9327 20.7339 14.8042 20.8089 14.7353 20.9306L14.0142 22.2092L13.3616 21.0512L16.0718 15.5805L18.8739 21.0999L18.2476 22.2101ZM28.658 18.8798L27.9375 17.6015C27.8004 17.3578 27.3998 17.3581 27.2627 17.6015L26.5425 18.8798L25.8213 17.6015C25.7525 17.4798 25.624 17.4045 25.484 17.4045C25.3445 17.4045 25.2154 17.4798 25.1466 17.6012L24.4249 18.8807L23.7983 17.7705L26.6013 12.2496L29.3197 17.7058L28.658 18.8798ZM38.6589 21.2763L37.9381 19.998C37.801 19.7543 37.4004 19.7546 37.2634 19.998L36.5431 21.2763L35.822 19.998C35.7532 19.8763 35.6246 19.8009 35.4846 19.8009C35.3452 19.8009 35.2161 19.8763 35.1472 19.9977L34.4255 21.2772L33.7992 20.167L36.6004 14.6494L39.3047 20.1303L38.6589 21.2763Z" fill="#00993E"/>
<path d="M26.4381 26.5378C26.5921 26.5378 26.738 26.4451 26.798 26.2932C26.9002 26.0356 26.9519 25.7638 26.9519 25.4852V25.3907C26.9519 25.1768 26.7788 25.0034 26.5649 25.0034C26.3507 25.0034 26.1776 25.1768 26.1776 25.3907V25.4852C26.1776 25.6655 26.1442 25.8415 26.078 26.0078C25.9994 26.2067 26.0966 26.4318 26.2955 26.5107C26.3424 26.529 26.3903 26.5378 26.4381 26.5378Z" fill="#00993E"/>
<path d="M22.2884 26.912H20.7457C20.5315 26.912 20.3584 27.0854 20.3584 27.2993C20.3584 27.5129 20.5315 27.6863 20.7457 27.6863H22.2884C22.5026 27.6863 22.6757 27.5129 22.6757 27.2993C22.6757 27.0854 22.5026 26.912 22.2884 26.912Z" fill="#00993E"/>
<path d="M16.3853 30.427C16.2692 30.6066 16.3209 30.8465 16.5005 30.9623C16.8579 31.193 17.2724 31.3147 17.6993 31.3147H17.7005H18.1965C18.4107 31.3147 18.5838 31.1413 18.5838 30.9274C18.5838 30.7135 18.4107 30.5401 18.1965 30.5401H17.7002C17.7002 30.5401 17.6996 30.5401 17.6993 30.5401C17.4216 30.5401 17.1525 30.4613 16.9203 30.3115C16.7401 30.1957 16.5005 30.2477 16.3853 30.427Z" fill="#00993E"/>
<path d="M13.6678 34.6852C13.654 34.4719 13.4693 34.3098 13.2557 34.3248C12.625 34.3668 12.0415 34.6781 11.6542 35.1786C11.5234 35.3476 11.5544 35.591 11.7234 35.7219C11.794 35.7762 11.8773 35.8028 11.96 35.8028C12.0758 35.8028 12.1904 35.7511 12.2667 35.6524C12.5184 35.3272 12.8977 35.1248 13.3071 35.0974C13.5207 35.0832 13.6817 34.8988 13.6678 34.6852Z" fill="#00993E"/>
<path d="M19.3525 30.9275C19.3525 31.1413 19.5257 31.3148 19.7398 31.3148H21.2825C21.4964 31.3148 21.6698 31.1413 21.6698 30.9275C21.6698 30.7136 21.4964 30.5402 21.2825 30.5402H19.7398C19.5257 30.5402 19.3525 30.7136 19.3525 30.9275Z" fill="#00993E"/>
<path d="M19.2029 26.912L17.6546 26.9123C17.4407 26.9152 17.2871 27.091 17.2901 27.3049C17.2933 27.5167 17.483 27.6863 17.6945 27.6863H17.7001H19.2029C19.4168 27.6863 19.5899 27.5129 19.5899 27.2993C19.5899 27.0854 19.4168 26.912 19.2029 26.912Z" fill="#00993E"/>
<path d="M25.8658 38.3748C25.8271 38.5848 25.9663 38.7869 26.1763 38.8259C26.5802 38.9003 26.9332 39.1452 27.1447 39.4974C27.2177 39.6182 27.3456 39.685 27.4771 39.685C27.5453 39.685 27.6141 39.6672 27.6765 39.6297C27.8596 39.5195 27.919 39.2817 27.8088 39.0983C27.4824 38.5559 26.9388 38.1789 26.3169 38.0643C26.106 38.0244 25.9045 38.1644 25.8658 38.3748Z" fill="#00993E"/>
<path d="M11.9872 36.8146C11.955 36.603 11.7586 36.4562 11.5464 36.4896C11.3349 36.5215 11.1893 36.7185 11.2212 36.9304C11.3157 37.5543 11.6764 38.1091 12.2114 38.4521C12.2764 38.4937 12.3488 38.5132 12.4203 38.5132C12.5476 38.5132 12.6729 38.4503 12.7464 38.3351C12.862 38.1549 12.8097 37.9156 12.6298 37.8001C12.282 37.5773 12.0481 37.2181 11.9872 36.8146Z" fill="#00993E"/>
<path d="M16.7538 34.707C16.7538 34.4931 16.5807 34.3197 16.3665 34.3197H14.8238C14.6096 34.3197 14.4365 34.4931 14.4365 34.707C14.4365 34.9209 14.6096 35.0943 14.8238 35.0943H16.3665C16.5807 35.0943 16.7538 34.9209 16.7538 34.707Z" fill="#00993E"/>
<path d="M13.9068 38.8016H15.4495C15.6637 38.8016 15.8368 38.6282 15.8368 38.4146C15.8368 38.2008 15.6637 38.0273 15.4495 38.0273H13.9068C13.6926 38.0273 13.5195 38.2008 13.5195 38.4146C13.5195 38.6282 13.6926 38.8016 13.9068 38.8016Z" fill="#00993E"/>
<path d="M20.0784 38.8016H21.6211C21.835 38.8016 22.0081 38.6282 22.0081 38.4146C22.0081 38.2008 21.835 38.0273 21.6211 38.0273H20.0784C19.8645 38.0273 19.6914 38.2008 19.6914 38.4146C19.6914 38.6282 19.8645 38.8016 20.0784 38.8016Z" fill="#00993E"/>
<path d="M22.7437 34.0544C22.6093 33.8884 22.3656 33.8633 22.1992 33.998C21.9443 34.2057 21.6217 34.3197 21.2911 34.3197H20.9954C20.7815 34.3197 20.6084 34.4931 20.6084 34.707C20.6084 34.9209 20.7815 35.0943 20.9954 35.0943H21.2911C21.799 35.0943 22.2953 34.9182 22.6876 34.5989C22.8536 34.4639 22.8787 34.2202 22.7437 34.0544Z" fill="#00993E"/>
<path d="M23.1637 38.8016H24.7064C24.9205 38.8016 25.0937 38.6282 25.0937 38.4146C25.0937 38.2008 24.9205 38.0273 24.7064 38.0273H23.1637C22.9495 38.0273 22.7764 38.2008 22.7764 38.4146C22.7764 38.6282 22.9495 38.8016 23.1637 38.8016Z" fill="#00993E"/>
<path d="M23.0999 33.3478H23.1129C23.3206 33.3478 23.4928 33.1829 23.4996 32.9738L23.5011 32.7416C23.5011 32.1998 23.3014 31.6789 22.9392 31.2751C22.7962 31.1153 22.551 31.1029 22.3923 31.245C22.2331 31.3879 22.2198 31.6325 22.3628 31.7918C22.5974 32.0535 22.7265 32.3909 22.7265 32.7416L22.7259 32.9478C22.7185 33.1614 22.8857 33.3407 23.0999 33.3478Z" fill="#00993E"/>
<path d="M25.7265 27.0609C25.6541 26.8594 25.4313 26.7543 25.231 26.8275C25.0745 26.8834 24.9102 26.912 24.7424 26.912H23.8313C23.6175 26.912 23.4443 27.0854 23.4443 27.2993C23.4443 27.5129 23.6175 27.6863 23.8313 27.6863H24.7424C24.9994 27.6863 25.252 27.6426 25.4925 27.556C25.6937 27.484 25.7986 27.2621 25.7265 27.0609Z" fill="#00993E"/>
<path d="M16.0134 27.6913C15.6761 28.0878 15.4902 28.5926 15.4902 29.1132C15.4902 29.2234 15.4988 29.3312 15.5142 29.437C15.5425 29.6296 15.7077 29.7675 15.8967 29.7675C15.9153 29.7675 15.9345 29.7664 15.9535 29.7634C16.1653 29.7324 16.3118 29.5356 16.2802 29.3238C16.2701 29.2553 16.2648 29.1847 16.2648 29.1132C16.2648 28.7767 16.3851 28.4497 16.6034 28.1932C16.7416 28.0302 16.7218 27.7858 16.5591 27.6473C16.3972 27.5093 16.1517 27.5282 16.0134 27.6913Z" fill="#00993E"/>
<path d="M16.9928 38.8016H18.5355C18.7496 38.8016 18.9228 38.6282 18.9228 38.4146C18.9228 38.2008 18.7496 38.0273 18.5355 38.0273H16.9928C16.7786 38.0273 16.6055 38.2008 16.6055 38.4146C16.6055 38.6282 16.7786 38.8016 16.9928 38.8016Z" fill="#00993E"/>
<path d="M19.8398 34.707C19.8398 34.4931 19.6666 34.3197 19.4525 34.3197H17.9098C17.6956 34.3197 17.5225 34.4931 17.5225 34.707C17.5225 34.9209 17.6956 35.0943 17.9098 35.0943H19.4525C19.6666 35.0943 19.8398 34.9209 19.8398 34.707Z" fill="#00993E"/>
<path d="M27.735 41.995C27.9488 41.995 28.1223 41.8215 28.1223 41.6077V40.8331C28.1223 40.6195 27.9488 40.446 27.735 40.446C27.5208 40.446 27.3477 40.6195 27.3477 40.8331V41.6077C27.3477 41.8215 27.5208 41.995 27.735 41.995Z" fill="#00993E"/>
</g>
<circle opacity="0.3" cx="26" cy="26" r="25.5" stroke="#00993E"/>
<defs>
<clipPath id="clip0_108_8346">
<rect width="31" height="31" fill="white" transform="translate(11 11)"/>
</clipPath>
</defs>
</svg>
