<svg width="52" height="52" viewBox="0 0 52 52" fill="none" xmlns="http://www.w3.org/2000/svg">
<path d="M39.3958 30.0017V27.5485C39.3958 26.0157 38.6245 24.6601 37.4502 23.8478H38.2504C39.0126 23.8478 39.6328 23.2276 39.6328 22.4621C39.6328 21.6998 39.0126 21.0796 38.2504 21.0796H36.2548L35.3793 17.7756C35.3781 17.771 35.3766 17.7666 35.3754 17.7621C35.375 17.7606 35.3746 17.7592 35.3742 17.7578C35.0162 16.4396 33.8162 15.5205 32.4488 15.5205H23.7638C23.2421 15.5205 23.2421 16.3276 23.7638 16.3276H32.4488C33.2707 16.3276 34.0103 16.7801 34.3953 17.4754H18.5485C18.9335 16.7801 19.673 16.3276 20.495 16.3276H21.6475C22.1692 16.3276 22.1692 15.5205 21.6475 15.5205H20.495C19.1277 15.5205 17.9277 16.4395 17.5697 17.7575C17.5692 17.7592 17.5687 17.7609 17.5682 17.7627C17.567 17.767 17.5656 17.7712 17.5645 17.7756L16.6889 21.0796H14.7113C13.9491 21.0796 13.3289 21.6998 13.3289 22.4652C13.3289 23.2275 13.9491 23.8477 14.7113 23.8477H15.4936C14.3193 24.6601 13.548 26.0156 13.548 27.5485V30.0017C13.0613 30.1191 12.6982 30.5571 12.6982 31.0793V32.2572C12.6982 32.8691 13.196 33.3668 13.8078 33.3668H15.0472V34.7992C15.0472 35.3782 15.5182 35.8492 16.0973 35.8492H19.1546C19.7337 35.8492 20.2047 35.3782 20.2047 34.7992V33.3668H32.7391V34.7992C32.7391 35.3782 33.2102 35.8492 33.7892 35.8492H36.8466C37.4256 35.8492 37.8966 35.3782 37.8966 34.7992V33.3668H39.136C39.7479 33.3668 40.2456 32.8691 40.2456 32.2572V31.0793C40.2455 30.5571 39.8825 30.1191 39.3958 30.0017ZM18.2651 18.2824H34.6787L35.9772 23.1824C35.6312 23.0968 35.2699 23.0506 34.8979 23.0506H18.0459C17.6739 23.0506 17.3126 23.0968 16.9666 23.1824L18.2651 18.2824ZM38.2504 21.8866C38.5676 21.8866 38.8258 22.1448 38.8258 22.4652C38.8258 22.7825 38.5676 23.0407 38.2504 23.0407H36.7745L36.4687 21.8866H38.2504V21.8866ZM14.1359 22.4621C14.1359 22.1448 14.394 21.8866 14.7113 21.8866H16.475L16.1692 23.0407H14.7113C14.394 23.0407 14.1359 22.7825 14.1359 22.4621ZM19.3977 34.7992C19.3977 34.9331 19.2887 35.0422 19.1546 35.0422H16.0972C15.9632 35.0422 15.8542 34.9332 15.8542 34.7992V33.3668H19.3976V34.7992H19.3977ZM37.0895 34.7992C37.0895 34.9331 36.9805 35.0422 36.8465 35.0422H33.7891C33.6551 35.0422 33.5461 34.9332 33.5461 34.7992V33.3668H37.0895V34.7992ZM39.4385 32.2573C39.4385 32.4241 39.3028 32.5598 39.136 32.5598H13.8078C13.641 32.5598 13.5053 32.4241 13.5053 32.2573V31.0794C13.5053 30.9125 13.641 30.7768 13.8078 30.7768H33.813C34.3348 30.7768 34.3348 29.9698 33.813 29.9698H14.3551V27.5485C14.3551 25.5133 16.0108 23.8577 18.0459 23.8577H34.8979C36.933 23.8577 38.5887 25.5133 38.5887 27.5485V29.9698H35.9419C35.4202 29.9698 35.4202 30.7768 35.9419 30.7768H39.136C39.3028 30.7768 39.4385 30.9125 39.4385 31.0794V32.2573Z" fill="#00993E"/>
<path d="M18.1236 25.248C17.028 25.248 16.1367 26.1438 16.1367 27.2447C16.1367 28.3457 17.028 29.2414 18.1236 29.2414C19.2192 29.2414 20.1105 28.3457 20.1105 27.2447C20.1105 26.1438 19.2192 25.248 18.1236 25.248ZM18.1236 28.4344C17.4731 28.4344 16.9438 27.9007 16.9438 27.2447C16.9438 26.5888 17.473 26.0551 18.1236 26.0551C18.7742 26.0551 19.3035 26.5888 19.3035 27.2447C19.3035 27.9007 18.7742 28.4344 18.1236 28.4344Z" fill="#00993E"/>
<path d="M36.8068 27.2447C36.8068 26.1438 35.9155 25.248 34.8199 25.248C33.7243 25.248 32.833 26.1438 32.833 27.2447C32.833 28.3457 33.7243 29.2414 34.8199 29.2414C35.9155 29.2414 36.8068 28.3457 36.8068 27.2447ZM34.8199 28.4344C34.1693 28.4344 33.6401 27.9007 33.6401 27.2447C33.6401 26.5888 34.1693 26.0551 34.8199 26.0551C35.4704 26.0551 35.9998 26.5888 35.9998 27.2447C35.9998 27.9007 35.4704 28.4344 34.8199 28.4344Z" fill="#00993E"/>
<path d="M30.8518 26.1306H22.091C21.8682 26.1306 21.6875 26.3113 21.6875 26.5341V28.368C21.6875 28.5908 21.8682 28.7715 22.091 28.7715H30.8518C31.0746 28.7715 31.2553 28.5908 31.2553 28.368V26.5341C31.2553 26.3113 31.0747 26.1306 30.8518 26.1306ZM30.4483 27.9645H22.4945V26.9377H30.4482V27.9645H30.4483Z" fill="#00993E"/>
<circle opacity="0.3" cx="26" cy="26" r="25.5" stroke="#00993E"/>
</svg>
