<svg width="52" height="52" viewBox="0 0 52 52" fill="none" xmlns="http://www.w3.org/2000/svg">
<path d="M27.7394 37.2799C28.3101 37.2799 28.7727 36.8173 28.7727 36.2466C28.7727 35.6759 28.3101 35.2133 27.7394 35.2133C27.1687 35.2133 26.7061 35.6759 26.7061 36.2466C26.7061 36.8173 27.1687 37.2799 27.7394 37.2799Z" fill="#00993E"/>
<path d="M23.6063 18.6799C23.9487 18.6799 24.2263 18.4024 24.2263 18.0599C24.2263 17.7175 23.9487 17.4399 23.6063 17.4399C23.2639 17.4399 22.9863 17.7175 22.9863 18.0599C22.9863 18.4024 23.2639 18.6799 23.6063 18.6799Z" fill="#00993E"/>
<path d="M25.2597 18.6799C25.6021 18.6799 25.8797 18.4024 25.8797 18.0599C25.8797 17.7175 25.6021 17.4399 25.2597 17.4399C24.9172 17.4399 24.6396 17.7175 24.6396 18.0599C24.6396 18.4024 24.9172 18.6799 25.2597 18.6799Z" fill="#00993E"/>
<path d="M26.913 18.6799C27.2554 18.6799 27.533 18.4024 27.533 18.0599C27.533 17.7175 27.2554 17.4399 26.913 17.4399C26.5706 17.4399 26.293 17.7175 26.293 18.0599C26.293 18.4024 26.5706 18.6799 26.913 18.6799Z" fill="#00993E"/>
<path d="M20.0935 27.3599H17.6135C17.3853 27.3599 17.2002 27.5447 17.2002 27.7732C17.2002 28.0017 17.3853 28.1865 17.6135 28.1865H20.0935C20.3218 28.1865 20.5069 28.0017 20.5069 27.7732C20.5069 27.5447 20.3218 27.3599 20.0935 27.3599Z" fill="#00993E"/>
<path d="M22.5733 27.3599H21.3333C21.105 27.3599 20.9199 27.5447 20.9199 27.7732C20.9199 28.0017 21.105 28.1865 21.3333 28.1865H22.5733C22.8015 28.1865 22.9866 28.0017 22.9866 27.7732C22.9866 27.5447 22.8015 27.3599 22.5733 27.3599Z" fill="#00993E"/>
<path d="M38.2802 16.2C38.2802 14.1486 36.6116 12.48 34.5602 12.48C32.7933 12.48 31.3133 13.7192 30.936 15.3733H22.6242C21.6847 15.3733 20.9202 16.1378 20.9202 17.0775V21.9866H16.4508C15.9524 21.9866 15.5469 22.3919 15.5469 22.8904V28.9362C15.5469 29.4347 15.9524 29.84 16.4508 29.84H27.4565C27.9549 29.84 28.3602 29.4347 28.3602 28.9362V22.8904C28.3602 22.3919 27.9549 21.9866 27.4565 21.9866H21.7469V17.0775C21.7469 16.5935 22.1405 16.2 22.6242 16.2H30.8402C30.8402 18.1114 32.2896 19.6892 34.1469 19.8956V33.9708H21.7469V31.1054C21.7469 30.8769 21.5618 30.6921 21.3335 30.6921C21.1053 30.6921 20.9202 30.8769 20.9202 31.1054V34.3842V36.8157C20.9202 37.7554 21.6847 38.5199 22.6242 38.5199H33.2694C34.2091 38.5199 34.9735 37.7554 34.9735 36.8157V34.3842V19.8956C36.8309 19.6892 38.2802 18.1114 38.2802 16.2ZM16.3735 24.88H27.5335V25.7066H16.3735V24.88ZM27.4565 29.0133H16.4508C16.4083 29.0133 16.3735 28.9786 16.3735 28.9362V26.5333H27.5335V28.9362C27.5335 28.9786 27.4988 29.0133 27.4565 29.0133ZM27.5335 22.8904V24.0533H16.3735V22.8904C16.3735 22.848 16.4083 22.8133 16.4508 22.8133H27.4565C27.4988 22.8133 27.5335 22.848 27.5335 22.8904ZM34.1469 36.8158C34.1469 37.2998 33.7533 37.6933 33.2694 37.6933H22.6242C22.1404 37.6933 21.7469 37.2997 21.7469 36.8158V34.7976H34.1469V36.8158ZM34.5602 19.0933C32.965 19.0933 31.6669 17.7952 31.6669 16.2C31.6669 14.6047 32.965 13.3066 34.5602 13.3066C36.1555 13.3066 37.4535 14.6047 37.4535 16.2C37.4535 17.7952 36.1555 19.0933 34.5602 19.0933Z" fill="#00993E"/>
<path d="M35.4556 14.7307L34.082 16.7913L33.6118 16.321C33.4504 16.1596 33.1887 16.1596 33.0273 16.321C32.8659 16.4824 32.8659 16.7441 33.0273 16.9055L33.854 17.7322C33.9319 17.8102 34.0372 17.8534 34.1462 17.8534C34.1595 17.8534 34.1733 17.8525 34.187 17.8513C34.3101 17.8392 34.4216 17.7721 34.4902 17.6692L36.1435 15.1892C36.2703 14.9991 36.219 14.7428 36.0289 14.616C35.8379 14.4893 35.582 14.5406 35.4556 14.7307Z" fill="#00993E"/>
<path d="M19.2668 18.2666C19.4951 18.2666 19.6802 18.0818 19.6802 17.8533V15.7866C19.6802 15.5582 19.4951 15.3733 19.2668 15.3733C19.0386 15.3733 18.8535 15.5582 18.8535 15.7866V17.8533C18.8535 18.0818 19.0386 18.2666 19.2668 18.2666Z" fill="#00993E"/>
<path d="M17.6131 19.9199C17.6131 19.6915 17.428 19.5066 17.1997 19.5066H15.1331C14.9048 19.5066 14.7197 19.6915 14.7197 19.9199C14.7197 20.1484 14.9048 20.3333 15.1331 20.3333H17.1997C17.428 20.3333 17.6131 20.1484 17.6131 19.9199Z" fill="#00993E"/>
<path d="M17.3482 18.5273C17.4289 18.608 17.5347 18.6484 17.6404 18.6484C17.7461 18.6484 17.8519 18.608 17.9326 18.5273C18.094 18.3659 18.094 18.1043 17.9326 17.9429L16.4633 16.4736C16.3019 16.3122 16.0403 16.3122 15.8789 16.4736C15.7175 16.635 15.7175 16.8966 15.8789 17.058L17.3482 18.5273Z" fill="#00993E"/>
<circle opacity="0.3" cx="26" cy="26" r="25.5" stroke="#00993E"/>
</svg>
