<svg width="52" height="52" viewBox="0 0 52 52" fill="none" xmlns="http://www.w3.org/2000/svg">
<g clip-path="url(#clip0_108_8334)">
<path d="M29.1044 21.0287H18.0928C17.8419 21.0287 17.6387 21.2319 17.6387 21.4828C17.6387 21.7336 17.8419 21.9369 18.0928 21.9369H29.1044C29.3553 21.9369 29.5585 21.7336 29.5585 21.4828C29.5585 21.2319 29.3553 21.0287 29.1044 21.0287Z" fill="#00993E"/>
<path d="M16.8564 31.5751C16.6056 31.5751 16.4023 31.7783 16.4023 32.0292C16.4023 32.28 16.6056 32.4833 16.8564 32.4833H19.2466C19.4974 32.4833 19.7007 32.28 19.7007 32.0292C19.7007 31.7783 19.4974 31.5751 19.2466 31.5751H16.8564Z" fill="#00993E"/>
<path d="M42.5886 30.2188C42.46 30.0035 42.1813 29.9334 41.9659 30.0618C41.7506 30.1904 41.6803 30.4692 41.8088 30.6845C42.3741 31.6309 42.6729 32.7166 42.6729 33.8245C42.6729 37.2067 39.9212 39.9584 36.539 39.9584C33.1567 39.9584 30.405 37.2068 30.405 33.8245C30.405 30.4423 33.1567 27.6906 36.539 27.6906C38.1302 27.6906 39.6386 28.2974 40.7863 29.3994C40.9672 29.5731 41.2547 29.5673 41.4283 29.3863C41.602 29.2054 41.5961 28.918 41.4152 28.7443C40.0976 27.4792 38.3658 26.7824 36.5389 26.7824C35.5092 26.7824 34.5303 27.0046 33.6479 27.4035V26.2811C34.2418 25.962 34.6163 25.3439 34.6163 24.6587V20.3521C34.6163 19.336 33.7897 18.5093 32.7734 18.5093H29.6977V16.823C29.6977 15.0555 28.2597 13.6176 26.4921 13.6176H20.7054C18.9378 13.6176 17.4998 15.0555 17.4998 16.823V18.5093H14.4081C14.4028 18.5093 14.3976 18.5094 14.3924 18.5095C13.3907 18.5265 12.5811 19.3465 12.5811 20.3521V24.6587C12.5811 25.3438 12.9555 25.9619 13.5495 26.2811V32.2186C13.5495 33.7318 14.7806 34.9629 16.2938 34.9629H19.6603C19.9111 34.9629 20.1144 34.7596 20.1144 34.5088C20.1144 34.2579 19.9111 34.0547 19.6603 34.0547H16.2938C15.2813 34.0547 14.4577 33.231 14.4577 32.2186V26.6667L15.8646 27.2482C16.0889 27.3409 16.3258 27.388 16.5685 27.388H21.8995V27.9445C21.8995 28.5872 22.4223 29.1101 23.065 29.1101H24.1324C24.7751 29.1101 25.298 28.5872 25.298 27.9445V27.388H30.6289C30.8717 27.388 31.1085 27.341 31.3328 27.2482L32.7397 26.6667V27.8975C30.7905 29.1513 29.4968 31.3397 29.4968 33.8246C29.4968 33.9015 29.4981 33.9783 29.5005 34.0547H21.4161C21.1653 34.0547 20.962 34.2579 20.962 34.5088C20.962 34.7596 21.1653 34.9629 21.4161 34.9629H29.5889C30.1346 38.3066 33.0434 40.8667 36.539 40.8667C40.422 40.8667 43.5811 37.7076 43.5811 33.8246C43.5811 32.5528 43.2379 31.306 42.5886 30.2188ZM18.408 16.8231C18.408 15.5563 19.4385 14.5258 20.7053 14.5258H26.4921C27.7588 14.5258 28.7894 15.5564 28.7894 16.8231V18.5093H27.8799V16.8231C27.8799 16.0578 27.2574 15.4352 26.4921 15.4352H23.7662C23.5153 15.4352 23.3121 15.6385 23.3121 15.8893C23.3121 16.1402 23.5153 16.3434 23.7662 16.3434H26.4921C26.7565 16.3434 26.9717 16.5586 26.9717 16.8231V18.5093H20.2257V16.8231C20.2257 16.5586 20.4409 16.3434 20.7054 16.3434H22.0104C22.2613 16.3434 22.4645 16.1402 22.4645 15.8893C22.4645 15.6385 22.2613 15.4352 22.0104 15.4352H20.7054C19.94 15.4352 19.3175 16.0578 19.3175 16.8231V18.5093H18.408V16.8231ZM24.3898 27.9445C24.3898 28.0864 24.2743 28.2019 24.1324 28.2019H23.065C22.9231 28.2019 22.8077 28.0864 22.8077 27.9445V25.5704C22.8077 25.4285 22.9231 25.313 23.065 25.313H24.1324C24.2743 25.313 24.3898 25.4285 24.3898 25.5704V27.9445ZM30.9859 26.4088C30.8721 26.4559 30.7521 26.4797 30.6289 26.4797H25.298V25.5704C25.298 24.9277 24.7751 24.4048 24.1324 24.4048H23.065C22.4223 24.4048 21.8995 24.9277 21.8995 25.5704V26.4798H16.5685C16.4454 26.4798 16.3253 26.4559 16.2115 26.4089L14.0669 25.5225C13.716 25.3774 13.4893 25.0384 13.4893 24.6587V20.3521C13.4893 19.8367 13.9085 19.4175 14.4239 19.4175H32.7736C33.2889 19.4175 33.7082 19.8367 33.7082 20.3521V24.6587C33.7082 25.0384 33.4815 25.3774 33.1305 25.5225L30.9859 26.4088Z" fill="#00993E"/>
<path d="M34.9229 32.9453C34.9229 32.6918 34.9638 32.4545 35.0458 32.2334C35.1333 32.0069 35.259 31.8128 35.423 31.651C35.587 31.4838 35.792 31.3544 36.0379 31.2627C36.2839 31.1656 36.5681 31.1171 36.8906 31.1171C37.1967 31.1171 37.47 31.1656 37.7105 31.2627C37.9565 31.3598 38.1642 31.4973 38.3337 31.6752C38.5031 31.8532 38.6316 32.0689 38.719 32.3224C38.8119 32.5759 38.8584 32.8617 38.8584 33.1799C38.8584 33.7893 38.7791 34.3232 38.6206 34.7817C38.4676 35.2401 38.2517 35.6284 37.9729 35.9466C37.6996 36.2594 37.3771 36.502 37.0054 36.6746C36.6392 36.8472 36.2429 36.9524 35.8165 36.9901L35.6526 36.3834C35.9969 36.3456 36.3058 36.2647 36.5791 36.1407C36.8524 36.0113 37.0874 35.8495 37.2842 35.6553C37.481 35.4558 37.6422 35.232 37.7679 34.9839C37.8936 34.7304 37.9811 34.4581 38.0303 34.1668C37.9483 34.2531 37.8636 34.3259 37.7761 34.3853C37.6941 34.4446 37.6012 34.4931 37.4974 34.5309C37.399 34.5632 37.2869 34.5875 37.1612 34.6037C37.0409 34.6145 36.9016 34.6199 36.743 34.6199C36.5025 34.6199 36.2702 34.5821 36.0461 34.5066C35.8275 34.4311 35.6334 34.3232 35.464 34.183C35.3 34.0428 35.1688 33.8702 35.0704 33.6653C34.972 33.455 34.9229 33.215 34.9229 32.9453ZM35.71 32.8887C35.71 33.25 35.822 33.5251 36.0461 33.7138C36.2702 33.8972 36.5599 33.9889 36.9152 33.9889C37.2049 33.9889 37.4482 33.943 37.6449 33.8513C37.8472 33.7597 37.9948 33.6491 38.0877 33.5197C38.0986 33.455 38.1041 33.3983 38.1041 33.3498C38.1041 33.3013 38.1041 33.2473 38.1041 33.188C38.1041 33.01 38.0795 32.8348 38.0303 32.6622C37.9811 32.4896 37.9046 32.3359 37.8007 32.2011C37.7023 32.0662 37.5739 31.9584 37.4154 31.8775C37.2568 31.7912 37.0683 31.7481 36.8496 31.7481C36.4889 31.7481 36.2074 31.8505 36.0051 32.0555C35.8083 32.255 35.71 32.5327 35.71 32.8887Z" fill="#00993E"/>
</g>
<circle opacity="0.3" cx="26" cy="26" r="25.5" stroke="#00993E"/>
<defs>
<clipPath id="clip0_108_8334">
<rect width="31" height="31" fill="white" transform="translate(12.5811 11.7421)"/>
</clipPath>
</defs>
</svg>
