<svg width="25" height="21" viewBox="0 0 25 21" fill="none" xmlns="http://www.w3.org/2000/svg">
<path d="M22.929 1.94187C20.2103 -0.645239 15.7851 -0.645239 13.0655 1.94128L12.5 2.47839L11.9352 1.94153C9.21528 -0.645337 4.79072 -0.645044 2.07085 1.94153C0.7354 3.21174 0 4.89656 0 6.68513C0 8.47429 0.7354 10.1588 2.07104 11.4296L11.8962 20.7574C12.0652 20.9182 12.2828 20.9983 12.5 20.9983C12.7172 20.9983 12.9345 20.9178 13.1038 20.7571L22.929 11.4296C24.2643 10.1591 25 8.47434 25 6.68543C25 4.89656 24.2643 3.21204 22.929 1.94187ZM21.7202 10.1576L12.5 18.9115L3.28013 10.1579C2.29619 9.22229 1.75439 7.98894 1.75439 6.68543C1.75439 5.38191 2.29619 4.14856 3.28013 3.21292C4.30645 2.2363 5.65439 1.74832 7.00264 1.74832C8.35117 1.74832 9.69971 2.23689 10.726 3.2135L11.8956 4.32434C12.2342 4.64626 12.7655 4.64626 13.1041 4.32434L14.274 3.21292C16.3269 1.25999 19.6669 1.25999 21.7199 3.21292C22.7035 4.14861 23.2456 5.38191 23.2456 6.68543C23.2456 7.98894 22.7035 9.222 21.7202 10.1576Z" fill="white"/>
</svg>
