<svg width="18" height="18" viewBox="0 0 18 18" fill="none" xmlns="http://www.w3.org/2000/svg">
<path d="M3.78291 11.8828C5.50898 13.9461 7.58679 15.5707 9.95832 16.7202C10.8612 17.1481 12.0688 17.6557 13.4141 17.7427C13.4975 17.7464 13.5773 17.75 13.6607 17.75C14.5636 17.75 15.2888 17.4381 15.8799 16.7963C15.8835 16.7927 15.8908 16.7854 15.8944 16.7782C16.1047 16.5243 16.344 16.2959 16.5943 16.0529C16.7647 15.8898 16.9387 15.7193 17.1055 15.5453C17.8779 14.7403 17.8779 13.7177 17.0983 12.938L14.919 10.7587C14.5491 10.3743 14.1067 10.1713 13.6425 10.1713C13.1784 10.1713 12.7324 10.3743 12.3516 10.7551L11.0534 12.0533C10.9338 11.9844 10.8105 11.9227 10.6944 11.8647C10.5494 11.7922 10.4152 11.7233 10.2956 11.6471C9.11341 10.8965 8.04006 9.91743 7.01385 8.65914C6.4953 8.0028 6.14719 7.45162 5.90423 6.88956C6.24509 6.58133 6.5642 6.2586 6.87243 5.94312C6.98121 5.83071 7.09362 5.7183 7.20604 5.60588C7.59766 5.21426 7.80798 4.76098 7.80798 4.30046C7.80798 3.83993 7.60129 3.38666 7.20604 2.99503L6.12543 1.91442C5.99851 1.78751 5.87885 1.66421 5.75556 1.5373C5.51623 1.29072 5.26602 1.03688 5.01944 0.808433C4.64594 0.442188 4.20717 0.25 3.74302 0.25C3.28249 0.25 2.8401 0.442188 2.45209 0.81206L1.0959 2.16826C0.602734 2.66142 0.323517 3.25974 0.265498 3.95234C0.1966 4.819 0.356153 5.74005 0.769539 6.85329C1.40412 8.57574 2.36144 10.1749 3.78291 11.8828ZM1.15029 4.02849C1.1938 3.54621 1.37874 3.1437 1.72685 2.79559L3.0758 1.44664C3.28612 1.24358 3.51819 1.13842 3.74302 1.13842C3.96422 1.13842 4.18904 1.24358 4.39573 1.4539C4.63869 1.67872 4.86714 1.91442 5.11372 2.16463C5.23701 2.29155 5.36393 2.41846 5.49084 2.54901L6.57145 3.62961C6.79628 3.85443 6.91231 4.08288 6.91231 4.30771C6.91231 4.53253 6.79628 4.76098 6.57145 4.98581C6.45904 5.09822 6.34663 5.21426 6.23421 5.32667C5.89698 5.66753 5.5815 5.99026 5.23339 6.29849C5.22613 6.30574 5.22251 6.30937 5.21525 6.31662C4.91428 6.61759 4.96142 6.90406 5.03394 7.12163C5.03757 7.13251 5.0412 7.13976 5.04482 7.15064C5.32404 7.82149 5.71204 8.4597 6.31762 9.2212C7.40548 10.5629 8.55135 11.6036 9.81327 12.405C9.9692 12.5065 10.136 12.5863 10.2919 12.6661C10.437 12.7386 10.5711 12.8075 10.6908 12.8836C10.7053 12.8909 10.7162 12.8982 10.7307 12.9054C10.8504 12.9671 10.9664 12.9961 11.0824 12.9961C11.3725 12.9961 11.5611 12.8111 11.6227 12.7495L12.9789 11.3933C13.1893 11.183 13.4177 11.0706 13.6425 11.0706C13.9181 11.0706 14.1429 11.241 14.2844 11.3933L16.471 13.5763C16.9061 14.0114 16.9025 14.4828 16.4601 14.9433C16.3078 15.1065 16.1482 15.2624 15.9778 15.4256C15.724 15.6722 15.4593 15.926 15.2199 16.2125C14.8029 16.6621 14.3061 16.8725 13.6643 16.8725C13.6026 16.8725 13.5374 16.8688 13.4757 16.8652C12.2863 16.7891 11.1803 16.3249 10.3499 15.9297C8.09445 14.8382 6.11455 13.2898 4.47188 11.3244C3.11931 9.69623 2.20914 8.18048 1.60719 6.55595C1.23369 5.55874 1.09227 4.75736 1.15029 4.02849Z" fill="#00993E"/>
</svg>
