<svg width="37" height="37" viewBox="0 0 37 37" fill="none" xmlns="http://www.w3.org/2000/svg">
<path d="M19.7372 26.5262C20.1433 26.5262 20.4725 26.197 20.4725 25.7909C20.4725 25.3848 20.1433 25.0557 19.7372 25.0557C19.3311 25.0557 19.002 25.3848 19.002 25.7909C19.002 26.197 19.3311 26.5262 19.7372 26.5262Z" fill="#00993E"/>
<path d="M16.7966 13.2915C17.0403 13.2915 17.2378 13.094 17.2378 12.8503C17.2378 12.6067 17.0403 12.4092 16.7966 12.4092C16.553 12.4092 16.3555 12.6067 16.3555 12.8503C16.3555 13.094 16.553 13.2915 16.7966 13.2915Z" fill="#00993E"/>
<path d="M17.9724 13.2915C18.216 13.2915 18.4136 13.094 18.4136 12.8503C18.4136 12.6067 18.216 12.4092 17.9724 12.4092C17.7288 12.4092 17.5312 12.6067 17.5312 12.8503C17.5312 13.094 17.7288 13.2915 17.9724 13.2915Z" fill="#00993E"/>
<path d="M19.1482 13.2915C19.3918 13.2915 19.5893 13.094 19.5893 12.8503C19.5893 12.6067 19.3918 12.4092 19.1482 12.4092C18.9045 12.4092 18.707 12.6067 18.707 12.8503C18.707 13.094 18.9045 13.2915 19.1482 13.2915Z" fill="#00993E"/>
<path d="M14.295 19.4677H12.5304C12.368 19.4677 12.2363 19.5992 12.2363 19.7618C12.2363 19.9243 12.368 20.0559 12.5304 20.0559H14.295C14.4575 20.0559 14.5891 19.9243 14.5891 19.7618C14.5891 19.5992 14.4575 19.4677 14.295 19.4677Z" fill="#00993E"/>
<path d="M16.0612 19.4677H15.1789C15.0165 19.4677 14.8848 19.5992 14.8848 19.7618C14.8848 19.9243 15.0165 20.0559 15.1789 20.0559H16.0612C16.2236 20.0559 16.3553 19.9243 16.3553 19.7618C16.3553 19.5992 16.2236 19.4677 16.0612 19.4677Z" fill="#00993E"/>
<path d="M27.2362 11.5269C27.2362 10.0673 26.0489 8.88 24.5893 8.88C23.3321 8.88 22.2789 9.76172 22.0105 10.9387H16.0963C15.4278 10.9387 14.8839 11.4827 14.8839 12.1513V15.6444H11.7037C11.3491 15.6444 11.0605 15.9327 11.0605 16.2874V20.5893C11.0605 20.9439 11.3491 21.2323 11.7037 21.2323H19.5347C19.8894 21.2323 20.1777 20.9439 20.1777 20.5893V16.2874C20.1777 15.9327 19.8894 15.6444 19.5347 15.6444H15.4721V12.1513C15.4721 11.8069 15.7521 11.5269 16.0963 11.5269H21.9423C21.9423 12.887 22.9736 14.0097 24.2952 14.1565V24.1716H15.4721V22.1327C15.4721 21.9701 15.3404 21.8386 15.178 21.8386C15.0156 21.8386 14.8839 21.9701 14.8839 22.1327V24.4657V26.1958C14.8839 26.8644 15.4278 27.4084 16.0963 27.4084H23.6708C24.3394 27.4084 24.8834 26.8644 24.8834 26.1958V24.4657V14.1565C26.2049 14.0097 27.2362 12.887 27.2362 11.5269ZM11.6488 17.7031H19.5895V18.2913H11.6488V17.7031ZM19.5347 20.6441H11.7037C11.6735 20.6441 11.6488 20.6194 11.6488 20.5893V18.8795H19.5895V20.5893C19.5895 20.6194 19.5648 20.6441 19.5347 20.6441ZM19.5895 16.2874V17.1149H11.6488V16.2874C11.6488 16.2573 11.6735 16.2326 11.7037 16.2326H19.5347C19.5648 16.2326 19.5895 16.2573 19.5895 16.2874ZM24.2952 26.1959C24.2952 26.5403 24.0151 26.8203 23.6708 26.8203H16.0963C15.7521 26.8203 15.4721 26.5402 15.4721 26.1959V24.7599H24.2952V26.1959ZM24.5893 13.5856C23.4542 13.5856 22.5305 12.662 22.5305 11.5269C22.5305 10.3918 23.4542 9.46821 24.5893 9.46821C25.7244 9.46821 26.648 10.3918 26.648 11.5269C26.648 12.662 25.7244 13.5856 24.5893 13.5856Z" fill="#00993E"/>
<path d="M25.2281 10.4814L24.2507 11.9476L23.9161 11.613C23.8012 11.4981 23.615 11.4981 23.5002 11.613C23.3854 11.7278 23.3854 11.914 23.5002 12.0288L24.0884 12.617C24.1438 12.6726 24.2188 12.7033 24.2963 12.7033C24.3058 12.7033 24.3156 12.7027 24.3254 12.7018C24.4129 12.6932 24.4923 12.6455 24.5411 12.5723L25.7175 10.8077C25.8077 10.6724 25.7712 10.49 25.636 10.3998C25.5 10.3097 25.318 10.3461 25.2281 10.4814Z" fill="#00993E"/>
<path d="M13.7082 12.9974C13.8706 12.9974 14.0023 12.8659 14.0023 12.7033V11.2328C14.0023 11.0703 13.8706 10.9387 13.7082 10.9387C13.5457 10.9387 13.4141 11.0703 13.4141 11.2328V12.7033C13.4141 12.8659 13.5457 12.9974 13.7082 12.9974Z" fill="#00993E"/>
<path d="M12.5314 14.1739C12.5314 14.0113 12.3997 13.8798 12.2373 13.8798H10.7668C10.6043 13.8798 10.4727 14.0113 10.4727 14.1739C10.4727 14.3364 10.6043 14.468 10.7668 14.468H12.2373C12.3997 14.468 12.5314 14.3364 12.5314 14.1739Z" fill="#00993E"/>
<path d="M12.3425 13.183C12.4 13.2404 12.4752 13.2691 12.5505 13.2691C12.6257 13.2691 12.701 13.2404 12.7584 13.183C12.8732 13.0681 12.8732 12.8819 12.7584 12.7671L11.7129 11.7216C11.5981 11.6068 11.4119 11.6068 11.2971 11.7216C11.1822 11.8365 11.1822 12.0226 11.2971 12.1375L12.3425 13.183Z" fill="#00993E"/>
<circle opacity="0.3" cx="18.5" cy="18.5" r="18" stroke="#00993E"/>
</svg>
