<svg width="37" height="37" viewBox="0 0 37 37" fill="none" xmlns="http://www.w3.org/2000/svg">
<g clip-path="url(#clip0_108_9769)">
<path d="M20.7091 14.9628H12.8739C12.6954 14.9628 12.5508 15.1074 12.5508 15.2859C12.5508 15.4644 12.6954 15.609 12.8739 15.609H20.7091C20.8876 15.609 21.0322 15.4644 21.0322 15.2859C21.0322 15.1074 20.8876 14.9628 20.7091 14.9628Z" fill="#00993E"/>
<path d="M11.993 22.4669C11.8145 22.4669 11.6699 22.6115 11.6699 22.79C11.6699 22.9685 11.8145 23.1131 11.993 23.1131H13.6937C13.8722 23.1131 14.0168 22.9685 14.0168 22.79C14.0168 22.6115 13.8722 22.4669 13.6937 22.4669H11.993Z" fill="#00993E"/>
<path d="M30.3027 21.5019C30.2112 21.3487 30.0129 21.2988 29.8596 21.3902C29.7064 21.4817 29.6564 21.68 29.7479 21.8332C30.15 22.5066 30.3626 23.2792 30.3626 24.0675C30.3626 26.4741 28.4048 28.432 25.9981 28.432C23.5915 28.432 21.6336 26.4741 21.6336 24.0675C21.6336 21.6609 23.5915 19.703 25.9981 19.703C27.1304 19.703 28.2037 20.1348 29.0203 20.9188C29.149 21.0424 29.3535 21.0383 29.4771 20.9095C29.6007 20.7808 29.5965 20.5763 29.4678 20.4527C28.5302 19.5525 27.298 19.0568 25.9981 19.0568C25.2654 19.0568 24.5689 19.2148 23.941 19.4987V18.7C24.3636 18.473 24.6301 18.0332 24.6301 17.5457V14.4813C24.6301 13.7583 24.0419 13.1701 23.3188 13.1701H21.1303V11.9703C21.1303 10.7126 20.1071 9.68945 18.8494 9.68945H14.7319C13.4742 9.68945 12.4511 10.7126 12.4511 11.9703V13.1701H10.2512C10.2474 13.1701 10.2437 13.1702 10.24 13.1703C9.5273 13.1823 8.95117 13.7658 8.95117 14.4813V17.5457C8.95117 18.0332 9.21763 18.4729 9.64026 18.7V22.9248C9.64026 24.0015 10.5162 24.8775 11.5929 24.8775H13.9883C14.1668 24.8775 14.3114 24.7328 14.3114 24.5544C14.3114 24.3759 14.1668 24.2312 13.9883 24.2312H11.5929C10.8725 24.2312 10.2865 23.6452 10.2865 22.9248V18.9744L11.2875 19.3882C11.4471 19.4542 11.6157 19.4876 11.7884 19.4876H15.5816V19.8836C15.5816 20.3409 15.9536 20.713 16.4109 20.713H17.1704C17.6277 20.713 17.9997 20.3409 17.9997 19.8836V19.4876H21.7929C21.9656 19.4876 22.1342 19.4542 22.2937 19.3882L23.2948 18.9744V19.8502C21.9079 20.7423 20.9874 22.2994 20.9874 24.0675C20.9874 24.1223 20.9883 24.1769 20.99 24.2312H15.2377C15.0592 24.2312 14.9145 24.3759 14.9145 24.5544C14.9145 24.7328 15.0592 24.8775 15.2377 24.8775H21.0529C21.4412 27.2566 23.5109 29.0782 25.9982 29.0782C28.7611 29.0782 31.0089 26.8304 31.0089 24.0675C31.0089 23.1626 30.7647 22.2754 30.3027 21.5019ZM13.0972 11.9703C13.0972 11.069 13.8305 10.3357 14.7319 10.3357H18.8494C19.7507 10.3357 20.484 11.069 20.484 11.9703V13.1701H19.8369V11.9703C19.8369 11.4258 19.3939 10.9828 18.8494 10.9828H16.9098C16.7313 10.9828 16.5867 11.1274 16.5867 11.3059C16.5867 11.4844 16.7313 11.629 16.9098 11.629H18.8494C19.0376 11.629 19.1907 11.7821 19.1907 11.9703V13.1701H14.3906V11.9703C14.3906 11.7821 14.5437 11.629 14.7319 11.629H15.6605C15.839 11.629 15.9837 11.4844 15.9837 11.3059C15.9837 11.1274 15.839 10.9828 15.6605 10.9828H14.7319C14.1874 10.9828 13.7444 11.4258 13.7444 11.9703V13.1701H13.0972V11.9703ZM17.3535 19.8836C17.3535 19.9846 17.2714 20.0668 17.1704 20.0668H16.4109C16.31 20.0668 16.2278 19.9846 16.2278 19.8836V18.1944C16.2278 18.0934 16.31 18.0112 16.4109 18.0112H17.1704C17.2714 18.0112 17.3535 18.0934 17.3535 18.1944V19.8836ZM22.0469 18.7909C21.966 18.8244 21.8806 18.8414 21.7929 18.8414H17.9997V18.1944C17.9997 17.7371 17.6277 17.365 17.1704 17.365H16.4109C15.9536 17.365 15.5816 17.7371 15.5816 18.1944V18.8414H11.7884C11.7008 18.8414 11.6153 18.8244 11.5344 18.791L10.0084 18.1603C9.75873 18.057 9.59739 17.8158 9.59739 17.5457V14.4813C9.59739 14.1146 9.89573 13.8163 10.2624 13.8163H23.3189C23.6856 13.8163 23.984 14.1146 23.984 14.4813V17.5457C23.984 17.8158 23.8226 18.057 23.5729 18.1603L22.0469 18.7909Z" fill="#00993E"/>
<path d="M24.8477 23.4419C24.8477 23.2615 24.8768 23.0927 24.9352 22.9353C24.9974 22.7742 25.0868 22.636 25.2035 22.5209C25.3202 22.4019 25.4661 22.3098 25.6411 22.2446C25.8161 22.1755 26.0183 22.141 26.2478 22.141C26.4656 22.141 26.6601 22.1755 26.8312 22.2446C27.0062 22.3137 27.154 22.4115 27.2746 22.5382C27.3951 22.6648 27.4865 22.8183 27.5488 22.9986C27.6149 23.179 27.6479 23.3824 27.6479 23.6088C27.6479 24.0424 27.5916 24.4223 27.4788 24.7485C27.3699 25.0747 27.2162 25.351 27.0179 25.5774C26.8234 25.7999 26.594 25.9726 26.3295 26.0954C26.0689 26.2182 25.7869 26.293 25.4836 26.3199L25.3669 25.8882C25.6119 25.8613 25.8316 25.8038 26.0261 25.7155C26.2206 25.6234 26.3878 25.5083 26.5278 25.3701C26.6678 25.2282 26.7826 25.0689 26.872 24.8924C26.9615 24.712 27.0237 24.5182 27.0587 24.311C27.0004 24.3724 26.9401 24.4242 26.8779 24.4664C26.8195 24.5087 26.7534 24.5432 26.6795 24.57C26.6095 24.5931 26.5298 24.6103 26.4403 24.6219C26.3548 24.6295 26.2556 24.6334 26.1428 24.6334C25.9717 24.6334 25.8064 24.6065 25.6469 24.5528C25.4913 24.4991 25.3533 24.4223 25.2327 24.3225C25.116 24.2228 25.0227 24.1 24.9527 23.9541C24.8827 23.8045 24.8477 23.6337 24.8477 23.4419ZM25.4077 23.4016C25.4077 23.6587 25.4874 23.8544 25.6469 23.9887C25.8064 24.1192 26.0125 24.1844 26.2653 24.1844C26.4714 24.1844 26.6445 24.1518 26.7845 24.0865C26.9284 24.0213 27.0334 23.9426 27.0996 23.8505C27.1073 23.8045 27.1112 23.7642 27.1112 23.7297C27.1112 23.6951 27.1112 23.6568 27.1112 23.6145C27.1112 23.4879 27.0937 23.3632 27.0587 23.2404C27.0237 23.1176 26.9693 23.0082 26.8954 22.9123C26.8254 22.8164 26.734 22.7396 26.6212 22.6821C26.5084 22.6207 26.3742 22.59 26.2186 22.59C25.9619 22.59 25.7616 22.6629 25.6177 22.8087C25.4777 22.9507 25.4077 23.1483 25.4077 23.4016Z" fill="#00993E"/>
</g>
<circle opacity="0.3" cx="18.5" cy="18.5" r="18" stroke="#00993E"/>
<defs>
<clipPath id="clip0_108_9769">
<rect width="22.0577" height="22.0577" fill="white" transform="translate(8.95117 8.35498)"/>
</clipPath>
</defs>
</svg>
