<svg width="37" height="37" viewBox="0 0 37 37" fill="none" xmlns="http://www.w3.org/2000/svg">
<path d="M28.0315 21.3474V19.6018C28.0315 18.5112 27.4827 17.5467 26.6471 16.9686H27.2165C27.7589 16.9686 28.2001 16.5273 28.2001 15.9827C28.2001 15.4403 27.7589 14.999 27.2165 14.999H25.7966L25.1736 12.6481C25.1728 12.6448 25.1717 12.6417 25.1708 12.6384C25.1705 12.6374 25.1703 12.6363 25.17 12.6353C24.9153 11.6974 24.0614 11.0435 23.0884 11.0435H16.9087C16.5375 11.0435 16.5375 11.6177 16.9087 11.6177H23.0884C23.6732 11.6177 24.1995 11.9397 24.4734 12.4344H13.1978C13.4718 11.9397 13.998 11.6177 14.5828 11.6177H15.4029C15.7741 11.6177 15.7741 11.0435 15.4029 11.0435H14.5828C13.61 11.0435 12.7561 11.6974 12.5014 12.6352C12.501 12.6364 12.5007 12.6376 12.5003 12.6388C12.4995 12.6419 12.4985 12.6449 12.4977 12.648L11.8747 14.9989H10.4676C9.92516 14.9989 9.48387 15.4402 9.48387 15.9849C9.48387 16.5273 9.92516 16.9686 10.4676 16.9686H11.0242C10.1886 17.5467 9.6398 18.5111 9.6398 19.6018V21.3474C9.29349 21.4309 9.03516 21.7426 9.03516 22.1141V22.9523C9.03516 23.3876 9.38931 23.7418 9.82467 23.7418H10.7065V24.761C10.7065 25.173 11.0417 25.5081 11.4537 25.5081H13.6291C14.0411 25.5081 14.3763 25.173 14.3763 24.761V23.7418H23.295V24.761C23.295 25.173 23.6302 25.5081 24.0422 25.5081H26.2176C26.6296 25.5081 26.9648 25.173 26.9648 24.761V23.7418H27.8466C28.282 23.7418 28.6362 23.3876 28.6362 22.9523V22.1141C28.6361 21.7426 28.3778 21.4309 28.0315 21.3474ZM12.9962 13.0087H24.6751L25.599 16.4952C25.3528 16.4343 25.0957 16.4014 24.831 16.4014H12.8402C12.5755 16.4014 12.3184 16.4343 12.0723 16.4952L12.9962 13.0087ZM27.2165 15.5732C27.4422 15.5732 27.6259 15.7569 27.6259 15.9849C27.6259 16.2106 27.4422 16.3943 27.2165 16.3943H26.1664L25.9488 15.5732H27.2165V15.5732ZM10.0581 15.9826C10.0581 15.7569 10.2418 15.5732 10.4675 15.5732H11.7225L11.5049 16.3944H10.4676C10.2418 16.3943 10.0581 16.2106 10.0581 15.9826ZM13.8021 24.761C13.8021 24.8563 13.7245 24.9339 13.6291 24.9339H11.4537C11.3583 24.9339 11.2807 24.8563 11.2807 24.761V23.7418H13.802V24.761H13.8021ZM26.3905 24.761C26.3905 24.8563 26.3129 24.9339 26.2176 24.9339H24.0421C23.9468 24.9339 23.8692 24.8563 23.8692 24.761V23.7418H26.3905V24.761ZM28.0619 22.9523C28.0619 23.071 27.9653 23.1676 27.8466 23.1676H9.82467C9.70595 23.1676 9.6094 23.071 9.6094 22.9523V22.1142C9.6094 21.9955 9.70595 21.8989 9.82467 21.8989H24.0591C24.4304 21.8989 24.4304 21.3247 24.0591 21.3247H10.214V19.6018C10.214 18.1537 11.3921 16.9757 12.8402 16.9757H24.831C26.2791 16.9757 27.4572 18.1537 27.4572 19.6018V21.3247H25.5739C25.2027 21.3247 25.2027 21.8989 25.5739 21.8989H27.8466C27.9653 21.8989 28.0619 21.9955 28.0619 22.1142V22.9523Z" fill="#00993E"/>
<path d="M12.8962 17.965C12.1166 17.965 11.4824 18.6023 11.4824 19.3857C11.4824 20.1691 12.1166 20.8064 12.8962 20.8064C13.6757 20.8064 14.3099 20.1691 14.3099 19.3857C14.3099 18.6023 13.6757 17.965 12.8962 17.965ZM12.8962 20.2322C12.4333 20.2322 12.0567 19.8524 12.0567 19.3857C12.0567 18.9189 12.4333 18.5392 12.8962 18.5392C13.3591 18.5392 13.7357 18.9189 13.7357 19.3857C13.7357 19.8524 13.3591 20.2322 12.8962 20.2322Z" fill="#00993E"/>
<path d="M26.1888 19.3857C26.1888 18.6023 25.5546 17.965 24.7751 17.965C23.9955 17.965 23.3613 18.6023 23.3613 19.3857C23.3613 20.1691 23.9955 20.8064 24.7751 20.8064C25.5546 20.8064 26.1888 20.1691 26.1888 19.3857ZM24.7751 20.2322C24.3122 20.2322 23.9356 19.8524 23.9356 19.3857C23.9356 18.9189 24.3122 18.5392 24.7751 18.5392C25.238 18.5392 25.6146 18.9189 25.6146 19.3857C25.6146 19.8524 25.238 20.2322 24.7751 20.2322Z" fill="#00993E"/>
<path d="M21.9524 18.5929H15.7188C15.5602 18.5929 15.4316 18.7215 15.4316 18.88V20.1849C15.4316 20.3434 15.5602 20.472 15.7188 20.472H21.9524C22.1109 20.472 22.2395 20.3434 22.2395 20.1849V18.88C22.2395 18.7215 22.111 18.5929 21.9524 18.5929ZM21.6653 19.8978H16.0059V19.1672H21.6652V19.8978H21.6653Z" fill="#00993E"/>
<circle opacity="0.3" cx="18.5" cy="18.5" r="18" stroke="#00993E"/>
</svg>
