<svg width="37" height="37" viewBox="0 0 37 37" fill="none" xmlns="http://www.w3.org/2000/svg">
<g clip-path="url(#clip0_108_9800)">
<path d="M26.1882 29.8848C26.3404 29.8848 26.4638 29.7614 26.4638 29.6092V27.9717H29.6341C29.73 27.9717 29.8187 27.9219 29.8689 27.8403C29.9189 27.7588 29.9232 27.657 29.8799 27.5715L28.5308 24.9113H28.9703C29.0666 24.9113 29.1559 24.8611 29.2059 24.7787C29.2558 24.6963 29.2591 24.5939 29.2146 24.5084L28.0111 22.2001H28.2684C28.3685 22.2001 28.4606 22.1459 28.5091 22.0585C28.5579 21.971 28.5551 21.864 28.5024 21.7791L26.4224 18.4341C26.372 18.3532 26.2835 18.3042 26.1882 18.3042C26.093 18.3042 26.0045 18.3532 25.9541 18.4341L23.8737 21.7791C23.8211 21.864 23.8184 21.971 23.867 22.0585C23.9157 22.1459 24.0078 22.2001 24.1078 22.2001H24.3651L23.1615 24.5084C23.1172 24.5939 23.1203 24.6963 23.1701 24.7787C23.2202 24.8611 23.3095 24.9113 23.4058 24.9113H23.8457L22.4966 27.5715C22.4533 27.657 22.4573 27.7588 22.5076 27.8403C22.5578 27.9219 22.6465 27.9717 22.7424 27.9717H25.9127V29.6092C25.9127 29.7614 26.0358 29.8848 26.1882 29.8848ZM26.1882 19.1013L27.7726 21.6492H24.6037L26.1882 19.1013ZM24.9865 22.2001H27.3896L28.5158 24.3604H23.8602L24.9865 22.2001ZM24.4635 24.9113H27.913L29.1855 27.4206H23.1909L24.4635 24.9113Z" fill="#00993E"/>
<path d="M29.8882 16.9737L26.2926 9.68596C26.2466 9.59242 26.1516 9.53293 26.0473 9.5323C25.9561 9.53377 25.8474 9.5901 25.7999 9.68322L22.8852 15.4243L19.1766 7.97994C19.1299 7.88682 19.0349 7.82775 18.9308 7.82733C18.819 7.82102 18.7311 7.88535 18.6841 7.97805L14.5796 16.0625L11.6777 10.347C11.6304 10.2539 11.5365 10.1865 11.4307 10.1961C11.3267 10.1968 11.2315 10.256 11.185 10.3494L7.90372 16.9733C7.83604 17.1095 7.89216 17.275 8.02816 17.3424C8.06768 17.362 8.10951 17.371 8.15029 17.371C8.25182 17.371 8.34957 17.3149 8.3977 17.2178L9.21098 15.5761L9.73103 16.4991C9.7798 16.5857 9.87144 16.6393 9.97108 16.6393C10.0707 16.6393 10.1622 16.5859 10.2111 16.4991L10.7242 15.5895L11.2365 16.4991C11.2853 16.5857 11.3769 16.6393 11.4766 16.6393C11.576 16.6393 11.6674 16.5859 11.7164 16.4991L12.2295 15.5891L12.7433 16.4993C12.7922 16.5859 12.8839 16.6393 12.9833 16.6393C13.0825 16.6393 13.1742 16.5859 13.2232 16.4993L13.7287 15.6036L14.2706 16.671L14.1184 16.9708C14.0495 17.1064 14.1037 17.2724 14.2393 17.3412C14.3753 17.4099 14.5405 17.3557 14.6097 17.2203L16.6333 13.2348L17.1386 14.1303C17.2366 14.3033 17.5208 14.3033 17.6187 14.1303L18.1323 13.2201L18.6454 14.1303C18.7435 14.3039 19.0282 14.3033 19.1255 14.1301L19.638 13.2205L20.1509 14.1303C20.1994 14.2169 20.2913 14.2705 20.3907 14.2705C20.4903 14.2705 20.582 14.2167 20.6308 14.1301L21.1584 13.1941L23.1631 17.2184C23.2116 17.3151 23.309 17.371 23.4103 17.371C23.4513 17.371 23.4933 17.3618 23.5328 17.3422C23.669 17.2743 23.7245 17.1089 23.6566 16.9727L23.1913 16.0385L23.7491 14.9398L24.2545 15.8355C24.3524 16.0085 24.6366 16.0085 24.7346 15.8355L25.2481 14.9253L25.7612 15.8355C25.8594 16.0091 26.1442 16.0085 26.2413 15.8353L26.7538 14.9257L27.2667 15.8355C27.3153 15.9221 27.4071 15.9757 27.5068 15.9757C27.6062 15.9757 27.698 15.9221 27.7466 15.8355L28.2616 14.9219L29.3942 17.2174C29.4421 17.3147 29.5396 17.371 29.6414 17.371C29.6824 17.371 29.7238 17.362 29.7631 17.3427C29.8995 17.2754 29.9556 17.1102 29.8882 16.9737ZM12.9833 15.8033L12.4696 14.8929C12.3716 14.7197 12.0876 14.7201 11.9897 14.8929L11.4766 15.8027L10.9643 14.8931C10.9155 14.8065 10.8237 14.7529 10.7242 14.7529C10.6246 14.7529 10.5332 14.8063 10.4842 14.8929L9.97108 15.8027L9.50674 14.9787L11.4352 11.0861L13.4289 15.0134L12.9833 15.8033ZM20.3907 13.4337L19.878 12.5241C19.7805 12.3507 19.4954 12.3509 19.3979 12.5241L18.8854 13.4337L18.3723 12.5241C18.3233 12.4375 18.2319 12.3839 18.1323 12.3839C18.033 12.3839 17.9412 12.4375 17.8922 12.5239L17.3787 13.4343L16.9328 12.6444L18.9273 8.71607L20.8616 12.5983L20.3907 13.4337ZM27.5068 15.1389L26.9939 14.2293C26.8963 14.0559 26.6113 14.0561 26.5137 14.2293L26.0013 15.1389L25.4882 14.2293C25.4392 14.1427 25.3477 14.0891 25.2481 14.0891C25.1489 14.0891 25.057 14.1427 25.0081 14.2291L24.4945 15.1395L24.0489 14.3496L26.042 10.4236L27.9663 14.3235L27.5068 15.1389Z" fill="#00993E"/>
<path d="M18.8108 18.8827C18.9203 18.8827 19.0241 18.8167 19.0668 18.7086C19.1395 18.5253 19.1763 18.332 19.1763 18.1337V18.0665C19.1763 17.9143 19.0531 17.7909 18.901 17.7909C18.7486 17.7909 18.6254 17.9143 18.6254 18.0665V18.1337C18.6254 18.262 18.6016 18.3872 18.5545 18.5056C18.4986 18.6471 18.5678 18.8072 18.7092 18.8634C18.7427 18.8764 18.7767 18.8827 18.8108 18.8827Z" fill="#00993E"/>
<path d="M15.8576 19.1489H14.76C14.6076 19.1489 14.4844 19.2723 14.4844 19.4245C14.4844 19.5765 14.6076 19.6999 14.76 19.6999H15.8576C16.01 19.6999 16.1332 19.5765 16.1332 19.4245C16.1332 19.2723 16.01 19.1489 15.8576 19.1489Z" fill="#00993E"/>
<path d="M11.6574 21.6499C11.5748 21.7777 11.6116 21.9484 11.7394 22.0308C11.9937 22.195 12.2886 22.2816 12.5924 22.2816H12.5932H12.9462C13.0986 22.2816 13.2217 22.1582 13.2217 22.006C13.2217 21.8538 13.0986 21.7304 12.9462 21.7304H12.593C12.593 21.7304 12.5926 21.7304 12.5924 21.7304C12.3948 21.7304 12.2033 21.6743 12.0381 21.5677C11.9099 21.4853 11.7394 21.5223 11.6574 21.6499Z" fill="#00993E"/>
<path d="M9.72476 24.6799C9.71488 24.5281 9.58351 24.4127 9.43153 24.4234C8.98274 24.4533 8.56759 24.6748 8.29201 25.0309C8.19889 25.1511 8.22096 25.3244 8.3412 25.4175C8.39144 25.4562 8.45072 25.4751 8.50957 25.4751C8.59197 25.4751 8.67353 25.4383 8.72777 25.3681C8.90686 25.1366 9.17676 24.9927 9.46811 24.9731C9.62008 24.963 9.73464 24.8318 9.72476 24.6799Z" fill="#00993E"/>
<path d="M13.7695 22.006C13.7695 22.1582 13.8927 22.2816 14.0451 22.2816H15.1428C15.295 22.2816 15.4184 22.1582 15.4184 22.006C15.4184 21.8539 15.295 21.7305 15.1428 21.7305H14.0451C13.8927 21.7305 13.7695 21.8539 13.7695 22.006Z" fill="#00993E"/>
<path d="M13.6638 19.1489L12.5622 19.1491C12.41 19.1512 12.3007 19.2763 12.3028 19.4285C12.3051 19.5792 12.44 19.6999 12.5905 19.6999H12.5945H13.6638C13.816 19.6999 13.9392 19.5765 13.9392 19.4245C13.9392 19.2723 13.816 19.1489 13.6638 19.1489Z" fill="#00993E"/>
<path d="M18.405 27.3051C18.3775 27.4546 18.4765 27.5983 18.6259 27.6261C18.9133 27.6791 19.1645 27.8533 19.315 28.1039C19.3669 28.1898 19.4579 28.2374 19.5514 28.2374C19.6 28.2374 19.649 28.2247 19.6933 28.198C19.8237 28.1196 19.8659 27.9504 19.7875 27.8199C19.5552 27.434 19.1685 27.1657 18.726 27.0842C18.5759 27.0558 18.4325 27.1554 18.405 27.3051Z" fill="#00993E"/>
<path d="M8.52865 26.195C8.50574 26.0445 8.36595 25.9401 8.21502 25.9638C8.06452 25.9865 7.96089 26.1267 7.98359 26.2774C8.05085 26.7214 8.30751 27.1162 8.68819 27.3602C8.73444 27.3898 8.78594 27.4037 8.83681 27.4037C8.92741 27.4037 9.01653 27.3589 9.06887 27.277C9.15106 27.1487 9.11386 26.9785 8.98584 26.8963C8.73843 26.7378 8.57195 26.4822 8.52865 26.195Z" fill="#00993E"/>
<path d="M11.9203 24.6954C11.9203 24.5432 11.7971 24.4198 11.6447 24.4198H10.5471C10.3947 24.4198 10.2715 24.5432 10.2715 24.6954C10.2715 24.8476 10.3947 24.971 10.5471 24.971H11.6447C11.7971 24.971 11.9203 24.8476 11.9203 24.6954Z" fill="#00993E"/>
<path d="M9.89472 27.6088H10.9924C11.1448 27.6088 11.268 27.4854 11.268 27.3334C11.268 27.1813 11.1448 27.0579 10.9924 27.0579H9.89472C9.74232 27.0579 9.61914 27.1813 9.61914 27.3334C9.61914 27.4854 9.74232 27.6088 9.89472 27.6088Z" fill="#00993E"/>
<path d="M14.2851 27.6088H15.3828C15.535 27.6088 15.6582 27.4854 15.6582 27.3334C15.6582 27.1813 15.535 27.0579 15.3828 27.0579H14.2851C14.1329 27.0579 14.0098 27.1813 14.0098 27.3334C14.0098 27.4854 14.1329 27.6088 14.2851 27.6088Z" fill="#00993E"/>
<path d="M16.1815 24.2311C16.0858 24.1129 15.9124 24.0951 15.7941 24.1909C15.6127 24.3387 15.3831 24.4198 15.1479 24.4198H14.9375C14.7853 24.4198 14.6621 24.5432 14.6621 24.6954C14.6621 24.8476 14.7853 24.971 14.9375 24.971H15.1479C15.5092 24.971 15.8624 24.8457 16.1415 24.6185C16.2597 24.5224 16.2775 24.349 16.1815 24.2311Z" fill="#00993E"/>
<path d="M16.4807 27.6088H17.5783C17.7307 27.6088 17.8539 27.4854 17.8539 27.3334C17.8539 27.1813 17.7307 27.0579 17.5783 27.0579H16.4807C16.3283 27.0579 16.2051 27.1813 16.2051 27.3334C16.2051 27.4854 16.3283 27.6088 16.4807 27.6088Z" fill="#00993E"/>
<path d="M16.4348 23.7282H16.4441C16.5919 23.7282 16.7144 23.6109 16.7192 23.4621L16.7203 23.2969C16.7203 22.9114 16.5782 22.5408 16.3205 22.2534C16.2187 22.1397 16.0443 22.1309 15.9314 22.232C15.8181 22.3337 15.8086 22.5078 15.9104 22.6211C16.0773 22.8073 16.1691 23.0474 16.1691 23.2969L16.1687 23.4436C16.1635 23.5956 16.2824 23.7232 16.4348 23.7282Z" fill="#00993E"/>
<path d="M18.3035 19.2549C18.252 19.1116 18.0935 19.0367 17.951 19.0889C17.8396 19.1286 17.7227 19.149 17.6033 19.149H16.9551C16.8029 19.149 16.6797 19.2724 16.6797 19.4246C16.6797 19.5765 16.8029 19.6999 16.9551 19.6999H17.6033C17.7862 19.6999 17.9659 19.6688 18.137 19.6072C18.2802 19.5559 18.3548 19.3981 18.3035 19.2549Z" fill="#00993E"/>
<path d="M11.3938 19.7034C11.1537 19.9855 11.0215 20.3448 11.0215 20.7151C11.0215 20.7935 11.0276 20.8703 11.0385 20.9455C11.0587 21.0826 11.1762 21.1807 11.3107 21.1807C11.324 21.1807 11.3376 21.1799 11.3511 21.1778C11.5018 21.1557 11.6061 21.0157 11.5836 20.865C11.5764 20.8163 11.5726 20.766 11.5726 20.7151C11.5726 20.4757 11.6582 20.243 11.8135 20.0606C11.9119 19.9445 11.8978 19.7707 11.782 19.6721C11.6668 19.5739 11.4921 19.5874 11.3938 19.7034Z" fill="#00993E"/>
<path d="M12.09 27.6088H13.1877C13.3401 27.6088 13.4633 27.4854 13.4633 27.3334C13.4633 27.1813 13.3401 27.0579 13.1877 27.0579H12.09C11.9376 27.0579 11.8145 27.1813 11.8145 27.3334C11.8145 27.4854 11.9376 27.6088 12.09 27.6088Z" fill="#00993E"/>
<path d="M14.1156 24.6954C14.1156 24.5432 13.9925 24.4198 13.8401 24.4198H12.7424C12.59 24.4198 12.4668 24.5432 12.4668 24.6954C12.4668 24.8476 12.59 24.971 12.7424 24.971H13.8401C13.9925 24.971 14.1156 24.8476 14.1156 24.6954Z" fill="#00993E"/>
<path d="M19.7346 29.881C19.8868 29.881 20.0101 29.7576 20.0101 29.6055V29.0543C20.0101 28.9023 19.8868 28.7789 19.7346 28.7789C19.5822 28.7789 19.459 28.9023 19.459 29.0543V29.6055C19.459 29.7576 19.5822 29.881 19.7346 29.881Z" fill="#00993E"/>
</g>
<circle opacity="0.3" cx="18.5" cy="18.5" r="18" stroke="#00993E"/>
<defs>
<clipPath id="clip0_108_9800">
<rect width="22.0577" height="22.0577" fill="white" transform="translate(7.82617 7.8269)"/>
</clipPath>
</defs>
</svg>
