<svg width="24" height="19" viewBox="0 0 24 19" fill="none" xmlns="http://www.w3.org/2000/svg">
<path d="M19.2868 9.36883C21.9013 9.36883 23.666 11.1887 23.666 13.8848C23.666 16.3113 21.6398 18.3333 18.8948 18.3333C15.8882 18.3333 13.666 15.9068 13.666 12.1998C13.666 3.77451 19.8098 0.404416 23.666 0V3.7071C21.0517 4.17891 18.1105 6.80766 17.9797 9.70583C18.1105 9.63849 18.6333 9.36883 19.2868 9.36883Z" fill="#00993E"/>
<path d="M5.95393 9.36883C8.56831 9.36883 10.333 11.1887 10.333 13.8848C10.333 16.3113 8.30686 18.3333 5.56176 18.3333C2.55523 18.3333 0.333008 15.9068 0.333008 12.1998C0.333008 3.77451 6.4768 0.404416 10.333 0V3.7071C7.71863 4.17891 4.77746 6.80766 4.64674 9.70583C4.77746 9.63849 5.30033 9.36883 5.95393 9.36883Z" fill="#00993E"/>
</svg>
