<svg width="11" height="14" viewBox="0 0 11 14" fill="none" xmlns="http://www.w3.org/2000/svg">
<path d="M5.0625 2.74219C4.60359 2.74219 4.15498 2.87827 3.7734 3.13323C3.39183 3.38819 3.09443 3.75057 2.91881 4.17455C2.74319 4.59853 2.69724 5.06507 2.78677 5.51516C2.8763 5.96526 3.09729 6.3787 3.42179 6.7032C3.74629 7.0277 4.15973 7.24869 4.60983 7.33822C5.05993 7.42774 5.52646 7.38179 5.95045 7.20618C6.37443 7.03056 6.73681 6.73316 6.99177 6.35159C7.24673 5.97001 7.38281 5.52141 7.38281 5.06249C7.38212 4.44732 7.13743 3.85755 6.70244 3.42256C6.26745 2.98757 5.67767 2.74289 5.0625 2.74219ZM5.0625 6.96093C4.68703 6.96093 4.31998 6.84958 4.00779 6.64098C3.69559 6.43238 3.45226 6.13589 3.30857 5.78899C3.16488 5.4421 3.12729 5.06039 3.20054 4.69213C3.27379 4.32387 3.4546 3.9856 3.7201 3.7201C3.9856 3.4546 4.32387 3.27379 4.69213 3.20054C5.06039 3.12729 5.44211 3.16488 5.789 3.30857C6.1359 3.45226 6.43239 3.69559 6.64099 4.00778C6.8496 4.31998 6.96094 4.68702 6.96094 5.06249C6.96038 5.56582 6.76019 6.04837 6.40428 6.40427C6.04838 6.76018 5.56583 6.96037 5.0625 6.96093Z" fill="white"/>
<path d="M5.0625 0C3.72031 0.00153529 2.43354 0.535397 1.48447 1.48447C0.535397 2.43354 0.00153529 3.72031 0 5.0625C0 8.69674 4.71601 13.2495 4.91666 13.4415C4.95593 13.479 5.00817 13.5 5.0625 13.5C5.11683 13.5 5.16907 13.479 5.20834 13.4415C5.40899 13.2495 10.125 8.69674 10.125 5.0625C10.1235 3.72031 9.5896 2.43354 8.64053 1.48447C7.69146 0.535397 6.40469 0.00153529 5.0625 0V0ZM5.0625 12.9925C4.25974 12.1871 0.421875 8.17258 0.421875 5.0625C0.421875 3.83173 0.910797 2.65137 1.78108 1.78108C2.65137 0.910797 3.83173 0.421875 5.0625 0.421875C6.29327 0.421875 7.47363 0.910797 8.34392 1.78108C9.2142 2.65137 9.70312 3.83173 9.70312 5.0625C9.70312 8.17104 5.86526 12.1868 5.0625 12.9925Z" fill="white"/>
</svg>
