<svg width="187" height="39" viewBox="0 0 187 39" fill="none" xmlns="http://www.w3.org/2000/svg">
<path d="M36.3106 9.81526e-06H4.27471C3.14099 9.81526e-06 2.0537 0.450379 1.25204 1.25204C0.450377 2.0537 7.80231e-06 3.14099 7.80231e-06 4.27471V36.3075C-0.00108754 36.8782 0.113156 37.4431 0.335877 37.9685L20.2926 3.40145L29.2848 18.9736C22.9582 17.0194 15.2546 20.6377 11.9844 29.7519C18.7782 22.6743 32.2374 23.917 35.6388 29.9626L40.2616 37.9685C40.4823 37.4426 40.5954 36.8778 40.5944 36.3075V4.27471C40.5944 3.71258 40.4836 3.15597 40.2682 2.63674C40.0528 2.11751 39.7371 1.64586 39.3392 1.2488C38.9412 0.851735 38.4689 0.537054 37.9492 0.322769C37.4295 0.108485 36.8727 -0.00119476 36.3106 9.81526e-06Z" fill="white"/>
<path d="M55.6316 15.0494H50.2186L48.7725 18.6255H46.8574L52.4854 4.751H53.5015L59.149 18.6255H57.1167L55.6316 15.0494ZM50.8048 13.4079H55.0649L53.482 9.51912L52.9544 7.42818H52.9153L52.3877 9.55821L50.8048 13.4079Z" fill="white"/>
<path d="M61.0354 4.94641H69.321V6.66606H62.9895V10.379C63.224 10.3399 63.5107 10.3008 63.8494 10.2617C64.2011 10.2226 64.5464 10.2031 64.8851 10.2031C65.6146 10.2031 66.3051 10.2682 66.9565 10.3985C67.6209 10.5288 68.2006 10.7502 68.6957 11.0629C69.2037 11.3756 69.6076 11.7925 69.9072 12.3136C70.2069 12.8347 70.3567 13.486 70.3567 14.2677C70.3567 15.0494 70.2004 15.7268 69.8877 16.3C69.5881 16.8602 69.1842 17.3292 68.6761 17.707C68.168 18.0718 67.5753 18.3454 66.8978 18.5278C66.2204 18.7101 65.5104 18.8013 64.7678 18.8013C64.5333 18.8013 64.2532 18.7948 63.9275 18.7818C63.6149 18.7818 63.2892 18.7688 62.9505 18.7427C62.6117 18.7167 62.273 18.6841 61.9343 18.645C61.6086 18.6059 61.309 18.5538 61.0354 18.4887V4.94641ZM65.0023 17.1208C65.4453 17.1208 65.8621 17.0687 66.253 16.9644C66.6568 16.8602 67.0086 16.7039 67.3082 16.4954C67.6079 16.274 67.8424 16.0004 68.0117 15.6747C68.1941 15.349 68.2853 14.9647 68.2853 14.5217C68.2853 13.9485 68.1876 13.4926 67.9922 13.1538C67.7968 12.8021 67.5297 12.535 67.191 12.3526C66.8653 12.1572 66.481 12.0335 66.038 11.9814C65.6081 11.9162 65.1587 11.8836 64.6897 11.8836C64.5594 11.8836 64.4096 11.8902 64.2402 11.9032C64.0839 11.9162 63.921 11.9292 63.7517 11.9423C63.5823 11.9553 63.426 11.9748 63.2827 12.0009C63.1524 12.027 63.0547 12.0465 62.9895 12.0595V17.0035C63.0807 17.0296 63.2045 17.0491 63.3608 17.0621C63.5172 17.0752 63.6865 17.0882 63.8689 17.1012C64.0513 17.1143 64.2402 17.1208 64.4356 17.1208C64.631 17.1208 64.8199 17.1208 65.0023 17.1208Z" fill="white"/>
<path d="M76.6187 11.6687L72.1046 4.94641H74.43L77.3808 9.44096L77.9084 10.5744L78.4165 9.44096L81.5041 4.94641H83.6536L79.0027 11.5319L83.8686 18.6255H81.5822L78.3188 13.8573L77.713 12.6653L77.1658 13.8573L73.8242 18.6255H71.6747L76.6187 11.6687Z" fill="white"/>
<path d="M93.0161 15.0494H87.6031L86.1571 18.6255H84.242L89.87 4.751H90.8861L96.5336 18.6255H94.5013L93.0161 15.0494ZM88.1894 13.4079H92.4494L90.8666 9.51912L90.3389 7.42818H90.2999L89.7722 9.55821L88.1894 13.4079Z" fill="white"/>
<path d="M99.5925 12.2354V10.7112H99.9247C100.042 10.7112 100.192 10.7112 100.374 10.7112C100.57 10.7112 100.765 10.7046 100.96 10.6916C101.169 10.6786 101.364 10.6721 101.547 10.6721C101.742 10.659 101.898 10.6395 102.016 10.6134C102.719 10.5223 103.318 10.3008 103.813 9.94904C104.308 9.58426 104.556 9.10224 104.556 8.50297C104.556 8.09911 104.478 7.7669 104.322 7.50635C104.178 7.23277 103.97 7.01781 103.696 6.86148C103.436 6.69212 103.129 6.57487 102.778 6.50973C102.426 6.43157 102.055 6.39248 101.664 6.39248C100.908 6.39248 100.25 6.45111 99.6902 6.56836C99.13 6.68561 98.7001 6.81588 98.4004 6.95919L97.8728 5.39587C98.0031 5.3177 98.205 5.23953 98.4786 5.16137C98.7522 5.0832 99.0648 5.01155 99.4166 4.94641C99.7814 4.88127 100.179 4.82916 100.609 4.79008C101.052 4.73797 101.501 4.71191 101.957 4.71191C102.53 4.71191 103.097 4.77054 103.657 4.88779C104.217 4.99201 104.712 5.1744 105.142 5.43495C105.585 5.6955 105.943 6.04074 106.217 6.47065C106.491 6.90056 106.627 7.44121 106.627 8.09259C106.627 8.74398 106.393 9.36279 105.924 9.94904C105.468 10.5353 104.771 10.9587 103.833 11.2192V11.2974C104.836 11.4407 105.624 11.7925 106.197 12.3526C106.784 12.8998 107.077 13.6424 107.077 14.5804C107.077 15.323 106.914 15.9678 106.588 16.515C106.263 17.0491 105.833 17.4921 105.299 17.8438C104.777 18.1956 104.178 18.4561 103.501 18.6255C102.836 18.7948 102.152 18.8795 101.449 18.8795C100.511 18.8795 99.7227 18.8209 99.0844 18.7036C98.446 18.5994 97.9314 18.4691 97.5406 18.3128L98.0291 16.6322C98.3679 16.7755 98.8303 16.9058 99.4166 17.0231C100.016 17.1403 100.745 17.1989 101.605 17.1989C102.009 17.1989 102.413 17.1468 102.817 17.0426C103.221 16.9384 103.585 16.782 103.911 16.5736C104.237 16.3652 104.497 16.1046 104.693 15.7919C104.901 15.4663 105.005 15.0819 105.005 14.639C105.005 13.8573 104.699 13.2841 104.087 12.9193C103.488 12.5546 102.647 12.3396 101.566 12.2745C101.397 12.2614 101.247 12.2549 101.117 12.2549C100.986 12.2419 100.83 12.2354 100.648 12.2354H99.5925Z" fill="white"/>
<path d="M119.034 9.57775L119.151 8.07305H119.073L118.135 9.61683L111.119 18.6255H109.927V4.94641H111.881V14.0528L111.706 15.5379H111.803L112.78 13.9941L119.776 4.94641H120.988V18.6255H119.034V9.57775Z" fill="white"/>
<path d="M133.184 18.6255H131.23V12.8021L129.139 13.232L125.485 18.6255H123.218L126.521 13.8573L127.811 12.9975C127.302 12.9063 126.833 12.763 126.404 12.5676C125.974 12.3592 125.596 12.0921 125.27 11.7664C124.957 11.4407 124.71 11.0564 124.528 10.6134C124.358 10.1705 124.274 9.65591 124.274 9.06967C124.274 8.27498 124.423 7.60406 124.723 7.05689C125.023 6.50973 125.426 6.06679 125.935 5.72807C126.443 5.38935 127.042 5.14834 127.732 5.00504C128.423 4.8487 129.159 4.77054 129.941 4.77054C130.423 4.77054 130.95 4.79659 131.523 4.8487C132.11 4.88779 132.663 4.96595 133.184 5.0832V18.6255ZM129.823 6.45111C129.367 6.45111 128.931 6.49019 128.514 6.56836C128.097 6.64652 127.726 6.78331 127.4 6.97873C127.088 7.17414 126.833 7.44121 126.638 7.77993C126.443 8.10562 126.345 8.52902 126.345 9.05013C126.345 9.53215 126.436 9.94252 126.619 10.2812C126.801 10.6069 127.048 10.874 127.361 11.0824C127.687 11.2779 128.058 11.4212 128.475 11.5124C128.905 11.6036 129.361 11.6491 129.843 11.6491H131.23V6.56836C131.048 6.51625 130.853 6.48368 130.644 6.47065C130.436 6.45762 130.162 6.45111 129.823 6.45111Z" fill="white"/>
<path d="M47.8345 31.3274C47.8345 30.2071 47.9713 29.2104 48.2449 28.3376C48.5315 27.4517 48.9353 26.7091 49.4564 26.1099C49.9906 25.4976 50.6354 25.0351 51.3911 24.7224C52.1597 24.3967 53.026 24.2339 53.9901 24.2339C55.0193 24.2339 55.9182 24.4097 56.6868 24.7615C57.4685 25.1002 58.1133 25.5822 58.6214 26.2076C59.1425 26.8199 59.5268 27.5624 59.7744 28.4353C60.0349 29.3082 60.1652 30.2722 60.1652 31.3274C60.1652 32.4478 60.0219 33.451 59.7353 34.3368C59.4617 35.2097 59.0578 35.9523 58.5237 36.5646C57.9896 37.1638 57.3382 37.6263 56.5695 37.952C55.8139 38.2647 54.9541 38.421 53.9901 38.421C52.9479 38.421 52.0424 38.2516 51.2738 37.9129C50.5052 37.5612 49.8668 37.0792 49.3587 36.4669C48.8507 35.8415 48.4663 35.0924 48.2058 34.2196C47.9583 33.3467 47.8345 32.3827 47.8345 31.3274ZM49.9059 31.3274C49.9059 32.07 49.9841 32.767 50.1404 33.4184C50.3098 34.0698 50.5573 34.643 50.883 35.138C51.2217 35.6331 51.6451 36.0239 52.1532 36.3105C52.6743 36.5971 53.2866 36.7404 53.9901 36.7404C55.2538 36.7404 56.2504 36.304 56.9799 35.4312C57.7225 34.5583 58.0938 33.1904 58.0938 31.3274C58.0938 30.5979 58.0091 29.9074 57.8397 29.256C57.6834 28.6047 57.4359 28.0314 57.0972 27.5364C56.7715 27.0413 56.3481 26.6505 55.827 26.3639C55.3189 26.0643 54.7066 25.9144 53.9901 25.9144C52.7394 25.9144 51.7428 26.3574 51.0002 27.2433C50.2707 28.1291 49.9059 29.4905 49.9059 31.3274Z" fill="white"/>
<path d="M63.0392 24.4879H71.3248V26.2076H64.9933V29.9205C65.2278 29.8814 65.5144 29.8423 65.8531 29.8032C66.2049 29.7641 66.5501 29.7446 66.8888 29.7446C67.6184 29.7446 68.3089 29.8097 68.9602 29.94C69.6246 30.0703 70.2044 30.2917 70.6994 30.6044C71.2075 30.9171 71.6114 31.334 71.911 31.8551C72.2106 32.3762 72.3605 33.0276 72.3605 33.8092C72.3605 34.5909 72.2041 35.2683 71.8915 35.8415C71.5918 36.4017 71.188 36.8707 70.6799 37.2485C70.1718 37.6133 69.5791 37.8869 68.9016 38.0693C68.2242 38.2517 67.5142 38.3428 66.7716 38.3428C66.5371 38.3428 66.257 38.3363 65.9313 38.3233C65.6186 38.3233 65.2929 38.3103 64.9542 38.2842C64.6155 38.2582 64.2768 38.2256 63.9381 38.1865C63.6124 38.1474 63.3127 38.0953 63.0392 38.0302V24.4879ZM67.0061 36.6623C67.449 36.6623 67.8659 36.6102 68.2567 36.5059C68.6606 36.4017 69.0123 36.2454 69.312 36.0369C69.6116 35.8155 69.8461 35.5419 70.0155 35.2162C70.1979 34.8905 70.2891 34.5062 70.2891 34.0633C70.2891 33.49 70.1914 33.0341 69.9959 32.6953C69.8005 32.3436 69.5335 32.0765 69.1947 31.8941C68.869 31.6987 68.4847 31.575 68.0418 31.5229C67.6119 31.4577 67.1624 31.4251 66.6934 31.4251C66.5631 31.4251 66.4133 31.4317 66.244 31.4447C66.0876 31.4577 65.9248 31.4707 65.7554 31.4838C65.5861 31.4968 65.4297 31.5163 65.2864 31.5424C65.1562 31.5685 65.0584 31.588 64.9933 31.601V36.545C65.0845 36.5711 65.2083 36.5906 65.3646 36.6036C65.5209 36.6167 65.6903 36.6297 65.8727 36.6427C66.0551 36.6558 66.244 36.6623 66.4394 36.6623C66.6348 36.6623 66.8237 36.6623 67.0061 36.6623Z" fill="white"/>
<path d="M74.89 24.4879H83.1561V26.1685H76.8442V30.3308H82.6089V32.0114H76.8442V36.4864H83.2538V38.167H74.89V24.4879Z" fill="white"/>
<path d="M96.1309 26.2076H91.5191V38.167H89.5649V26.2076H84.9531V24.4879H96.1309V26.2076Z" fill="white"/>
<path d="M96.7073 31.3274C96.7073 30.2071 96.8441 29.2104 97.1177 28.3376C97.4043 27.4517 97.8082 26.7091 98.3293 26.1099C98.8634 25.4976 99.5083 25.0351 100.264 24.7224C101.033 24.3967 101.899 24.2339 102.863 24.2339C103.892 24.2339 104.791 24.4097 105.56 24.7615C106.341 25.1002 106.986 25.5822 107.494 26.2076C108.015 26.8199 108.4 27.5624 108.647 28.4353C108.908 29.3082 109.038 30.2722 109.038 31.3274C109.038 32.4478 108.895 33.451 108.608 34.3368C108.335 35.2097 107.931 35.9523 107.397 36.5646C106.862 37.1638 106.211 37.6263 105.442 37.952C104.687 38.2647 103.827 38.421 102.863 38.421C101.821 38.421 100.915 38.2516 100.147 37.9129C99.378 37.5612 98.7397 37.0792 98.2316 36.4669C97.7235 35.8415 97.3392 35.0924 97.0786 34.2196C96.8311 33.3467 96.7073 32.3827 96.7073 31.3274ZM98.7787 31.3274C98.7787 32.07 98.8569 32.767 99.0132 33.4184C99.1826 34.0698 99.4301 34.643 99.7558 35.138C100.095 35.6331 100.518 36.0239 101.026 36.3105C101.547 36.5971 102.159 36.7404 102.863 36.7404C104.127 36.7404 105.123 36.304 105.853 35.4312C106.595 34.5583 106.967 33.1904 106.967 31.3274C106.967 30.5979 106.882 29.9074 106.713 29.256C106.556 28.6047 106.309 28.0314 105.97 27.5364C105.644 27.0413 105.221 26.6505 104.7 26.3639C104.192 26.0643 103.579 25.9144 102.863 25.9144C101.612 25.9144 100.616 26.3574 99.8731 27.2433C99.1435 28.1291 98.7787 29.4905 98.7787 31.3274Z" fill="white"/>
<path d="M121.097 27.6536C121.097 27.9924 121.038 28.3311 120.921 28.6698C120.816 28.9955 120.647 29.3082 120.413 29.6078C120.191 29.8944 119.904 30.1484 119.553 30.3699C119.201 30.5914 118.784 30.7542 118.302 30.8584V30.9366C118.719 30.9887 119.123 31.0929 119.514 31.2493C119.904 31.4056 120.25 31.6206 120.549 31.8941C120.849 32.1677 121.09 32.4999 121.272 32.8908C121.455 33.2816 121.546 33.7441 121.546 34.2782C121.546 34.9817 121.383 35.594 121.057 36.1151C120.732 36.6232 120.302 37.0466 119.768 37.3853C119.234 37.711 118.628 37.952 117.95 38.1083C117.286 38.2647 116.615 38.3428 115.938 38.3428C115.703 38.3428 115.416 38.3363 115.078 38.3233C114.739 38.3233 114.381 38.3103 114.003 38.2842C113.638 38.2712 113.267 38.2451 112.889 38.2061C112.524 38.18 112.199 38.1344 111.912 38.0693V24.6052C112.446 24.514 113.071 24.4423 113.788 24.3902C114.505 24.3381 115.273 24.312 116.094 24.312C116.654 24.312 117.227 24.3642 117.814 24.4684C118.413 24.5596 118.953 24.7289 119.435 24.9765C119.918 25.224 120.315 25.5627 120.628 25.9926C120.94 26.4225 121.097 26.9762 121.097 27.6536ZM113.827 36.5646C113.918 36.5906 114.055 36.6102 114.237 36.6232C114.42 36.6362 114.615 36.6492 114.824 36.6623C115.045 36.6753 115.26 36.6883 115.469 36.7014C115.69 36.7014 115.892 36.7014 116.074 36.7014C116.517 36.7014 116.941 36.6558 117.345 36.5646C117.761 36.4734 118.126 36.3301 118.439 36.1347C118.752 35.9392 118.999 35.6917 119.181 35.3921C119.377 35.0924 119.475 34.7342 119.475 34.3173C119.475 33.7962 119.357 33.3858 119.123 33.0862C118.901 32.7735 118.608 32.539 118.243 32.3827C117.879 32.2133 117.468 32.1091 117.012 32.07C116.556 32.0179 116.107 31.9919 115.664 31.9919H113.827V36.5646ZM114.902 30.4676C115.149 30.4676 115.436 30.4611 115.762 30.4481C116.087 30.422 116.361 30.396 116.582 30.3699C116.908 30.2787 117.214 30.168 117.501 30.0377C117.801 29.8944 118.061 29.7316 118.283 29.5492C118.504 29.3538 118.68 29.1323 118.81 28.8848C118.94 28.6242 119.006 28.3311 119.006 28.0054C119.006 27.5624 118.914 27.2107 118.732 26.9501C118.563 26.6766 118.335 26.4681 118.048 26.3248C117.761 26.1815 117.436 26.0838 117.071 26.0317C116.706 25.9796 116.335 25.9535 115.957 25.9535C115.501 25.9535 115.078 25.9666 114.687 25.9926C114.309 26.0056 114.022 26.0252 113.827 26.0512V30.4676H114.902Z" fill="white"/>
<path d="M131.622 34.5909H126.209L124.763 38.167H122.848L128.476 24.2925H129.492L135.14 38.167H133.107L131.622 34.5909ZM126.795 32.9494H131.055L129.472 29.0606L128.945 26.9697H128.906L128.378 29.0997L126.795 32.9494Z" fill="white"/>
<path d="M145.917 32.0505H138.98V38.167H137.026V24.4879H138.98V30.3308H145.917V24.4879H147.871V31.3274V38.167H145.917V32.0505Z" fill="white"/>
<path d="M160.249 32.0505H153.312V38.167H151.358V24.4879H153.312V30.3308H160.249V24.4879H162.203V38.167H160.249V32.0505Z" fill="white"/>
<path d="M172.881 34.5909H167.468L166.022 38.167H164.106L169.734 24.2925H170.751L176.398 38.167H174.366L172.881 34.5909ZM168.054 32.9494H172.314L170.731 29.0606L170.203 26.9697H170.164L169.637 29.0997L168.054 32.9494Z" fill="white"/>
<path d="M187 38.167H185.046V32.3436L182.955 32.7735L179.301 38.167H177.034L180.336 33.3988L181.626 32.539C181.118 32.4478 180.649 32.3045 180.219 32.1091C179.789 31.9007 179.411 31.6336 179.086 31.3079C178.773 30.9822 178.525 30.5979 178.343 30.155C178.174 29.712 178.089 29.1974 178.089 28.6112C178.089 27.8165 178.239 27.1456 178.538 26.5984C178.838 26.0512 179.242 25.6083 179.75 25.2696C180.258 24.9309 180.857 24.6898 181.548 24.5465C182.238 24.3902 182.974 24.312 183.756 24.312C184.238 24.312 184.766 24.3381 185.339 24.3902C185.925 24.4293 186.479 24.5075 187 24.6247V38.167ZM183.639 25.9926C183.183 25.9926 182.746 26.0317 182.33 26.1099C181.913 26.188 181.541 26.3248 181.216 26.5202C180.903 26.7156 180.649 26.9827 180.454 27.3214C180.258 27.6471 180.16 28.0705 180.16 28.5916C180.16 29.0737 180.252 29.484 180.434 29.8227C180.616 30.1484 180.864 30.4155 181.177 30.6239C181.502 30.8194 181.874 30.9627 182.29 31.0539C182.72 31.1451 183.176 31.1907 183.658 31.1907H185.046V26.1099C184.863 26.0577 184.668 26.0252 184.46 26.0122C184.251 25.9991 183.978 25.9926 183.639 25.9926Z" fill="white"/>
</svg>
