<svg width="45" height="45" viewBox="0 0 45 45" fill="none" xmlns="http://www.w3.org/2000/svg">
<g clip-path="url(#clip0_108_12690)">
<path d="M24.1074 23.3929C27.4551 23.3929 30.1788 20.6692 30.1788 17.3214C30.1788 13.9736 27.4551 11.25 24.1074 11.25C24.0943 11.25 24.0813 11.2502 24.0684 11.2507H19.1088C19.1083 11.2507 19.1079 11.2506 19.1074 11.2506C18.5157 11.2506 18.036 11.7304 18.036 12.3221V12.3221V22.3214V25.5357H16.9645C16.3728 25.5357 15.8931 26.0154 15.8931 26.6071C15.8931 27.1989 16.3728 27.6786 16.9645 27.6786H18.0359V33.75C18.0359 34.3417 18.5156 34.8214 19.1074 34.8214C19.6991 34.8214 20.1788 34.3417 20.1788 33.75V27.6786H24.1074C24.6991 27.6786 25.1788 27.1989 25.1788 26.6071C25.1788 26.0154 24.6991 25.5357 24.1074 25.5357H20.1788V23.3929H24.1074ZM24.1074 13.3936C24.1189 13.3936 24.1305 13.3934 24.1419 13.393C26.2923 13.4116 28.0359 15.1667 28.0359 17.3214C28.0359 19.4876 26.2736 21.25 24.1074 21.25H20.1788V13.3936H24.1074Z" fill="#00993E"/>
</g>
<circle opacity="0.3" cx="22.5" cy="22.5" r="22" stroke="#00993E"/>
<defs>
<clipPath id="clip0_108_12690">
<rect width="23.5714" height="23.5714" fill="white" transform="translate(11.25 11.25)"/>
</clipPath>
</defs>
</svg>
