<svg width="72" height="72" viewBox="0 0 72 72" fill="none" xmlns="http://www.w3.org/2000/svg">
<path d="M41.8446 47.2218C41.433 47.2218 41.0572 46.9554 40.9184 46.5689C40.7815 46.1876 40.8988 45.75 41.2079 45.488C41.5307 45.2145 42.0034 45.1791 42.3633 45.4021C42.7071 45.6151 42.8886 46.0334 42.8087 46.4298C42.7174 46.8834 42.3085 47.2218 41.8446 47.2218Z" fill="white"/>
<path d="M36.5601 51.8631C36.3348 51.8631 36.1099 51.786 35.9273 51.6327C35.4156 51.203 23.3688 41.0677 20.9702 37.4282C19.434 35.0969 18.8074 32.9594 18.9389 30.4974C19.0714 28.0222 20.1193 25.698 21.8898 23.953C23.6862 22.1822 26.0316 21.207 28.4939 21.207C32.2996 21.207 35.2204 24.037 36.5619 25.628C37.9435 24.0467 40.9343 21.207 44.594 21.207C47.0565 21.207 49.402 22.1822 51.1985 23.9529C52.9691 25.698 54.0171 28.0222 54.1496 30.4972C54.3184 33.6451 53.1533 35.8542 52.1193 37.4272C51.4943 38.3774 46.6934 42.9859 45.7373 43.9C45.3445 44.2754 44.7217 44.2616 44.3463 43.8689C43.9708 43.4762 43.9847 42.8535 44.3774 42.4779C47.1126 39.8628 50.1412 36.8542 50.4751 36.3463C51.7826 34.3571 52.2939 32.6393 52.1848 30.6023C51.9655 26.5066 48.5603 23.1745 44.5939 23.1745C40.6401 23.1745 37.3819 27.7397 37.3495 27.7859C37.1625 28.0515 36.8567 28.2081 36.5316 28.2034C36.2067 28.199 35.9051 28.0345 35.7253 27.7637C35.6954 27.7191 32.612 23.1745 28.4939 23.1745C24.5279 23.1745 21.1229 26.5066 20.9036 30.6022C20.7961 32.6169 21.3235 34.3882 22.6131 36.3455C24.5668 39.3099 34.0888 47.49 36.5905 49.6163L38.0064 48.5306C38.4375 48.2 39.0551 48.2814 39.3858 48.7127C39.7163 49.1438 39.6349 49.7614 39.2037 50.092L37.1587 51.6601C36.9817 51.7957 36.7707 51.8631 36.5601 51.8631Z" fill="white"/>
<circle opacity="0.3" cx="36" cy="36" r="35" stroke="white" stroke-width="2"/>
</svg>
