<svg width="5" height="10" viewBox="0 0 5 10" fill="none" xmlns="http://www.w3.org/2000/svg">
<path d="M0.666863 9.66679C0.511095 9.66709 0.360138 9.61284 0.240197 9.51346C0.172691 9.45749 0.11689 9.38876 0.0759885 9.31119C0.0350872 9.23363 0.00988963 9.14876 0.00183905 9.06144C-0.00621152 8.97412 0.00304316 8.88607 0.0290728 8.80234C0.0551025 8.7186 0.0973952 8.64082 0.15353 8.57346L3.1402 5.00012L0.260197 1.42012C0.20482 1.35193 0.163465 1.27347 0.138511 1.18924C0.113556 1.10501 0.105494 1.01669 0.114786 0.929335C0.124079 0.841983 0.150544 0.757328 0.19266 0.680237C0.234776 0.603146 0.291712 0.535138 0.360197 0.480123C0.429174 0.419432 0.509951 0.373654 0.597459 0.345661C0.684968 0.317668 0.777318 0.308066 0.868713 0.317456C0.960108 0.326846 1.04858 0.355026 1.12856 0.400227C1.20855 0.445428 1.27833 0.506675 1.33353 0.580123L4.55353 4.58012C4.65158 4.69941 4.70519 4.84904 4.70519 5.00346C4.70519 5.15787 4.65158 5.3075 4.55353 5.42679L1.2202 9.42679C1.15332 9.50747 1.06836 9.57124 0.972223 9.61294C0.876083 9.65464 0.771467 9.67309 0.666863 9.66679Z" fill="#68717C"/>
</svg>
