<svg width="45" height="45" viewBox="0 0 45 45" fill="none" xmlns="http://www.w3.org/2000/svg">
<g clip-path="url(#clip0_108_12711)">
<path d="M15.0762 24.3496C14.6703 24.5903 14.3974 25.0329 14.3974 25.5381C14.3974 26.2996 15.017 26.9192 15.7785 26.9192C16.3787 26.9192 16.8904 26.5343 17.0805 25.9985H20.6586C21.4201 25.9985 22.0397 26.618 22.0397 27.3796C22.0397 28.1412 21.4201 28.7607 20.6586 28.7607H15.134C13.8647 28.7607 12.8321 29.7934 12.8321 31.0626C12.8321 32.3319 13.8647 33.3645 15.134 33.3645H19.7378C19.9921 33.3645 20.1982 33.1584 20.1982 32.9042C20.1982 32.6499 19.9921 32.4438 19.7378 32.4438H15.134C14.3724 32.4438 13.7529 31.8242 13.7529 31.0626C13.7529 30.3011 14.3724 29.6815 15.134 29.6815H20.6586C21.9278 29.6815 22.9604 28.6489 22.9604 27.3796C22.9604 26.1103 21.9278 25.0777 20.6586 25.0777H17.0805C16.9716 24.7707 16.7572 24.5134 16.4809 24.3496L19.9972 18.5803C20.5503 17.7488 20.8427 16.78 20.8427 15.778C20.8427 12.9857 18.5709 10.7139 15.7785 10.7139C12.9861 10.7139 10.7144 12.9857 10.7144 15.778C10.7144 16.78 11.0067 17.7488 11.5599 18.5803L15.0762 24.3496ZM15.7785 25.9985C15.5247 25.9985 15.3182 25.7919 15.3182 25.5381C15.3182 25.2842 15.5247 25.0777 15.7785 25.0777C16.0324 25.0777 16.2389 25.2842 16.2389 25.5381C16.2389 25.7919 16.0324 25.9985 15.7785 25.9985ZM15.7785 11.6346C18.0632 11.6346 19.9219 13.4934 19.9219 15.778C19.9219 16.6006 19.6813 17.3956 19.2261 18.0769C19.2225 18.0822 19.2191 18.0876 19.2158 18.0931L15.7785 23.7327C15.7785 23.7327 12.3345 18.0822 12.331 18.0769C11.8758 17.3956 11.6351 16.6006 11.6351 15.778C11.6351 13.4934 13.4939 11.6346 15.7785 11.6346Z" fill="#00993E"/>
<path d="M15.7785 18.0804C17.0477 18.0804 18.0804 17.0477 18.0804 15.7785C18.0804 14.5092 17.0477 13.4766 15.7785 13.4766C14.5092 13.4766 13.4766 14.5092 13.4766 15.7785C13.4766 17.0477 14.5092 18.0804 15.7785 18.0804ZM15.7785 14.3973C16.54 14.3973 17.1596 15.0169 17.1596 15.7785C17.1596 16.54 16.54 17.1596 15.7785 17.1596C15.0169 17.1596 14.3973 16.54 14.3973 15.7785C14.3973 15.0169 15.0169 14.3973 15.7785 14.3973Z" fill="#00993E"/>
<path d="M29.2217 18.3564C26.4293 18.3564 24.1575 20.6282 24.1575 23.4206C24.1575 24.4242 24.4508 25.3945 25.0057 26.2268L28.5089 31.7219C28.2376 31.886 28.0273 32.1409 27.9198 32.4441H23.8813C23.627 32.4441 23.4209 32.6502 23.4209 32.9044C23.4209 33.1587 23.627 33.3648 23.8813 33.3648H27.9197C28.1098 33.9007 28.6215 34.2856 29.2217 34.2856C29.9832 34.2856 30.6028 33.666 30.6028 32.9044C30.6028 32.4035 30.3347 31.9641 29.9345 31.7219L33.4377 26.2268C33.9925 25.3945 34.2859 24.4242 34.2859 23.4206C34.2859 20.6282 32.0141 18.3564 29.2217 18.3564ZM29.2217 33.3648C28.9678 33.3648 28.7613 33.1583 28.7613 32.9044C28.7613 32.6506 28.9678 32.4441 29.2217 32.4441C29.4755 32.4441 29.6821 32.6506 29.6821 32.9044C29.6821 33.1583 29.4755 33.3648 29.2217 33.3648ZM32.6692 25.7195C32.6674 25.7223 29.2217 31.1272 29.2217 31.1272C29.2217 31.1272 25.7759 25.7222 25.7741 25.7195C25.3189 25.0382 25.0783 24.2432 25.0783 23.4206C25.0783 21.1359 26.937 19.2772 29.2217 19.2772C31.5064 19.2772 33.3651 21.1359 33.3651 23.4206C33.3651 24.2432 33.1245 25.0382 32.6692 25.7195Z" fill="#00993E"/>
<path d="M29.2218 21.1182C27.9526 21.1182 26.9199 22.1508 26.9199 23.4201C26.9199 24.6893 27.9526 25.722 29.2218 25.722C30.4911 25.722 31.5237 24.6893 31.5237 23.4201C31.5237 22.1508 30.4911 21.1182 29.2218 21.1182ZM29.2218 24.8012C28.4603 24.8012 27.8407 24.1816 27.8407 23.4201C27.8407 22.6585 28.4603 22.0389 29.2218 22.0389C29.9834 22.0389 30.603 22.6585 30.603 23.4201C30.603 24.1816 29.9834 24.8012 29.2218 24.8012Z" fill="#00993E"/>
<path d="M21.8095 33.3641C22.0638 33.3641 22.2699 33.158 22.2699 32.9037C22.2699 32.6495 22.0638 32.4434 21.8095 32.4434C21.5552 32.4434 21.3491 32.6495 21.3491 32.9037C21.3491 33.158 21.5552 33.3641 21.8095 33.3641Z" fill="#00993E"/>
</g>
<circle opacity="0.3" cx="22.5" cy="22.5" r="22" stroke="#00993E"/>
<defs>
<clipPath id="clip0_108_12711">
<rect width="23.5714" height="23.5714" fill="white" transform="translate(10.7144 10.7139)"/>
</clipPath>
</defs>
</svg>
