<svg width="45" height="45" viewBox="0 0 45 45" fill="none" xmlns="http://www.w3.org/2000/svg">
<g clip-path="url(#clip0_108_12697)">
<path d="M31.8182 28.2397C31.4102 27.9361 30.8335 28.0209 30.5299 28.4288C30.363 28.6532 30.1844 28.8733 29.999 29.083C29.6622 29.464 29.698 30.0459 30.0789 30.3828C30.2542 30.5376 30.4717 30.6137 30.6884 30.6137C30.9431 30.6137 31.1967 30.5086 31.3786 30.3027C31.5982 30.0544 31.8097 29.7937 32.0074 29.528C32.3109 29.12 32.2263 28.5432 31.8182 28.2397Z" fill="#00993E"/>
<path d="M33.3585 23.9216C32.8619 23.8135 32.3711 24.1286 32.263 24.6255C32.2035 24.8988 32.1316 25.1726 32.0491 25.4395C31.899 25.9254 32.1711 26.4409 32.657 26.591C32.7475 26.619 32.8391 26.6323 32.9291 26.6323C33.3223 26.6323 33.6863 26.3784 33.8085 25.983C33.9064 25.6664 33.9918 25.3414 34.0624 25.0172C34.1705 24.5203 33.8554 24.0298 33.3585 23.9216Z" fill="#00993E"/>
<path d="M27.3866 31.1883C27.1421 31.3247 26.889 31.4522 26.6343 31.5673C26.1708 31.7766 25.9648 32.3219 26.1741 32.7854C26.3279 33.1259 26.663 33.3274 27.0138 33.3274C27.1405 33.3274 27.2693 33.3011 27.3922 33.2456C27.6944 33.1091 27.9945 32.9579 28.2843 32.7961C28.7283 32.5482 28.8873 31.9873 28.6394 31.5433C28.3915 31.0994 27.8306 30.9404 27.3866 31.1883Z" fill="#00993E"/>
<path d="M21.5791 15.1336V22.1183L18.2028 25.4947C17.8432 25.8543 17.8432 26.4373 18.2028 26.7968C18.3826 26.9766 18.6182 27.0665 18.8539 27.0665C19.0895 27.0665 19.3252 26.9766 19.505 26.7968L23.151 23.1508C23.3237 22.9781 23.4207 22.7439 23.4207 22.4997V15.1336C23.4207 14.6251 23.0084 14.2129 22.4999 14.2129C21.9914 14.2129 21.5791 14.6251 21.5791 15.1336Z" fill="#00993E"/>
<path d="M33.365 12.6935C32.8565 12.6935 32.4443 13.1057 32.4443 13.6143V16.171C30.3011 12.8099 26.5584 10.7139 22.5001 10.7139C19.352 10.7139 16.3924 11.9398 14.1663 14.1658C11.9403 16.3919 10.7144 19.3515 10.7144 22.4996C10.7144 25.6477 11.9403 28.6073 14.1663 30.8334C16.3924 33.0594 19.352 34.2853 22.5001 34.2853C22.5078 34.2853 22.5154 34.2843 22.5231 34.2841C22.5308 34.2843 22.5383 34.2853 22.5461 34.2853C22.8779 34.2853 23.2131 34.2713 23.5422 34.2438C24.049 34.2013 24.4254 33.7561 24.383 33.2494C24.3405 32.7427 23.8959 32.3661 23.3886 32.4087C23.1103 32.4319 22.8269 32.4438 22.5461 32.4438C22.5383 32.4438 22.5308 32.4447 22.5231 32.4449C22.5154 32.4447 22.5078 32.4438 22.5001 32.4438C17.0168 32.4438 12.5559 27.9828 12.5559 22.4996C12.5559 17.0163 17.0168 12.5554 22.5001 12.5554C26.0339 12.5554 29.2841 14.4389 31.0602 17.4354H28.5284C28.0199 17.4354 27.6077 17.8476 27.6077 18.3562C27.6077 18.8647 28.0199 19.2769 28.5284 19.2769H31.3394C31.9001 19.2769 32.4247 19.1193 32.8714 18.8463C32.9001 18.8299 32.9277 18.8123 32.954 18.7933C33.7554 18.2661 34.2858 17.3593 34.2858 16.3305V13.6143C34.2858 13.1057 33.8736 12.6935 33.365 12.6935Z" fill="#00993E"/>
</g>
<circle opacity="0.3" cx="22.5" cy="22.5" r="22" stroke="#00993E"/>
<defs>
<clipPath id="clip0_108_12697">
<rect width="23.5714" height="23.5714" fill="white" transform="translate(10.7144 10.7139)"/>
</clipPath>
</defs>
</svg>
