<svg width="66" height="66" viewBox="0 0 66 66" fill="none" xmlns="http://www.w3.org/2000/svg">
<path d="M30.9378 2.06267C31.5162 2.06267 31.9837 1.5812 31.9444 0.996985C31.9074 0.44804 31.4296 0.0360311 30.88 0.0682359C30.3297 0.100574 29.9099 0.572866 29.9422 1.12314C29.9735 1.65346 30.4133 2.06267 30.9378 2.06267ZM34.9708 2.05695C35.4955 2.05695 35.9356 1.6472 35.9662 1.11662C35.9983 0.563684 35.5709 0.0935206 35.0151 0.0617151C34.4662 0.0303087 33.9926 0.449237 33.9602 0.999514C33.9264 1.57374 34.3931 2.05695 34.9708 2.05695ZM27.1534 2.54747C27.6948 2.44394 28.0498 1.92108 27.9463 1.37972C27.8428 0.838356 27.3207 0.483305 26.7786 0.58684C26.2315 0.691306 25.872 1.21111 25.9782 1.75885C26.0839 2.30274 26.6221 2.64914 27.1534 2.54747ZM1.7372 26.0455C2.25713 26.1794 2.81379 25.8673 2.95273 25.3278C3.09179 24.7881 2.77427 24.2357 2.23491 24.0986C1.7002 23.9627 1.15738 24.2864 1.02204 24.8206L1.01964 24.83C0.882172 25.3638 1.20342 25.9079 1.7372 26.0455ZM23.3691 3.522C23.8998 3.34927 24.1967 2.78675 24.0208 2.2551C23.8475 1.73131 23.281 1.45278 22.7555 1.62258C22.231 1.79199 21.9432 2.35464 22.1126 2.8791C22.2839 3.40915 22.8564 3.68875 23.3691 3.522ZM4.47088 47.5614C3.9898 47.8302 3.81786 48.4382 4.08628 48.9195L4.08921 48.9249C4.27099 49.2553 4.61247 49.4422 4.96473 49.4422C5.12735 49.4422 5.29223 49.4024 5.44474 49.3184C5.92768 49.0528 6.10401 48.4458 5.83838 47.9629C5.83719 47.9608 5.8296 47.9471 5.82854 47.9451C5.55945 47.4641 4.95182 47.2926 4.47088 47.5614ZM1.24361 30.0259C1.74265 30.0259 2.17369 29.6526 2.23344 29.1448C2.3057 28.5984 1.92138 28.0968 1.37496 28.0244C0.820424 27.9509 0.319519 28.354 0.251118 28.9104C0.178989 29.4969 0.647423 30.0259 1.24361 30.0259ZM2.85997 22.1831C3.36128 22.3791 3.94296 22.1334 4.15282 21.6166C4.36029 21.106 4.11436 20.5237 3.60374 20.3163C3.09339 20.1088 2.51091 20.3545 2.30344 20.8652C2.09251 21.3846 2.33924 21.9795 2.85997 22.1831ZM19.7519 4.96203C20.2611 4.72289 20.4898 4.11712 20.2404 3.60997C19.9973 3.11545 19.4031 2.90971 18.9082 3.15298C18.4128 3.39638 18.191 3.98072 18.425 4.48096C18.6612 4.98612 19.2623 5.19199 19.7519 4.96203ZM63.0228 25.2328C63.1614 25.7713 63.7128 26.0875 64.2356 25.9548C64.77 25.8192 65.0932 25.2762 64.9576 24.7419L64.9535 24.7255C64.8159 24.1916 64.2726 23.875 63.7391 24.0126C63.2054 24.1501 62.8853 24.6991 63.0228 25.2328ZM61.0426 49.4287C61.3972 49.4287 61.7407 49.2392 61.9214 48.9055L61.9245 48.8998C62.1901 48.4168 62.0139 47.81 61.5308 47.5442C61.0476 47.2783 60.4409 47.4549 60.1753 47.9379L60.1656 47.9557C59.8054 48.5995 60.3012 49.4287 61.0426 49.4287ZM62.3747 20.2258C61.8613 20.4263 61.6076 21.0051 61.8082 21.5186L61.8202 21.5487C62.0323 22.0641 62.6251 22.3005 63.125 22.0942C63.6345 21.8839 63.8786 21.3041 63.6683 20.7946L63.6675 20.7923C63.467 20.2787 62.8881 20.025 62.3747 20.2258ZM64.6131 27.93C64.0666 28.0023 63.6822 28.5035 63.7544 29.05C63.8272 29.5996 64.3228 29.9881 64.8623 29.9246C65.4098 29.8602 65.8013 29.3642 65.7369 28.8167L65.7334 28.7892C65.6613 28.2426 65.1604 27.8582 64.6131 27.93ZM61.5117 18.4097C61.9928 18.1409 62.1647 17.5328 61.8963 17.0516L61.8934 17.0462C61.6276 16.5631 61.0206 16.3869 60.5378 16.6525C60.0549 16.9181 59.8786 17.5251 60.1442 18.008C60.1454 18.0102 60.153 18.0239 60.154 18.0259C60.4154 18.5179 61.0382 18.6742 61.5117 18.4097ZM42.5437 3.49366C43.0558 3.65654 43.6288 3.38147 43.8002 2.85076C43.9697 2.3263 43.6818 1.76365 43.1573 1.59424C42.6269 1.42283 42.0601 1.70669 41.8909 2.2386C41.7238 2.76386 42.0185 3.32651 42.5437 3.49366ZM38.7836 2.53563C39.3138 2.62972 39.8464 2.274 39.943 1.72678C40.0388 1.18396 39.6795 0.666819 39.1365 0.571003L39.134 0.570471C38.5937 0.46534 38.0691 0.81906 37.964 1.36015C37.8574 1.90937 38.2298 2.43728 38.7836 2.53563ZM46.161 4.92105C46.6508 5.15007 47.2513 4.95285 47.4913 4.44902C47.7283 3.95131 47.517 3.35579 47.0193 3.11878C46.515 2.8787 45.9137 3.08644 45.6769 3.5928C45.4432 4.09197 45.6617 4.6875 46.161 4.92105ZM5.414 16.7256C4.928 16.4626 4.32476 16.6492 4.05807 17.1341C3.79245 17.6171 3.96864 18.2239 4.45171 18.4896C4.9292 18.7523 5.54841 18.5748 5.81696 18.0783C6.07912 17.5935 5.89867 16.988 5.414 16.7256ZM56.4216 49.769C54.8492 49.769 53.4034 50.3185 52.2633 51.2338L48.7285 47.699C52.33 43.8475 54.5384 38.6777 54.5384 33.0012C54.5384 27.518 52.4777 22.5078 49.0915 18.7015L52.7002 15.0928C53.7631 15.8125 55.044 16.2333 56.4215 16.2333C60.0904 16.2333 63.0753 13.2484 63.0753 9.57943C63.0753 5.91048 60.0904 2.92555 56.4215 2.92555C52.7525 2.92555 49.7676 5.91048 49.7676 9.57943C49.7676 11.1519 50.3171 12.5976 51.2324 13.7377L47.6976 17.2725C43.846 13.671 38.6764 11.4626 32.9998 11.4626C28.8161 11.4626 24.7592 12.6635 21.2674 14.9355C20.2046 15.627 19.2104 16.4062 18.2935 17.2627L14.7678 13.7369C15.6828 12.5971 16.232 11.1516 16.232 9.57943C16.232 5.91048 13.2471 2.92555 9.57813 2.92555C5.90918 2.92555 2.92425 5.91048 2.92425 9.57943C2.92425 13.2484 5.90918 16.2333 9.57813 16.2333C10.9559 16.2333 12.2372 15.8123 13.3002 15.0923L16.9013 18.6934C15.5125 20.2548 14.35 22.0145 13.4599 23.9285C13.2274 24.4284 13.4442 25.0219 13.944 25.2544C14.4438 25.4871 15.0375 25.2702 15.2699 24.7702C16.2022 22.7656 17.4631 20.9469 18.9907 19.3771C18.9916 19.3762 18.9927 19.3754 18.9938 19.3743C18.9958 19.3722 18.9975 19.37 18.9995 19.368C20.0077 18.3334 21.1307 17.406 22.3561 16.6087C25.523 14.548 29.2036 13.4588 32.9997 13.4588C43.7754 13.4588 52.5421 22.2254 52.5421 33.0012C52.5421 43.7771 43.7755 52.5437 32.9997 52.5437C22.2238 52.5437 13.4572 43.7771 13.4572 33.0012C13.4572 31.7269 13.5806 30.4524 13.8238 29.213C13.93 28.6722 13.5776 28.1476 13.0367 28.0414C12.4963 27.9354 11.9713 28.2876 11.8651 28.8286C11.5969 30.1942 11.4609 31.5981 11.4609 33.0012C11.4609 38.6778 13.6693 43.8475 17.2708 47.699L13.736 51.2338C12.5959 50.3185 11.1502 49.769 9.57773 49.769C5.90878 49.769 2.92385 52.754 2.92385 56.4229C2.92385 60.0919 5.90878 63.0768 9.57773 63.0768C13.2467 63.0768 16.2316 60.0919 16.2316 56.4229C16.2316 55.0454 15.8108 53.7644 15.0911 52.7017L18.6998 49.093C22.5061 52.4791 27.5163 54.5399 32.9995 54.5399C38.4827 54.5399 43.493 52.4791 47.2993 49.093L50.9079 52.7017C50.1882 53.7645 49.7674 55.0456 49.7674 56.4229C49.7674 60.0919 52.7524 63.0768 56.4213 63.0768C60.0903 63.0768 63.0752 60.0919 63.0752 56.4229C63.0752 52.754 60.0905 49.769 56.4216 49.769ZM56.4216 4.92184C58.9899 4.92184 61.0793 7.0113 61.0793 9.57956C61.0793 12.1478 58.9899 14.2373 56.4216 14.2373C53.8533 14.2373 51.7639 12.1478 51.7639 9.57956C51.7639 7.0113 53.8533 4.92184 56.4216 4.92184ZM9.57826 14.2373C7.01 14.2373 4.92055 12.1478 4.92055 9.57956C4.92055 7.0113 7.01 4.92184 9.57826 4.92184C12.1465 4.92184 14.236 7.0113 14.236 9.57956C14.236 12.1478 12.1465 14.2373 9.57826 14.2373ZM9.57826 61.0806C7.01 61.0806 4.92055 58.9912 4.92055 56.4229C4.92055 53.8546 7.01 51.7652 9.57826 51.7652C12.1465 51.7652 14.236 53.8546 14.236 56.4229C14.236 58.9912 12.1465 61.0806 9.57826 61.0806ZM56.4216 61.0806C53.8533 61.0806 51.7639 58.9912 51.7639 56.4229C51.7639 53.8546 53.8533 51.7652 56.4216 51.7652C58.9899 51.7652 61.0793 53.8546 61.0793 56.4229C61.0793 58.9912 58.9899 61.0806 56.4216 61.0806ZM46.2155 61.0557C46.2136 61.0565 46.1996 61.0632 46.1978 61.064C45.6999 61.3006 45.4882 61.8961 45.7249 62.394C45.9644 62.8977 46.5665 63.0998 47.0549 62.8668L47.0613 62.8639C47.5606 62.6303 47.7761 62.0363 47.5425 61.5369C47.309 61.0376 46.7149 60.8222 46.2155 61.0557ZM42.5966 62.4915L42.575 62.4986C42.0528 62.6726 41.7719 63.236 41.9449 63.7584C42.1197 64.2869 42.6944 64.5614 43.2057 64.3925L43.2102 64.3911C43.7346 64.2217 44.0225 63.659 43.8531 63.1345C43.6837 62.6101 43.1212 62.3218 42.5966 62.4915ZM21.3028 41.7809C20.9314 43.4329 21.7231 45.1681 23.2283 46.0007C24.7426 46.838 26.3591 47.477 28.0329 47.9002C28.115 47.921 28.1973 47.9308 28.2782 47.9308C28.7244 47.9308 29.1308 47.6294 29.2451 47.1771C29.3802 46.6426 29.0566 46.0999 28.522 45.9649C27.0145 45.5839 25.5584 45.0082 24.1942 44.2539C23.4603 43.848 23.0721 43.0111 23.2503 42.2186C23.7395 40.0394 24.9698 38.0614 26.7152 36.6481C27.5778 35.9482 28.5374 35.4049 29.5729 35.0284C30.5823 35.6125 31.7522 35.9488 32.9998 35.9488C34.2477 35.9488 35.4177 35.6125 36.4271 35.0283C39.602 36.188 42.0053 38.9052 42.7493 42.2177C42.9274 43.0099 42.5389 43.8475 41.8055 44.254C39.1251 45.7361 36.0796 46.5194 32.9983 46.5194C32.4471 46.5194 32.0003 46.9663 32.0003 47.5175C32.0003 48.0687 32.4471 48.5156 32.9983 48.5156C36.4166 48.5156 39.7961 47.646 42.7724 46.0004C44.2767 45.1664 45.0681 43.4308 44.6969 41.7801C43.8885 38.1813 41.448 35.1679 38.1663 33.597C39.2226 32.3892 39.865 30.8105 39.865 29.0836V21.925C39.865 19.4781 37.8743 17.4873 35.4274 17.4873H30.5721C28.1252 17.4873 26.1345 19.478 26.1345 21.925V26.3136V26.3198V29.0836C26.1345 30.8098 26.7763 32.3881 27.8321 33.5958C26.9877 33.9989 26.1933 34.5012 25.4582 35.0976C23.3659 36.7917 21.8899 39.1655 21.3028 41.7809ZM28.1309 21.9249C28.1309 20.5787 29.2261 19.4833 30.5723 19.4833H35.4277C36.7739 19.4833 37.8691 20.5786 37.8691 21.9249V24.4361C36.0429 23.3049 33.845 23.0392 31.7924 23.7153L28.1308 24.9216V21.9249H28.1309ZM28.1309 27.0233L32.417 25.6113C33.9689 25.1 35.6365 25.3298 36.9921 26.2424L37.8691 26.8326V29.0834C37.8691 31.7683 35.6848 33.9525 33.0001 33.9525C30.3152 33.9525 28.1309 31.7681 28.1309 29.0834V27.0233ZM65.9995 32.9706C65.9997 32.9613 65.9999 32.952 65.9999 32.9427V32.9292C65.9999 32.378 65.553 31.9312 65.0018 31.9312C64.4506 31.9312 64.0037 32.378 64.0037 32.9292V32.9427C64.0037 32.9529 64.0038 32.963 64.0041 32.9732C64.0038 32.9825 64.0037 32.9918 64.0037 33.0011V33.0145C63.9907 34.2818 66.0121 34.2994 65.9999 33.0145V33.0011C66 32.991 65.9999 32.9807 65.9995 32.9706ZM0.998082 34.0354C1.54929 34.0354 1.99616 33.5885 1.99616 33.0373V33.0239C1.99616 32.4727 1.54929 32.0258 0.998082 32.0258C0.446875 32.0258 0 32.4727 0 33.0239C0 33.5795 0.442749 34.0354 0.998082 34.0354ZM64.873 36.0236C64.3269 35.957 63.8302 36.3484 63.7619 36.8939C63.7616 36.8963 63.7606 36.9052 63.7602 36.9077C63.6811 37.4925 64.1569 38.0192 64.7523 38.0192C65.2489 38.0192 65.6795 37.6466 65.7426 37.1415C65.7429 37.1392 65.7439 37.1301 65.7444 37.1277C65.8086 36.5816 65.4187 36.0897 64.873 36.0236ZM38.825 63.4589C38.2822 63.5547 37.9197 64.0723 38.0155 64.6152C38.1118 65.1612 38.6392 65.5204 39.1718 65.4247L39.2016 65.4191C39.7427 65.3141 40.098 64.7899 39.993 64.2489C39.8882 63.7077 39.3666 63.3537 38.825 63.4589ZM64.2538 39.9919C63.72 39.8543 63.1757 40.1756 63.0384 40.7095L63.0341 40.7259C62.8711 41.3437 63.3565 41.9697 64.0022 41.9697C64.448 41.9697 64.8543 41.6687 64.9689 41.2169L64.9714 41.2075C65.1088 40.6736 64.7875 40.1294 64.2538 39.9919ZM63.1267 43.8528C62.6133 43.652 62.0345 43.9058 61.8339 44.4193C61.581 45.0662 62.061 45.7933 62.7582 45.7933C63.1523 45.7933 63.5258 45.5583 63.6832 45.1707L63.6932 45.1456C63.8938 44.6322 63.6401 44.0533 63.1267 43.8528ZM34.9667 63.9438L34.9398 63.9455C34.3921 63.9852 33.9827 64.4599 34.0194 65.0077C34.0564 65.558 34.5375 65.9719 35.0806 65.9366L35.0838 65.9365C35.6341 65.9042 36.0539 65.4319 36.0215 64.8816C35.9893 64.3312 35.5167 63.9104 34.9667 63.9438ZM3.61186 45.7433C4.12527 45.5427 4.37892 44.964 4.17837 44.4504L4.1664 44.4204C3.95613 43.9108 3.37112 43.6643 2.86157 43.8749C2.35201 44.0851 2.10795 44.665 2.31821 45.1745L2.31901 45.1768C2.52142 45.6967 3.10923 45.9396 3.61186 45.7433ZM19.8063 61.0661C19.3084 60.829 18.7131 61.0404 18.4761 61.5381C18.2391 62.0359 18.4504 62.6314 18.9481 62.8684C19.4417 63.1034 20.0507 62.9072 20.2905 62.3944C20.524 61.8951 20.3057 61.2997 19.8063 61.0661ZM1.38241 38.0369C1.92883 37.9646 2.31329 37.4635 2.24103 36.9169C2.17662 36.3696 1.68144 35.979 1.13316 36.0423C0.585675 36.1067 0.19416 36.6027 0.25857 37.1502C0.32431 37.7102 0.835328 38.1093 1.38241 38.0369ZM2.96816 40.7349C2.83269 40.2007 2.29027 39.8776 1.75529 40.013C1.22099 40.1486 0.897742 40.6915 1.03335 41.2258C1.17148 41.7704 1.72482 42.0908 2.25181 41.9551C2.78571 41.8178 3.10563 41.2688 2.96816 40.7349ZM31.0662 63.9458C30.5154 63.906 30.0384 64.3193 29.9986 64.8691C29.9583 65.4257 30.3885 65.9056 30.9488 65.9385C30.9688 65.9397 30.9886 65.9402 31.0083 65.9402C31.5327 65.9402 31.9727 65.5311 32.0038 65.0007C32.0362 64.4504 31.6166 63.9781 31.0662 63.9458ZM23.435 62.5019C22.9128 62.3249 22.3464 62.6052 22.1697 63.1274C21.9545 63.7631 22.4509 64.4499 23.1288 64.4499C23.5522 64.4499 23.9461 64.1793 24.0812 63.7548C24.2483 63.2296 23.9602 62.669 23.435 62.5019ZM27.2108 63.4656L27.181 63.4601C26.6382 63.3641 26.1174 63.7261 26.0216 64.2689C25.9258 64.8117 26.2851 65.3289 26.8281 65.4247C26.8931 65.4361 26.9581 65.4437 27.0218 65.4437C27.4901 65.4437 27.908 65.1125 28.0005 64.6355C28.1055 64.0944 27.7519 63.5706 27.2108 63.4656Z" fill="white"/>
</svg>
