<svg width="66" height="66" viewBox="0 0 66 66" fill="none" xmlns="http://www.w3.org/2000/svg">
<g filter="url(#filter0_d_108_11192)">
<path d="M51.3841 57.9037C50.9822 57.5521 50.3715 57.5933 50.0199 57.9951L46.034 62.5537C45.6118 63.037 45.0258 63.315 44.3841 63.3367C43.7406 63.3596 43.1389 63.1206 42.685 62.6673L39.613 59.5966V57.5659C39.613 57.032 39.1803 56.5991 38.6462 56.5991C38.1122 56.5991 37.6794 57.032 37.6794 57.5659V59.9921V60.002V65.0332C37.6794 65.5671 38.1122 66 38.6462 66C39.1803 66 39.613 65.5671 39.613 65.0332V62.3306L41.3182 64.035C42.1094 64.8254 43.1921 65.2716 44.3079 65.2716C45.5204 65.2716 46.6923 64.7396 47.4898 63.8263L51.4756 59.2679C51.8271 58.8658 51.786 58.2551 51.3841 57.9037ZM11.2326 56.5991C10.6986 56.5991 10.2658 57.032 10.2658 57.5659V65.0332C10.2658 65.5671 10.6986 66 11.2326 66C11.7667 66 12.1994 65.5671 12.1994 65.0332V57.5659C12.1994 57.032 11.7666 56.5991 11.2326 56.5991ZM64.7755 15.3272L58.2953 10.0619C57.8471 9.69788 57.2449 9.62569 56.7234 9.87396C56.202 10.1221 55.878 10.635 55.878 11.2125V23.6392C55.878 23.641 55.8784 23.6427 55.8784 23.6445V39.3254L46.1439 50.4276L43.0601 44.67C41.5882 41.9201 38.8716 39.9765 35.7925 39.471C34.5228 39.2625 31.5591 38.778 30.4911 38.6023C29.6929 38.4709 29.1133 37.789 29.1133 36.9806V35.8381C29.8667 35.3631 30.574 34.8034 31.219 34.1578C33.4856 31.8899 34.7338 28.8756 34.7338 25.6704V25.2502H35.1063C37.0192 25.2589 38.6461 23.6323 38.6461 21.7104C38.6461 20.6907 38.1983 19.743 37.472 19.0846C38.034 18.2829 38.1934 17.2295 37.8736 16.3046C37.5974 15.5063 36.9964 14.8518 36.2245 14.5092C36.123 14.4641 36.0205 14.4207 35.9184 14.3767V7.41727C35.9184 3.32746 32.591 0 28.5012 0H16.9654C12.8755 0 9.54809 3.32746 9.54809 7.41727V14.3767C9.44625 14.4207 9.34416 14.4641 9.24271 14.509C8.47069 14.8518 7.8696 15.5063 7.59348 16.3047C7.26954 17.2416 7.42861 18.2788 7.99322 19.0857C7.26761 19.7437 6.82043 20.6907 6.82043 21.7104C6.82043 23.6271 8.42866 25.2611 10.3615 25.2502H10.734V25.6704C10.734 29.9458 12.9806 33.7056 16.3545 35.8326V37.1779C16.3545 37.9206 15.8503 38.564 15.1291 38.7425L7.1008 40.7225C3.20448 41.6835 0.483398 45.1573 0.483398 49.17V65.0332C0.483398 65.5671 0.916137 66 1.4502 66C1.98425 66 2.41699 65.5671 2.41699 65.0332V49.17C2.41699 46.049 4.53337 43.3473 7.5637 42.5999L13.7824 41.0663C15.705 44.1496 19.0686 46.0355 22.7335 46.0355C26.5363 46.0355 29.969 44.0415 31.8567 40.7854L35.4795 41.379C37.9688 41.7878 40.1654 43.3592 41.3554 45.5827L44.4759 51.4085C44.7663 51.9519 45.3055 52.3184 45.9181 52.3888C46.5317 52.4592 47.1404 52.224 47.5469 51.7602L54.1682 44.2087L58.3739 48.4159C58.3779 48.4198 58.3822 48.4231 58.3862 48.427L52.9948 54.593C52.6432 54.9949 52.6844 55.6056 53.0863 55.9572C53.4868 56.3074 54.0978 56.269 54.4505 55.8658L63.3364 45.7033C65.1552 43.6403 64.8362 40.3411 62.7067 38.6387C61.2761 37.4951 59.4027 37.2771 57.8119 37.9183V24.099L64.7755 18.4411C65.2464 18.0583 65.5166 17.4909 65.5166 16.884C65.5166 16.2773 65.2464 15.7098 64.7755 15.3272ZM36.7125 21.7104C36.7125 22.5818 35.9784 23.3209 35.1063 23.3166H34.7338V20.3827C35.1008 20.409 35.4658 20.3687 35.8136 20.2677C36.3538 20.5341 36.7125 21.0938 36.7125 21.7104ZM10.734 23.3166H10.3615C9.48441 23.3211 8.75402 22.583 8.75402 21.7104C8.75402 21.0943 9.11187 20.5357 9.65057 20.2696C9.99848 20.3707 10.3693 20.4118 10.7339 20.385V23.3166H10.734ZM10.9734 18.3627C10.4195 18.6083 9.77793 18.368 9.48969 17.8308C9.18599 17.2649 9.44071 16.5369 10.0272 16.2765C15.3405 13.918 21.195 13.0858 26.9596 13.8702C27.4877 13.9415 27.9759 13.5716 28.0478 13.0426C28.1199 12.5136 27.7493 12.0263 27.2201 11.9543C21.8999 11.2303 16.5066 11.8042 11.4816 13.6117V7.41727C11.4816 4.39351 13.9415 1.93359 16.9652 1.93359H28.5012C31.5249 1.93359 33.9848 4.39351 33.9848 7.41727V13.6113C33.2448 13.3453 32.4957 13.1051 31.7424 12.8932C31.229 12.7488 30.6945 13.048 30.5499 13.562C30.4052 14.0759 30.7047 14.6098 31.2186 14.7545C32.6548 15.1586 34.075 15.6706 35.4398 16.2763C36.0214 16.5345 36.2777 17.2633 35.9794 17.8268C35.6963 18.3615 35.061 18.6139 34.4935 18.3626C27.2789 15.1678 18.2841 15.1215 10.9734 18.3627ZM12.6676 25.6704V19.7491C19.1183 17.1692 26.35 17.1693 32.8003 19.7495V25.6704C32.8003 28.3594 31.7531 30.8883 29.8516 32.7909C27.9656 34.6782 25.4247 35.7404 22.734 35.7404C17.1833 35.7405 12.6676 31.223 12.6676 25.6704ZM22.7335 44.1019C19.954 44.1019 17.387 42.7728 15.7767 40.5659C17.353 40.0763 18.4461 38.4997 18.2879 36.8196C19.6636 37.3706 21.164 37.6741 22.7339 37.6741C24.2819 37.6741 25.784 37.3804 27.1798 36.8237C27.0808 38.4893 28.2284 39.9937 29.7949 40.4251C28.1963 42.7203 25.5932 44.1019 22.7335 44.1019ZM61.499 40.1485C62.7946 41.1841 62.9858 43.1795 61.8807 44.4305L59.6614 46.9685L55.4459 42.7516L57.4098 40.5119C58.4592 39.314 60.2558 39.1549 61.499 40.1485ZM63.5562 16.9403L57.8119 21.6077L57.8115 12.1604L63.5561 16.8279C63.5853 16.8461 63.5861 16.9215 63.5562 16.9403ZM28.0567 24.9381C28.5908 24.9381 29.0235 24.5052 29.0235 23.9713V21.8412C29.0235 21.3073 28.5908 20.8744 28.0567 20.8744C27.5226 20.8744 27.0899 21.3073 27.0899 21.8412V23.9713C27.0899 24.5053 27.5228 24.9381 28.0567 24.9381ZM17.4103 20.8746C16.8763 20.8746 16.4435 21.3074 16.4435 21.8414V23.9714C16.4435 24.5053 16.8763 24.9382 17.4103 24.9382C17.9444 24.9382 18.3771 24.5053 18.3771 23.9714V21.8414C18.3771 21.3073 17.9443 20.8746 17.4103 20.8746ZM25.7104 29.746C25.4536 29.2781 24.8661 29.1066 24.3977 29.3634C24.0347 29.5626 23.4433 29.7968 22.6973 29.7905C21.9812 29.783 21.4167 29.5542 21.0693 29.3634C20.6008 29.1065 20.0135 29.2777 19.7566 29.7459C19.4996 30.2141 19.671 30.8016 20.139 31.0587C20.6804 31.3558 21.5602 31.7124 22.6771 31.7241C23.8054 31.7358 24.77 31.3647 25.3278 31.0588C25.7959 30.8019 25.9671 30.2142 25.7104 29.746Z" fill="#00993E"/>
</g>
<defs>
<filter id="filter0_d_108_11192" x="-3.5166" y="0" width="73.0332" height="74" filterUnits="userSpaceOnUse" color-interpolation-filters="sRGB">
<feFlood flood-opacity="0" result="BackgroundImageFix"/>
<feColorMatrix in="SourceAlpha" type="matrix" values="0 0 0 0 0 0 0 0 0 0 0 0 0 0 0 0 0 0 127 0" result="hardAlpha"/>
<feOffset dy="4"/>
<feGaussianBlur stdDeviation="2"/>
<feComposite in2="hardAlpha" operator="out"/>
<feColorMatrix type="matrix" values="0 0 0 0 0 0 0 0 0 0 0 0 0 0 0 0 0 0 0.25 0"/>
<feBlend mode="normal" in2="BackgroundImageFix" result="effect1_dropShadow_108_11192"/>
<feBlend mode="normal" in="SourceGraphic" in2="effect1_dropShadow_108_11192" result="shape"/>
</filter>
</defs>
</svg>
