<svg width="14" height="14" viewBox="0 0 14 14" fill="none" xmlns="http://www.w3.org/2000/svg">
<path d="M2.82633 9.30626C4.20718 10.9569 5.86943 12.2565 7.76665 13.1761C8.48899 13.5184 9.45501 13.9246 10.5313 13.9942C10.598 13.9971 10.6618 14 10.7285 14C11.4509 14 12.0311 13.7505 12.5039 13.237C12.5068 13.2341 12.5126 13.2283 12.5155 13.2225C12.6838 13.0195 12.8752 12.8367 13.0754 12.6424C13.2118 12.5118 13.351 12.3755 13.4844 12.2362C14.1023 11.5922 14.1023 10.7741 13.4786 10.1504L11.7352 8.40696C11.4393 8.09946 11.0853 7.93701 10.714 7.93701C10.3427 7.93701 9.98589 8.09946 9.68129 8.40406L8.64274 9.4426C8.54701 9.38748 8.44838 9.33817 8.35555 9.29175C8.23951 9.23373 8.13217 9.17862 8.03644 9.1177C7.09073 8.5172 6.23205 7.73394 5.41108 6.72731C4.99624 6.20224 4.71775 5.76129 4.52339 5.31165C4.79608 5.06506 5.05136 4.80688 5.29794 4.5545C5.38497 4.46457 5.4749 4.37464 5.56483 4.28471C5.87813 3.9714 6.04639 3.60879 6.04639 3.24036C6.04639 2.87194 5.88103 2.50932 5.56483 2.19602L4.70034 1.33154C4.59881 1.23 4.50308 1.13137 4.40445 1.02984C4.21298 0.832574 4.01282 0.629507 3.81555 0.446747C3.51675 0.15375 3.16574 0 2.79442 0C2.42599 0 2.07208 0.153751 1.76168 0.449648L0.676717 1.5346C0.282187 1.92913 0.0588137 2.40779 0.0123984 2.96187C-0.0427197 3.6552 0.0849224 4.39204 0.415631 5.28264C0.923299 6.66059 1.68915 7.93991 2.82633 9.30626ZM0.720232 3.02279C0.755043 2.63697 0.902992 2.31496 1.18148 2.03647L2.26064 0.957315C2.42889 0.794861 2.61456 0.710734 2.79442 0.710734C2.97137 0.710734 3.15123 0.794861 3.31659 0.963116C3.51095 1.14298 3.69371 1.33154 3.89098 1.5317C3.98961 1.63324 4.09114 1.73477 4.19268 1.8392L5.05716 2.70369C5.23702 2.88355 5.32985 3.06631 5.32985 3.24617C5.32985 3.42603 5.23702 3.60879 5.05716 3.78865C4.96723 3.87857 4.8773 3.97141 4.78737 4.06133C4.51758 4.33402 4.2652 4.59221 3.98671 4.83879C3.98091 4.84459 3.97801 4.84749 3.9722 4.85329C3.73142 5.09407 3.76914 5.32325 3.82716 5.49731C3.83006 5.50601 3.83296 5.51181 3.83586 5.52051C4.05923 6.05719 4.36964 6.56776 4.85409 7.17696C5.72438 8.25031 6.64108 9.08288 7.65062 9.724C7.77536 9.80522 7.9088 9.86904 8.03354 9.93286C8.14958 9.99088 8.25692 10.046 8.35265 10.1069C8.36425 10.1127 8.37295 10.1185 8.38456 10.1243C8.48029 10.1736 8.57312 10.1969 8.66595 10.1969C8.89803 10.1969 9.04888 10.0489 9.09819 9.99959L10.1832 8.91463C10.3514 8.74637 10.5342 8.65644 10.714 8.65644C10.9345 8.65644 11.1144 8.79279 11.2275 8.91463L12.9768 10.661C13.3249 11.0091 13.322 11.3862 12.9681 11.7547C12.8462 11.8852 12.7186 12.0099 12.5822 12.1405C12.3792 12.3378 12.1674 12.5408 11.9759 12.77C11.6423 13.1297 11.2449 13.298 10.7314 13.298C10.6821 13.298 10.6299 13.2951 10.5806 13.2922C9.62907 13.2312 8.74428 12.8599 8.07996 12.5437C6.27556 11.6705 4.69164 10.4318 3.37751 8.85951C2.29545 7.55698 1.56731 6.34438 1.08575 5.04476C0.786954 4.247 0.673817 3.60588 0.720232 3.02279Z" fill="white"/>
</svg>
