<svg width="22" height="21" viewBox="0 0 22 21" fill="none" xmlns="http://www.w3.org/2000/svg">
<g clip-path="url(#clip0_228_2669)">
<path d="M11.7503 10.9167C13.3126 10.9167 14.5837 9.64563 14.5837 8.08333C14.5837 6.52103 13.3126 5.25 11.7503 5.25C11.7442 5.25 11.7382 5.2501 11.7321 5.25033H9.41766C9.41743 5.25033 9.41723 5.2503 9.41703 5.2503C9.14089 5.2503 8.91703 5.47417 8.91703 5.7503V5.75033V10.4167V11.9167H8.41699C8.14086 11.9167 7.91699 12.1405 7.91699 12.4167C7.91699 12.6928 8.14086 12.9167 8.41699 12.9167H8.91699V15.75C8.91699 16.0261 9.14086 16.25 9.41699 16.25C9.69313 16.25 9.91699 16.0261 9.91699 15.75V12.9167H11.7503C12.0265 12.9167 12.2503 12.6928 12.2503 12.4167C12.2503 12.1405 12.0265 11.9167 11.7503 11.9167H9.91699V10.9167H11.7503ZM11.7503 6.25033C11.7557 6.25033 11.7611 6.25023 11.7665 6.25007C12.77 6.25873 13.5837 7.0778 13.5837 8.08333C13.5837 9.09423 12.7612 9.91667 11.7503 9.91667H9.91699V6.25033H11.7503Z" fill="#00993E"/>
</g>
<circle opacity="0.3" cx="11" cy="10.5" r="10" stroke="#00993E"/>
<defs>
<clipPath id="clip0_228_2669">
<rect width="11" height="11" fill="white" transform="translate(5.75 5.25)"/>
</clipPath>
</defs>
</svg>
