<svg width="21" height="21" viewBox="0 0 21 21" fill="none" xmlns="http://www.w3.org/2000/svg">
<path d="M3.68483 3.67874C6.83243 0.644582 11.5167 0.765516 14.4299 3.67874C17.2157 6.46452 17.386 10.8753 14.9408 13.8598L19.2652 18.1846L18.1907 19.2591L13.8659 14.9348C10.8814 17.3799 6.4706 17.2096 3.68483 14.4238C0.771599 11.5106 0.634617 6.61902 3.68483 3.67874ZM13.3554 4.75325C10.9817 2.37951 7.13307 2.37951 4.75933 4.75325C2.38559 7.127 2.38559 10.9756 4.75933 13.3493C7.13307 15.7231 10.9817 15.7231 13.3554 13.3493C15.7291 10.9756 15.7291 7.127 13.3554 4.75325Z" fill="white"/>
</svg>
