<svg width="30" height="31" viewBox="0 0 30 31" fill="none" xmlns="http://www.w3.org/2000/svg">
<g clip-path="url(#clip0_108_12827)">
<path d="M21.2125 19.3264C20.9405 19.1241 20.556 19.1806 20.3536 19.4526C20.2423 19.6022 20.1232 19.7489 19.9996 19.8887C19.7751 20.1427 19.799 20.5306 20.053 20.7552C20.1698 20.8584 20.3148 20.9091 20.4593 20.9091C20.6291 20.9091 20.7981 20.8391 20.9194 20.7018C21.0658 20.5363 21.2068 20.3625 21.3386 20.1853C21.541 19.9133 21.4845 19.5288 21.2125 19.3264Z" fill="white"/>
<path d="M22.2393 16.4478C21.9083 16.3757 21.5811 16.5858 21.509 16.917C21.4693 17.0992 21.4214 17.2818 21.3664 17.4596C21.2663 17.7836 21.4478 18.1273 21.7716 18.2273C21.832 18.246 21.893 18.2548 21.9531 18.2548C22.2152 18.2548 22.4579 18.0856 22.5393 17.822C22.6046 17.6109 22.6615 17.3943 22.7086 17.1781C22.7807 16.8469 22.5706 16.5199 22.2393 16.4478Z" fill="white"/>
<path d="M18.2579 21.2918C18.0949 21.3828 17.9262 21.4678 17.7564 21.5445C17.4474 21.6841 17.31 22.0476 17.4496 22.3566C17.5521 22.5836 17.7755 22.7179 18.0094 22.7179C18.0938 22.7179 18.1797 22.7004 18.2617 22.6634C18.4631 22.5724 18.6631 22.4716 18.8564 22.3637C19.1524 22.1985 19.2584 21.8245 19.0931 21.5285C18.9279 21.2326 18.5539 21.1266 18.2579 21.2918Z" fill="white"/>
<path d="M14.3863 10.5894V15.2459L12.1353 17.4968C11.8956 17.7365 11.8956 18.1252 12.1353 18.3649C12.2552 18.4847 12.4123 18.5447 12.5694 18.5447C12.7265 18.5447 12.8836 18.4847 13.0035 18.3649L15.4342 15.9342C15.5493 15.8191 15.6139 15.6629 15.6139 15.5001V10.5894C15.6139 10.2504 15.3391 9.97559 15.0001 9.97559C14.6611 9.97559 14.3863 10.2504 14.3863 10.5894Z" fill="white"/>
<path d="M22.2435 8.96233C21.9045 8.96233 21.6297 9.23715 21.6297 9.57617V11.2807C20.2009 9.03992 17.7057 7.64258 15.0002 7.64258C12.9015 7.64258 10.9284 8.45987 9.44435 9.94386C7.96036 11.4279 7.14307 13.401 7.14307 15.4997C7.14307 17.5984 7.96036 19.5715 9.44435 21.0556C10.9284 22.5396 12.9015 23.3569 15.0002 23.3569C15.0054 23.3569 15.0104 23.3562 15.0156 23.3561C15.0207 23.3562 15.0257 23.3569 15.0309 23.3569C15.2521 23.3569 15.4755 23.3475 15.695 23.3292C16.0328 23.3009 16.2837 23.0041 16.2555 22.6663C16.2272 22.3284 15.9308 22.0774 15.5925 22.1058C15.407 22.1213 15.2181 22.1292 15.0309 22.1292C15.0257 22.1292 15.0207 22.1298 15.0156 22.13C15.0104 22.1298 15.0054 22.1292 15.0002 22.1292C11.3447 22.1292 8.37074 19.1552 8.37074 15.4997C8.37074 11.8442 11.3447 8.87026 15.0002 8.87026C17.3561 8.87026 19.5229 10.126 20.707 12.1236H19.0191C18.6801 12.1236 18.4053 12.3984 18.4053 12.7374C18.4053 13.0765 18.6801 13.3513 19.0191 13.3513H20.8931C21.2669 13.3513 21.6166 13.2462 21.9144 13.0642C21.9336 13.0533 21.952 13.0415 21.9695 13.0289C22.5037 12.6774 22.8574 12.0729 22.8574 11.387V9.57617C22.8574 9.23715 22.5825 8.96233 22.2435 8.96233Z" fill="white"/>
</g>
<circle opacity="0.3" cx="15" cy="15.5" r="14.5" stroke="white"/>
<defs>
<clipPath id="clip0_108_12827">
<rect width="15.7143" height="15.7143" fill="white" transform="translate(7.14307 7.64258)"/>
</clipPath>
</defs>
</svg>
