<svg width="30" height="31" viewBox="0 0 30 31" fill="none" xmlns="http://www.w3.org/2000/svg">
<g clip-path="url(#clip0_108_12841)">
<path d="M14.61 23.7913C14.6969 23.9217 14.8433 24 15 24C15.1567 24 15.3031 23.9217 15.39 23.7913C16.4994 22.1273 18.1333 20.0723 19.272 17.9822C20.1824 16.3111 20.625 14.8858 20.625 13.625C20.625 10.5234 18.1016 8 15 8C11.8984 8 9.375 10.5234 9.375 13.625C9.375 14.8858 9.81759 16.3111 10.728 17.9822C11.8658 20.0707 13.5029 22.1307 14.61 23.7913ZM15 8.9375C17.5847 8.9375 19.6875 11.0403 19.6875 13.625C19.6875 14.7251 19.2823 16.0037 18.4487 17.5337C17.4672 19.3352 16.0667 21.1627 15 22.699C13.9335 21.1629 12.5328 19.3353 11.5513 17.5337C10.7177 16.0037 10.3125 14.7251 10.3125 13.625C10.3125 11.0403 12.4153 8.9375 15 8.9375Z" fill="white"/>
<path d="M15 16.4375C16.5508 16.4375 17.8125 15.1758 17.8125 13.625C17.8125 12.0742 16.5508 10.8125 15 10.8125C13.4492 10.8125 12.1875 12.0742 12.1875 13.625C12.1875 15.1758 13.4492 16.4375 15 16.4375ZM15 11.75C16.0339 11.75 16.875 12.5911 16.875 13.625C16.875 14.6589 16.0339 15.5 15 15.5C13.9661 15.5 13.125 14.6589 13.125 13.625C13.125 12.5911 13.9661 11.75 15 11.75Z" fill="white"/>
</g>
<circle opacity="0.3" cx="15" cy="15.5" r="14.5" stroke="white"/>
<defs>
<clipPath id="clip0_108_12841">
<rect width="16" height="16" fill="white" transform="translate(7 8)"/>
</clipPath>
</defs>
</svg>
