<svg width="15" height="15" viewBox="0 0 15 15" fill="none" xmlns="http://www.w3.org/2000/svg">
<path d="M13.6144 9.32975C13.5842 9.21717 13.5105 9.12119 13.4096 9.06292C13.3086 9.00462 13.1887 8.98886 13.0761 9.019L11.6652 9.39705L10.8946 8.95215L11.7383 8.64081C11.966 8.55678 12.0824 8.30407 11.9984 8.0764C11.9144 7.84871 11.6618 7.73219 11.434 7.81628L9.90471 8.38062L9.24732 8.00108V6.99886L9.90471 6.61932L11.434 7.18367C11.4842 7.20218 11.5355 7.21097 11.5861 7.21097C11.7649 7.21097 11.9329 7.10105 11.9984 6.92354C12.0824 6.69588 11.966 6.44316 11.7383 6.35914L10.8946 6.0478L11.6652 5.6029L13.0761 5.98094C13.1135 5.99096 13.1518 5.99591 13.1899 5.99591C13.2663 5.99591 13.3422 5.97593 13.4096 5.93703C13.5105 5.87876 13.5842 5.78278 13.6143 5.67019L14.0395 4.08341C14.1023 3.84898 13.9632 3.60801 13.7288 3.5452L12.1421 3.12002C12.0295 3.08984 11.9095 3.10566 11.8086 3.16393C11.7076 3.2222 11.634 3.31818 11.6038 3.43077L11.2257 4.84173L10.4552 5.28664L10.6074 4.40035C10.6484 4.16114 10.4878 3.93394 10.2487 3.89284C10.0092 3.85171 9.78222 4.0124 9.74118 4.25158L9.46526 5.85816L8.80787 6.2377L7.93992 5.73652V4.97753L9.19329 3.93529C9.37989 3.7801 9.40537 3.50304 9.25019 3.31642C9.09497 3.12977 8.81797 3.10431 8.63132 3.2595L7.93992 3.83445V2.94467L8.97281 1.91181C9.05522 1.8294 9.10154 1.71763 9.10154 1.60109C9.10154 1.48455 9.05525 1.37278 8.97281 1.29037L7.81119 0.128716C7.63959 -0.0429053 7.36133 -0.0429053 7.18971 0.128716L6.02812 1.29031C5.8565 1.46193 5.8565 1.74016 6.02812 1.91178L7.06101 2.94464V3.83445L6.36954 3.2595C6.18292 3.10431 5.90586 3.12983 5.75068 3.31642C5.59552 3.50304 5.62098 3.7801 5.8076 3.93529L7.06101 4.9775V5.73646L6.19303 6.2377L5.53567 5.85819L5.25975 4.25158C5.21865 4.0124 4.9916 3.85171 4.75224 3.89284C4.51303 3.93391 4.35246 4.16114 4.3935 4.40035L4.54573 5.28664L3.77513 4.84173L3.39706 3.43077C3.36691 3.31818 3.29326 3.2222 3.1923 3.16393C3.09137 3.10566 2.97143 3.08987 2.85884 3.12002L1.27209 3.5452C1.03766 3.60801 0.89856 3.84898 0.961372 4.08341L1.38653 5.67019C1.41667 5.78278 1.49033 5.87876 1.59128 5.93703C1.65867 5.97593 1.73455 5.99591 1.81101 5.99591C1.84907 5.99591 1.88733 5.99096 1.92474 5.98094L3.33568 5.6029L4.10627 6.0478L3.26264 6.35914C3.03495 6.44316 2.91846 6.69588 3.00251 6.92354C3.06802 7.10108 3.23607 7.211 3.41484 7.21097C3.46538 7.21097 3.51676 7.20218 3.56692 7.18367L5.09622 6.61932L5.75361 6.99886V8.00108L5.09622 8.38062L3.56692 7.81628C3.33925 7.73222 3.08654 7.84871 3.00251 8.0764C2.91849 8.30407 3.03495 8.55678 3.26264 8.64081L4.10627 8.95215L3.33568 9.39705L1.92474 9.019C1.81212 8.9888 1.69221 9.00462 1.59128 9.06292C1.49036 9.12119 1.4167 9.21717 1.38653 9.32975L0.961372 10.9165C0.89856 11.151 1.03766 11.3919 1.27209 11.4547L2.85884 11.8799C2.89625 11.8899 2.93449 11.8949 2.97257 11.8949C3.04907 11.8949 3.12492 11.8749 3.1923 11.836C3.29323 11.7777 3.36688 11.6818 3.39706 11.5692L3.77513 10.1582L4.54573 9.71331L4.3935 10.5996C4.35243 10.8388 4.51303 11.066 4.75224 11.1071C4.77741 11.1114 4.80246 11.1135 4.82715 11.1135C5.03721 11.1135 5.22298 10.9624 5.25975 10.7484L5.53567 9.14179L6.19303 8.76227L7.06101 9.26354V10.0225L5.80763 11.0647C5.62101 11.2199 5.59552 11.497 5.75071 11.6836C5.90589 11.8702 6.18295 11.8957 6.36957 11.7405L7.06101 11.1656V12.0554L6.02815 13.0882C5.85653 13.2598 5.85653 13.5381 6.02815 13.7097L7.18974 14.8713C7.27555 14.9571 7.38799 15 7.50046 15C7.6129 15 7.7254 14.9571 7.81119 14.8713L8.97278 13.7097C9.05519 13.6273 9.10151 13.5155 9.10151 13.3989C9.10151 13.2824 9.05522 13.1706 8.97278 13.0882L7.93992 12.0553V11.1656L8.63135 11.7405C8.71347 11.8088 8.81305 11.8421 8.9121 11.8421C9.03817 11.8421 9.16332 11.7881 9.25022 11.6836C9.4054 11.497 9.37992 11.2199 9.19332 11.0647L7.93992 10.0225V9.26345L8.80789 8.76227L9.46529 9.14181L9.74121 10.7484C9.77794 10.9624 9.96371 11.1135 10.1738 11.1135C10.1985 11.1135 10.2235 11.1114 10.2487 11.1071C10.4879 11.066 10.6485 10.8388 10.6074 10.5996L10.4552 9.71331L11.2258 10.1582L11.6039 11.5692C11.634 11.6818 11.7077 11.7777 11.8086 11.836C11.876 11.8749 11.9519 11.8949 12.0284 11.8949C12.0664 11.8949 12.1047 11.8899 12.1421 11.8799L13.7289 11.4547C13.9633 11.3919 14.1024 11.151 14.0396 10.9165L13.6144 9.32975Z" fill="#01518E"/>
</svg>
