<svg width="15" height="15" viewBox="0 0 15 15" fill="none" xmlns="http://www.w3.org/2000/svg">
<path d="M2.22656 7.93945H0.439453C0.196758 7.93945 0 7.7427 0 7.5C0 7.2573 0.196758 7.06055 0.439453 7.06055H2.22656C2.46926 7.06055 2.66602 7.2573 2.66602 7.5C2.66602 7.7427 2.46926 7.93945 2.22656 7.93945Z" fill="#FFBB0E"/>
<path d="M5.07597 2.79624L4.73962 1.98419C4.64675 1.75995 4.75321 1.5029 4.97745 1.41003H4.97748C5.20172 1.31716 5.45877 1.42362 5.55164 1.64786L5.88799 2.45991C5.98086 2.68415 5.8744 2.9412 5.65016 3.03407H5.65013C5.4259 3.12694 5.16885 3.02045 5.07597 2.79624Z" fill="#FFBB0E"/>
<path d="M2.45939 5.888L1.64737 5.55164C1.42313 5.45877 1.31667 5.20169 1.40954 4.97748V4.97745C1.50241 4.75321 1.75949 4.64675 1.9837 4.73962L2.79572 5.07598C3.01996 5.16885 3.12643 5.42593 3.03355 5.65014V5.65017C2.94068 5.87438 2.6836 5.98087 2.45939 5.888Z" fill="#FFBB0E"/>
<path d="M11.9662 5.65017C11.8733 5.42593 11.9798 5.16885 12.204 5.07598L13.0161 4.73962C13.2403 4.64675 13.4974 4.75321 13.5902 4.97745V4.97748C13.6831 5.20172 13.5766 5.45877 13.3524 5.55164L12.5403 5.888C12.3161 5.98087 12.0591 5.87438 11.9662 5.65017Z" fill="#FFBB0E"/>
<path d="M9.34955 3.03407C9.12531 2.9412 9.01881 2.68412 9.11168 2.45991L9.44804 1.64786C9.54092 1.42362 9.798 1.31716 10.0222 1.41003H10.0222C10.2465 1.5029 10.3529 1.75998 10.2601 1.98419L9.92371 2.79624C9.83084 3.02045 9.57379 3.12694 9.34955 3.03407Z" fill="#FFBB0E"/>
<path d="M7.5 11.4551C5.31917 11.4551 3.54492 9.68083 3.54492 7.5C3.54492 5.31917 5.31917 3.54492 7.5 3.54492C9.68083 3.54492 11.4551 5.31917 11.4551 7.5C11.4551 9.68083 9.68083 11.4551 7.5 11.4551Z" fill="#FFBB0E"/>
<path d="M7.5 15C7.25728 15 7.06055 14.8032 7.06055 14.5605V12.7734C7.06055 12.5307 7.2573 12.334 7.5 12.334C7.7427 12.334 7.93945 12.5307 7.93945 12.7734V14.5605C7.93945 14.8032 7.7427 15 7.5 15Z" fill="#FFBB0E"/>
<path d="M7.5 2.66602C7.25728 2.66602 7.06055 2.46926 7.06055 2.22656V0.439453C7.06055 0.196758 7.2573 0 7.5 0C7.7427 0 7.93945 0.196758 7.93945 0.439453V2.22656C7.93945 2.46926 7.7427 2.66602 7.5 2.66602Z" fill="#FFBB0E"/>
<path d="M14.5605 7.93945H12.7734C12.5307 7.93945 12.334 7.7427 12.334 7.5C12.334 7.2573 12.5307 7.06055 12.7734 7.06055H14.5605C14.8032 7.06055 15 7.2573 15 7.5C15 7.7427 14.8032 7.93945 14.5605 7.93945Z" fill="#FFBB0E"/>
<path d="M2.19708 12.8034C2.02545 12.6318 2.02545 12.3536 2.19708 12.182L3.46077 10.9183C3.63239 10.7466 3.91062 10.7466 4.08225 10.9183C4.25387 11.0899 4.25387 11.3681 4.08225 11.5397L2.81855 12.8034C2.64693 12.975 2.3687 12.975 2.19708 12.8034Z" fill="#FFBB0E"/>
<path d="M12.1815 12.8034L10.9178 11.5397C10.7462 11.3681 10.7462 11.0899 10.9178 10.9183C11.0894 10.7466 11.3676 10.7466 11.5392 10.9183L12.8029 12.182C12.9746 12.3536 12.9746 12.6318 12.8029 12.8034C12.6313 12.975 12.3531 12.975 12.1815 12.8034Z" fill="#FFBB0E"/>
<path d="M3.46074 4.08176L2.19708 2.81806C2.02545 2.64644 2.02545 2.36821 2.19708 2.19659C2.3687 2.02497 2.64693 2.02497 2.81855 2.19659L4.08225 3.46028C4.25387 3.6319 4.25387 3.91014 4.08225 4.08176C3.91059 4.25338 3.63236 4.25338 3.46074 4.08176Z" fill="#FFBB0E"/>
<path d="M10.9178 4.08176C10.7462 3.91014 10.7462 3.6319 10.9178 3.46028L12.1815 2.19659C12.3531 2.02497 12.6313 2.02497 12.8029 2.19659C12.9746 2.36821 12.9746 2.64644 12.8029 2.81806L11.5392 4.08176C11.3676 4.25338 11.0894 4.25338 10.9178 4.08176Z" fill="#FFBB0E"/>
<path d="M4.97747 13.59C4.75324 13.4971 4.64674 13.24 4.73961 13.0158L5.07597 12.2038C5.16884 11.9795 5.42592 11.8731 5.65013 11.9659H5.65016C5.87439 12.0588 5.98086 12.3159 5.88799 12.5401L5.55163 13.3522C5.45876 13.5764 5.20168 13.6829 4.97747 13.59Z" fill="#FFBB0E"/>
<path d="M1.40954 10.0226C1.31667 9.79836 1.42313 9.54128 1.64737 9.44841L2.45939 9.11206C2.68363 9.01918 2.94068 9.12565 3.03355 9.34989V9.34992C3.12643 9.57415 3.01996 9.8312 2.79572 9.92407L1.9837 10.2604C1.75949 10.3533 1.50241 10.2468 1.40954 10.0226Z" fill="#FFBB0E"/>
<path d="M13.0161 10.2604L12.204 9.92407C11.9798 9.8312 11.8733 9.57412 11.9662 9.34992V9.34989C12.0591 9.12565 12.3161 9.01918 12.5403 9.11206L13.3524 9.44841C13.5766 9.54128 13.6831 9.79836 13.5902 10.0226V10.0226C13.4974 10.2468 13.2403 10.3533 13.0161 10.2604Z" fill="#FFBB0E"/>
<path d="M9.44805 13.3522L9.11169 12.5401C9.01882 12.3159 9.12528 12.0588 9.34952 11.9659H9.34955C9.57379 11.8731 9.83084 11.9795 9.92371 12.2038L10.2601 13.0158C10.3529 13.2401 10.2465 13.4971 10.0222 13.59H10.0222C9.798 13.6829 9.54092 13.5764 9.44805 13.3522Z" fill="#FFBB0E"/>
</svg>
