<svg width="25" height="25" viewBox="0 0 25 25" fill="none" xmlns="http://www.w3.org/2000/svg">
<g clip-path="url(#clip0_108_8666)">
<path d="M18.8711 15.4619C18.8555 15.4283 18.8409 15.4004 18.8274 15.3781C18.604 14.9757 18.177 14.4817 17.5467 13.8961L17.5334 13.8827L17.5267 13.8761L17.52 13.8694H17.5132C17.2271 13.5967 17.046 13.4133 16.9701 13.3194C16.8313 13.1406 16.8002 12.9596 16.8761 12.7762C16.9297 12.6376 17.131 12.345 17.4796 11.8979C17.6629 11.6609 17.8082 11.471 17.9154 11.3279C18.6888 10.2997 19.0241 9.64267 18.9213 9.35654L18.8813 9.28968C18.8545 9.24942 18.7852 9.21259 18.6735 9.17901C18.5617 9.14549 18.4186 9.13995 18.2443 9.16229L16.3131 9.17563C16.2819 9.16454 16.2372 9.16558 16.179 9.17901C16.1209 9.19244 16.0918 9.19918 16.0918 9.19918L16.0582 9.21598L16.0315 9.23615C16.0091 9.24949 15.9846 9.27295 15.9577 9.30649C15.931 9.33991 15.9087 9.37913 15.8908 9.42383C15.6806 9.96474 15.4415 10.4676 15.1732 10.9325C15.0078 11.2097 14.8559 11.45 14.7172 11.6534C14.5786 11.8567 14.4624 12.0066 14.3686 12.1026C14.2747 12.1987 14.1899 12.2757 14.1137 12.3339C14.0377 12.3921 13.9797 12.4167 13.9395 12.4077C13.8992 12.3987 13.8613 12.3898 13.8254 12.3808C13.7628 12.3406 13.7125 12.2858 13.6746 12.2166C13.6365 12.1473 13.6109 12.0601 13.5974 11.955C13.5841 11.8499 13.5762 11.7595 13.574 11.6835C13.5719 11.6075 13.5728 11.5001 13.5774 11.3616C13.582 11.2229 13.5841 11.1291 13.5841 11.0799C13.5841 10.91 13.5874 10.7256 13.5941 10.5267C13.6008 10.3278 13.6063 10.1702 13.6109 10.0541C13.6154 9.93782 13.6176 9.81485 13.6176 9.68521C13.6176 9.55556 13.6097 9.45389 13.5941 9.3801C13.5787 9.3064 13.555 9.23486 13.5238 9.1655C13.4925 9.09622 13.4466 9.04263 13.3864 9.00458C13.326 8.96658 13.251 8.93642 13.1618 8.91402C12.9248 8.8604 12.6231 8.83139 12.2564 8.82688C11.425 8.81796 10.8908 8.87165 10.6538 8.98788C10.56 9.03699 10.475 9.10409 10.3991 9.18897C10.3186 9.28735 10.3074 9.34104 10.3655 9.34987C10.6337 9.39006 10.8236 9.48618 10.9354 9.63816L10.9757 9.7187C11.007 9.7768 11.0383 9.87967 11.0696 10.0272C11.1009 10.1747 11.121 10.3378 11.1299 10.5165C11.1522 10.8429 11.1522 11.1223 11.1299 11.3547C11.1075 11.5873 11.0864 11.7683 11.0662 11.8979C11.046 12.0275 11.0159 12.1326 10.9757 12.213C10.9354 12.2935 10.9086 12.3427 10.8952 12.3605C10.8817 12.3784 10.8706 12.3896 10.8617 12.394C10.8036 12.4163 10.7432 12.4277 10.6806 12.4277C10.618 12.4277 10.542 12.3963 10.4526 12.3337C10.3633 12.2711 10.2705 12.1851 10.1744 12.0756C10.0783 11.966 9.96986 11.8129 9.84911 11.6162C9.72846 11.4195 9.60328 11.1871 9.47364 10.9189L9.36638 10.7244C9.29933 10.5992 9.20773 10.417 9.0915 10.1779C8.97519 9.93871 8.8724 9.70733 8.78303 9.48381C8.74731 9.38994 8.69364 9.31847 8.62213 9.26929L8.58857 9.24912C8.56626 9.23127 8.53044 9.21231 8.48131 9.19211C8.4321 9.17194 8.38076 9.15747 8.32707 9.14857L6.48978 9.16191C6.30203 9.16191 6.17464 9.20444 6.10757 9.28939L6.08072 9.32958C6.06731 9.35196 6.06055 9.38771 6.06055 9.43691C6.06055 9.48609 6.07396 9.54645 6.1008 9.61792C6.36901 10.2483 6.66069 10.8562 6.97582 11.4418C7.29096 12.0274 7.56481 12.4991 7.7972 12.8566C8.02964 13.2142 8.26657 13.5518 8.50799 13.8691C8.7494 14.1865 8.9092 14.3899 8.98738 14.4793C9.06566 14.5688 9.12715 14.6358 9.17184 14.6804L9.33951 14.8413C9.4468 14.9487 9.60434 15.0772 9.81222 15.2269C10.0201 15.3767 10.2503 15.5242 10.5029 15.6696C10.7555 15.8148 11.0494 15.9332 11.3847 16.0249C11.72 16.1166 12.0463 16.1534 12.3637 16.1356H13.1348C13.2912 16.1221 13.4097 16.0729 13.4903 15.9881L13.5169 15.9545C13.5349 15.9278 13.5517 15.8863 13.5672 15.8305C13.5829 15.7747 13.5907 15.7131 13.5907 15.6461C13.5861 15.454 13.6007 15.2808 13.6342 15.1265C13.6676 14.9724 13.7057 14.8561 13.7483 14.7779C13.7909 14.6997 13.8389 14.6337 13.8924 14.5802C13.946 14.5265 13.9842 14.4941 14.0066 14.4829C14.0288 14.4716 14.0466 14.464 14.06 14.4594C14.1673 14.4237 14.2936 14.4583 14.439 14.5634C14.5843 14.6685 14.7206 14.7982 14.8481 14.9524C14.9755 15.1067 15.1286 15.2798 15.3074 15.472C15.4862 15.6642 15.6427 15.8071 15.7767 15.9012L15.9108 15.9816C16.0003 16.0353 16.1165 16.0845 16.2596 16.1292C16.4024 16.1739 16.5276 16.185 16.635 16.1627L18.3516 16.1359C18.5213 16.1359 18.6534 16.1078 18.7471 16.052C18.841 15.9962 18.8968 15.9346 18.9148 15.8676C18.9328 15.8006 18.9337 15.7246 18.9182 15.6395C18.9023 15.5547 18.8867 15.4954 18.8711 15.4619Z" fill="white"/>
</g>
<circle cx="12.5" cy="12.5" r="12" stroke="white"/>
<defs>
<clipPath id="clip0_108_8666">
<rect width="12.8788" height="12.8788" fill="white" transform="translate(6.06055 6.06055)"/>
</clipPath>
</defs>
</svg>
