<svg width="25" height="25" viewBox="0 0 25 25" fill="none" xmlns="http://www.w3.org/2000/svg">
<g clip-path="url(#clip0_108_8660)">
<path d="M12.5016 6.06055H12.4983C8.94781 6.06055 6.06055 8.94861 6.06055 12.4999C6.06055 13.9086 6.51452 15.2141 7.28645 16.2742L6.48394 18.6665L8.95908 17.8752C9.97731 18.5498 11.1919 18.9393 12.5016 18.9393C16.0521 18.9393 18.9393 16.0505 18.9393 12.4999C18.9393 8.94942 16.0521 6.06055 12.5016 6.06055ZM16.2485 15.1538C16.0931 15.5925 15.4766 15.9563 14.9847 16.0625C14.6483 16.1342 14.2088 16.1913 12.7293 15.578C10.837 14.794 9.61831 12.871 9.52333 12.7462C9.43237 12.6215 8.75865 11.728 8.75865 10.804C8.75865 9.87991 9.22792 9.42996 9.41708 9.23678C9.57243 9.07821 9.8292 9.00576 10.0755 9.00576C10.1552 9.00576 10.2268 9.00979 10.2912 9.01301C10.4804 9.02106 10.5754 9.03233 10.7001 9.33095C10.8555 9.70524 11.2338 10.6293 11.2789 10.7243C11.3248 10.8193 11.3706 10.948 11.3062 11.0728C11.2459 11.2016 11.1927 11.2587 11.0978 11.3682C11.0028 11.4777 10.9126 11.5614 10.8176 11.6789C10.7307 11.7811 10.6325 11.8906 10.742 12.0798C10.8515 12.2649 11.2298 12.8823 11.7868 13.3781C12.5056 14.018 13.0883 14.2225 13.2968 14.3094C13.4522 14.3738 13.6373 14.3585 13.7508 14.2378C13.8949 14.0824 14.0728 13.8248 14.2539 13.5713C14.3827 13.3894 14.5453 13.3668 14.7159 13.4312C14.8898 13.4916 15.8098 13.9464 15.9989 14.0406C16.1881 14.1355 16.3129 14.1806 16.3587 14.2603C16.4038 14.34 16.4038 14.7143 16.2485 15.1538Z" fill="white"/>
</g>
<circle cx="12.5" cy="12.5" r="12" stroke="white"/>
<defs>
<clipPath id="clip0_108_8660">
<rect width="12.8788" height="12.8788" fill="white" transform="translate(6.06055 6.06055)"/>
</clipPath>
</defs>
</svg>
